{
.appVersion = "1131";
DisplayStrings = (
"À",
AA,
A,
"",
"",
"à",
a,
b,
c,
d,
e,
abcdef,
"/acutecomb ´",
"/dieresiscomb ¨",
"´",
"/acutecomb",
"/gravecomb `",
"/gravecomb",
"á",
"â",
"/dieresiscomb",
"¨",
"/circumflexcomb/circumflex",
"/caroncomb/caron",
"/caroncomb",
"/tildecomb/ilde",
"/circumflex",
"/ilde",
"/caron",
"ç",
"/cedillacomb ¸",
C,
"æ",
"¸",
"/cedillacomb",
"/minus",
"/a.ss01",
"/e.ss01",
"/t.ss01",
"/A.ss02",
"/A.ss1",
"/Y.ss01",
"/longs",
"ß",
"ã",
"ä",
"å",
"/ring",
"/tildecomb",
"/longsi.dlig",
"Å",
"Â",
"Ã",
"Æ",
"/dotlessi",
"/j.ss01",
N,
"",
"/trademark",
"/Euro",
"×",
"ý",
"",
"/circumflexcomb",
"ùúûü",
"/scaron",
"/Scaron",
"ó",
G
);
classes = (
{
automatic = 1;
code = "A B C D E F G H I J K L M N O P Q R S T U V W X Y Z Agrave Aacute Acircumflex Atilde Adieresis Aring AE Ccedilla Egrave Eacute Ecircumflex Edieresis Igrave Iacute Icircumflex Idieresis Eth Ntilde Ograve Oacute Ocircumflex Otilde Odieresis Oslash Ugrave Uacute Ucircumflex Udieresis Yacute Thorn Lslash OE Scaron Ydieresis Zcaron A.ss02 A.ss1 M.ss01 M.ss02 V.ss01 V.ss02 Y.ss01";
name = Uppercase;
},
{
automatic = 1;
code = "A B C D E F G H I J K L M N O P Q R S T U V W X Y Z a b c d e f g h i j k l m n o p q r s t u v w x y z Agrave Aacute Acircumflex Atilde Adieresis Aring AE Ccedilla Egrave Eacute Ecircumflex Edieresis Igrave Iacute Icircumflex Idieresis Eth Ntilde Ograve Oacute Ocircumflex Otilde Odieresis Oslash Ugrave Uacute Ucircumflex Udieresis Yacute Thorn germandbls agrave aacute acircumflex atilde adieresis aring ae ccedilla egrave eacute ecircumflex edieresis igrave iacute icircumflex idieresis eth ntilde ograve oacute ocircumflex otilde odieresis oslash ugrave uacute ucircumflex udieresis yacute thorn ydieresis dotlessi Lslash lslash OE oe Scaron scaron Ydieresis Zcaron zcaron fi.dlig A.ss02 A.ss1 M.ss01 M.ss02 V.ss01 V.ss02 Y.ss01 a.ss01 e.ss01 j.ss01 l.ss02 longs t.ss01";
name = AllLetters;
},
{
automatic = 1;

glyphs = (
{
glyphname = .notdef;
lastChange = "2018-10-30 01:52:17 +0000";
layers = (
{
layerId = "1B5A40BC-338C-4A9F-9FD4-89AE55A8ACCC";
paths = (
{
closed = 1;
nodes = (
"30 700 LINE",
"30 0 LINE",
"457 0 LINE",
"457 700 LINE"
);
},
{
closed = 1;
nodes = (
"58 680 LINE",
"429 680 LINE",
"243 371 LINE"
);
},
{
closed = 1;
nodes = (
"231 350 LINE",
"51 49 LINE",
"51 650 LINE"
);
},
{
closed = 1;
nodes = (
"244 329 LINE",
"429 21 LINE",
"59 21 LINE"
);
},
{
closed = 1;
nodes = (
"256 350 LINE",
"437 652 LINE",
"437 47 LINE"
);
}
);
width = 487;
}
);
note = .notdef;
},
{
glyphname = exclam;
lastChange = "2018-10-30 01:52:17 +0000";
layers = (
{
layerId = "1B5A40BC-338C-4A9F-9FD4-89AE55A8ACCC";
paths = (
{
closed = 1;
nodes = (
"85.67 83 OFFCURVE",
"76 79 OFFCURVE",
"68 71 CURVE SMOOTH",
"60 63 OFFCURVE",
"56 53.17 OFFCURVE",
"56 41.5 CURVE SMOOTH",
"56 29.83 OFFCURVE",
"60 20 OFFCURVE",
"68 12 CURVE SMOOTH",
"76 4 OFFCURVE",
"85.67 0 OFFCURVE",
"97 0 CURVE SMOOTH",
"108.33 0 OFFCURVE",
"118.17 4 OFFCURVE",
"126.5 12 CURVE SMOOTH",
"134.83 20 OFFCURVE",
"139 29.83 OFFCURVE",
"139 41.5 CURVE SMOOTH",
"139 53.17 OFFCURVE",
"134.83 63 OFFCURVE",
"126.5 71 CURVE SMOOTH",
"118.17 79 OFFCURVE",
"108.33 83 OFFCURVE",
"97 83 CURVE SMOOTH"
);
},
{
closed = 1;
nodes = (
"30 579 LINE",
"56 145 LINE",
"139 145 LINE",
"164 579 LINE"
);
}
);
width = 195;
}
);
note = exclam;
unicode = 0021;
},
{
glyphname = quotedbl;
lastChange = "2018-10-30 01:52:17 +0000";
layers = (
{
layerId = "1B5A40BC-338C-4A9F-9FD4-89AE55A8ACCC";
paths = (
{
closed = 1;
nodes = (
"175 483 LINE",
"190 317 LINE",
"242 317 LINE",
"258 483 LINE"
);
},
{
closed = 1;
nodes = (
"46 317 LINE",
"98 317 LINE",
"113 483 LINE",
"30 483 LINE"
);
}
);
width = 288;
}
);
note = quotedbl;
unicode = 0022;
},
{
glyphname = numbersign;
lastChange = "2018-10-30 01:52:17 +0000";
layers = (
{
layerId = "1B5A40BC-338C-4A9F-9FD4-89AE55A8ACCC";
paths = (
{
closed = 1;
nodes = (
"681 351 LINE",
"681 434 LINE",
"593 434 LINE",
"629 579 LINE",
"536 579 LINE",
"500 434 LINE",
"304 434 LINE",
"340 579 LINE",
"247 579 LINE",
"211 434 LINE",
"102 434 LINE",
"102 351 LINE",
"190 351 LINE",
"149 186 LINE",
"30 186 LINE",
"30 103 LINE",
"128 103 LINE",
"102 0 LINE",
"195 0 LINE",
"221 103 LINE",
"417 103 LINE",
"392 0 LINE",
"484 0 LINE",
"510 103 LINE",
"609 103 LINE",
"609 186 LINE",
"531 186 LINE",
"572 351 LINE"
);
},
{
closed = 1;
nodes = (
"438 186 LINE",
"242 186 LINE",
"283 351 LINE",
"479 351 LINE"
);
}
);
width = 711;
}
);
note = numbersign;
unicode = 0023;
},
{
glyphname = dollar;
lastChange = "2018-10-30 01:52:17 +0000";
layers = (
{
layerId = "1B5A40BC-338C-4A9F-9FD4-89AE55A8ACCC";
paths = (
{
closed = 1;
nodes = (
"318.33 290.33 OFFCURVE",
"315.67 292.67 OFFCURVE",
"311 296 CURVE",
"312 296 LINE",
"311.33 296.67 OFFCURVE",
"310.67 297.17 OFFCURVE",
"310 297.5 CURVE SMOOTH",
"309.33 297.83 OFFCURVE",
"309 298.33 OFFCURVE",
"309 299 CURVE",
"308.33 299 OFFCURVE",
"307.5 299.33 OFFCURVE",
"306.5 300 CURVE SMOOTH",
"305.5 300.67 OFFCURVE",
"305 301.33 OFFCURVE",
"305 302 CURVE",
"301.67 304 OFFCURVE",
"299 306 OFFCURVE",
"297 308 CURVE",
"295 308.67 OFFCURVE",
"293.33 309.67 OFFCURVE",
"292 311 CURVE",
"289.33 313 OFFCURVE",
"286.33 314.67 OFFCURVE",
"283 316 CURVE",
"281.67 316.67 OFFCURVE",
"280 317.67 OFFCURVE",
"278 319 CURVE",
"275.33 320.33 OFFCURVE",
"272.33 321.67 OFFCURVE",
"269 323 CURVE",
"267 324.33 OFFCURVE",
"265.33 325 OFFCURVE",
"264 325 CURVE",
"260.67 326.33 OFFCURVE",
"257 327.67 OFFCURVE",
"253 329 CURVE",
"252 330 LINE",
"250.67 330 OFFCURVE",
"249.67 330.33 OFFCURVE",
"249 331 CURVE",
"245.67 331.67 OFFCURVE",
"241.67 332.67 OFFCURVE",
"237 334 CURVE",
"235 334 LINE",
"233 334 LINE",
"228.33 335.33 OFFCURVE",
"223.67 336.33 OFFCURVE",
"219 337 CURVE",
"218 337 LINE",
"217 337 LINE",
"211 337.67 OFFCURVE",
"205.33 338 OFFCURVE",
"200 338 CURVE SMOOTH",
"176 338 OFFCURVE",
"155.5 346 OFFCURVE",
"138.5 362 CURVE SMOOTH",
"121.5 378 OFFCURVE",
"113 397.33 OFFCURVE",
"113 420 CURVE SMOOTH",
"113 442.67 OFFCURVE",
"121.5 462.17 OFFCURVE",
"138.5 478.5 CURVE SMOOTH",
"155.5 494.83 OFFCURVE",
"175.83 503 OFFCURVE",
"199.5 503 CURVE SMOOTH",
"223.17 503 OFFCURVE",
"243.67 494.67 OFFCURVE",
"261 478 CURVE SMOOTH",
"271.67 468 OFFCURVE",
"279 455.67 OFFCURVE",
"283 441 CURVE",
"368 441 LINE",
"362.67 478.33 OFFCURVE",
"346.33 510.33 OFFCURVE",
"319 537 CURVE SMOOTH",
"297.67 558.33 OFFCURVE",
"271.67 572.67 OFFCURVE",
"241 580 CURVE",
"241 658 LINE",
"158 658 LINE",
"158 580 LINE",
"127.33 572.67 OFFCURVE",
"101.33 558.33 OFFCURVE",
"80 537 CURVE SMOOTH",
"46.67 505 OFFCURVE",
"30 466.17 OFFCURVE",
"30 420.5 CURVE SMOOTH",
"30 374.83 OFFCURVE",
"46.67 335.67 OFFCURVE",
"80 303 CURVE SMOOTH",
"80.67 302.33 OFFCURVE",
"83.33 300 OFFCURVE",
"88 296 CURVE SMOOTH",
"91.33 293.33 OFFCURVE",
"95 290.67 OFFCURVE",
"99 288 CURVE",
"99 287 LINE",
"100 287 LINE",
"103.33 284.33 OFFCURVE",
"107 282 OFFCURVE",
"111 280 CURVE",
"111 279.33 OFFCURVE",
"111.67 278.67 OFFCURVE",
"113 278 CURVE",
"116.33 276 OFFCURVE",
"120 274.33 OFFCURVE",
"124 273 CURVE",
"124 272.33 OFFCURVE",
"124.33 271.83 OFFCURVE",
"125 271.5 CURVE SMOOTH",
"126 271 LINE",
"130.67 269 OFFCURVE",
"134.33 267.33 OFFCURVE",
"137 266 CURVE",
"138.33 266 OFFCURVE",
"139.67 265.67 OFFCURVE",
"141 265 CURVE",
"145.67 263.67 OFFCURVE",
"149.33 262.67 OFFCURVE",
"152 262 CURVE",
"152 261.33 OFFCURVE",
"153.67 260.67 OFFCURVE",
"157 260 CURVE",
"161.67 258.67 OFFCURVE",
"165 258 OFFCURVE",
"167 258 CURVE SMOOTH",
"167.67 258 OFFCURVE",
"169.67 257.67 OFFCURVE",
"173 257 CURVE",
"182.33 255.67 OFFCURVE",
"191 255 OFFCURVE",
"199 255 CURVE SMOOTH",
"200 255 LINE SMOOTH",
"223.33 255 OFFCURVE",
"243.5 246.83 OFFCURVE",
"260.5 230.5 CURVE SMOOTH",
"277.5 214.17 OFFCURVE",
"286 194.67 OFFCURVE",
"286 172 CURVE SMOOTH",
"286 149.33 OFFCURVE",
"277.5 130 OFFCURVE",
"260.5 114 CURVE SMOOTH",
"243.5 98 OFFCURVE",
"223.17 90 OFFCURVE",
"199.5 90 CURVE SMOOTH",
"175.83 90 OFFCURVE",
"155.33 98 OFFCURVE",
"138 114 CURVE",
"127.33 124.67 OFFCURVE",
"120 137.33 OFFCURVE",
"116 152 CURVE",
"31 152 LINE",
"36.33 114 OFFCURVE",
"52.67 81.67 OFFCURVE",
"80 55 CURVE SMOOTH",
"101.33 34.33 OFFCURVE",
"127.33 20.33 OFFCURVE",
"158 13 CURVE",
"158 -65 LINE",
"241 -65 LINE",
"241 13 LINE",
"271.67 20.33 OFFCURVE",
"297.67 34.33 OFFCURVE",
"319 55 CURVE SMOOTH",
"352.33 87.67 OFFCURVE",
"369 126.83 OFFCURVE",
"369 172.5 CURVE SMOOTH",
"369 218.17 OFFCURVE",
"352.33 257 OFFCURVE",
"319 289 CURVE"
);
}
);
width = 400;
}
);
note = dollar;
unicode = 0024;
},
{
glyphname = percent;
lastChange = "2018-10-30 01:52:17 +0000";
layers = (
{
layerId = "1B5A40BC-338C-4A9F-9FD4-89AE55A8ACCC";
paths = (
{
closed = 1;
nodes = (
"543.17 173 OFFCURVE",
"518.83 162.83 OFFCURVE",
"498.5 142.5 CURVE SMOOTH",
"478.17 122.17 OFFCURVE",
"468 97.83 OFFCURVE",
"468 69.5 CURVE SMOOTH",
"468 41.17 OFFCURVE",
"478.17 16.83 OFFCURVE",
"498.5 -3.5 CURVE SMOOTH",
"518.83 -23.83 OFFCURVE",
"543.17 -34 OFFCURVE",
"571.5 -34 CURVE SMOOTH",
"599.83 -34 OFFCURVE",
"624.17 -23.83 OFFCURVE",
"644.5 -3.5 CURVE SMOOTH",
"664.83 16.83 OFFCURVE",
"675 41.17 OFFCURVE",
"675 69.5 CURVE SMOOTH",
"675 97.83 OFFCURVE",
"664.83 122.17 OFFCURVE",
"644.5 142.5 CURVE SMOOTH",
"624.17 162.83 OFFCURVE",
"599.83 173 OFFCURVE",
"571.5 173 CURVE SMOOTH"
);
},
{
closed = 1;
nodes = (
"582 51 OFFCURVE",
"577.17 49 OFFCURVE",
"571.5 49 CURVE SMOOTH",
"565.83 49 OFFCURVE",
"561 51 OFFCURVE",
"557 55 CURVE SMOOTH",
"553 59 OFFCURVE",
"551 63.83 OFFCURVE",
"551 69.5 CURVE SMOOTH",
"551 75.17 OFFCURVE",
"553 80 OFFCURVE",
"557 84 CURVE SMOOTH",
"561 88 OFFCURVE",
"565.83 90 OFFCURVE",
"571.5 90 CURVE SMOOTH",
"577.17 90 OFFCURVE",
"582 88 OFFCURVE",
"586 84 CURVE SMOOTH",
"590 80 OFFCURVE",
"592 75.17 OFFCURVE",
"592 69.5 CURVE SMOOTH",
"592 63.83 OFFCURVE",
"590 59 OFFCURVE",
"586 55 CURVE SMOOTH"
);
},
{
closed = 1;
nodes = (
"227.83 338 OFFCURVE",
"252.17 348.17 OFFCURVE",
"272.5 368.5 CURVE SMOOTH",
"292.83 388.83 OFFCURVE",
"303 413.17 OFFCURVE",
"303 441.5 CURVE SMOOTH",
"303 469.83 OFFCURVE",
"292.83 494.17 OFFCURVE",
"272.5 514.5 CURVE SMOOTH",
"252.17 534.83 OFFCURVE",
"227.83 545 OFFCURVE",
"199.5 545 CURVE SMOOTH",
"171.17 545 OFFCURVE",
"146.83 534.83 OFFCURVE",
"126.5 514.5 CURVE SMOOTH",
"106.17 494.17 OFFCURVE",
"96 469.83 OFFCURVE",
"96 441.5 CURVE SMOOTH",
"96 413.17 OFFCURVE",
"106.17 388.83 OFFCURVE",
"126.5 368.5 CURVE SMOOTH",
"146.83 348.17 OFFCURVE",
"171.17 338 OFFCURVE",
"199.5 338 CURVE SMOOTH"
);
},
{
closed = 1;
nodes = (
"189 460 OFFCURVE",
"193.83 462 OFFCURVE",
"199.5 462 CURVE SMOOTH",
"205.17 462 OFFCURVE",
"210 460 OFFCURVE",
"214 456 CURVE SMOOTH",
"218 452 OFFCURVE",
"220 447.17 OFFCURVE",
"220 441.5 CURVE SMOOTH",
"220 435.83 OFFCURVE",
"218 431 OFFCURVE",
"214 427 CURVE SMOOTH",
"210 423 OFFCURVE",
"205.17 421 OFFCURVE",
"199.5 421 CURVE SMOOTH",
"193.83 421 OFFCURVE",
"189 423 OFFCURVE",
"185 427 CURVE SMOOTH",
"181 431 OFFCURVE",
"179 435.83 OFFCURVE",
"179 441.5 CURVE SMOOTH",
"179 447.17 OFFCURVE",
"181 452 OFFCURVE",
"185 456 CURVE SMOOTH"
);
},
{
closed = 1;
nodes = (
"616 545 LINE",
"30 -29 LINE",
"149 -29 LINE",
"734 545 LINE"
);
}
);
width = 764;
}
);
note = percent;
unicode = 0025;
},
{
glyphname = ampersand;
lastChange = "2018-10-30 01:52:17 +0000";
layers = (
{
layerId = "1B5A40BC-338C-4A9F-9FD4-89AE55A8ACCC";
paths = (
{
closed = 1;
nodes = (
"542 330 LINE",
"399 187 LINE",
"396 184 LINE",
"281 271 LINE",
"295.67 279 OFFCURVE",
"308 288 OFFCURVE",
"318 298 CURVE SMOOTH",
"346.67 326 OFFCURVE",
"361 360 OFFCURVE",
"361 400 CURVE SMOOTH",
"361 440 OFFCURVE",
"346.83 474.17 OFFCURVE",
"318.5 502.5 CURVE SMOOTH",
"290.17 530.83 OFFCURVE",
"256 545 OFFCURVE",
"216 545 CURVE SMOOTH",
"176 545 OFFCURVE",
"142 530.83 OFFCURVE",
"114 502.5 CURVE SMOOTH",
"86 474.17 OFFCURVE",
"72 440 OFFCURVE",
"72 400 CURVE SMOOTH",
"72 364 OFFCURVE",
"84.33 332 OFFCURVE",
"109 304 CURVE",
"99 297.33 OFFCURVE",
"91 290.67 OFFCURVE",
"85 284 CURVE",
"48.33 248 OFFCURVE",
"30 204.17 OFFCURVE",
"30 152.5 CURVE SMOOTH",
"30 100.83 OFFCURVE",
"48.17 56.83 OFFCURVE",
"84.5 20.5 CURVE SMOOTH",
"120.83 -15.83 OFFCURVE",
"164.67 -34 OFFCURVE",
"216 -34 CURVE SMOOTH",
"267.33 -34 OFFCURVE",
"311.33 -15.67 OFFCURVE",
"348 21 CURVE",
"349 20 LINE",
"403 74 LINE",
"542 -31 LINE",
"542 73 LINE",
"463 133 LINE",
"542 213 LINE"
);
},
{
closed = 1;
nodes = (
"185 456 OFFCURVE",
"199.5 462 OFFCURVE",
"216.5 462 CURVE SMOOTH",
"233.5 462 OFFCURVE",
"248 456 OFFCURVE",
"260 444 CURVE SMOOTH",
"272 432 OFFCURVE",
"278 417.5 OFFCURVE",
"278 400.5 CURVE SMOOTH",
"278 383.5 OFFCURVE",
"272 368.67 OFFCURVE",
"260 356 CURVE SMOOTH",
"252 348 OFFCURVE",
"242 342.67 OFFCURVE",
"230 340 CURVE",
"224.67 339.33 OFFCURVE",
"220 339 OFFCURVE",
"216 339 CURVE SMOOTH",
"215 339 LINE SMOOTH",
"198.33 339 OFFCURVE",
"184.33 344.67 OFFCURVE",
"173 356 CURVE SMOOTH",
"161 368.67 OFFCURVE",
"155 383.5 OFFCURVE",
"155 400.5 CURVE SMOOTH",
"155 417.5 OFFCURVE",
"161 432 OFFCURVE",
"173 444 CURVE SMOOTH"
);
},
{
closed = 1;
nodes = (
"289 79 LINE SMOOTH",
"269 59 OFFCURVE",
"244.67 49 OFFCURVE",
"216 49 CURVE SMOOTH",
"187.33 49 OFFCURVE",
"163 59.17 OFFCURVE",
"143 79.5 CURVE SMOOTH",
"123 99.83 OFFCURVE",
"113 124.17 OFFCURVE",
"113 152.5 CURVE SMOOTH",
"113 180.83 OFFCURVE",
"123 205 OFFCURVE",
"143 225 CURVE SMOOTH",
"152.33 235 OFFCURVE",
"163.33 242.33 OFFCURVE",
"176 247 CURVE",
"336 125 LINE"
);
}
);
width = 572;
}
);
note = ampersand;
unicode = 0026;
},
{
glyphname = quotesingle;
lastChange = "2018-10-30 01:52:17 +0000";
layers = (
{
layerId = "1B5A40BC-338C-4A9F-9FD4-89AE55A8ACCC";
paths = (
{
closed = 1;
nodes = (
"30 483 LINE",
"46 317 LINE",
"98 317 LINE",
"113 483 LINE"
);
}
);
width = 143;
}
);
note = quotesingle;
unicode = 0027;
},
{
glyphname = parenleft;
lastChange = "2018-10-30 01:52:17 +0000";
layers = (
{
layerId = "1B5A40BC-338C-4A9F-9FD4-89AE55A8ACCC";
paths = (
{
closed = 1;
nodes = (
"113 375.67 OFFCURVE",
"147.33 472.33 OFFCURVE",
"216 579 CURVE",
"119 579 LINE",
"59.67 475 OFFCURVE",
"30 378.5 OFFCURVE",
"30 289.5 CURVE SMOOTH",
"30 200.5 OFFCURVE",
"59.67 104 OFFCURVE",
"119 0 CURVE",
"216 0 LINE",
"147.33 106 OFFCURVE",
"113 202.33 OFFCURVE",
"113 289 CURVE SMOOTH"
);
}
);
width = 246;
}
);
note = parenleft;
unicode = 0028;
},
{
glyphname = parenright;
lastChange = "2018-10-30 01:52:17 +0000";
layers = (
{
layerId = "1B5A40BC-338C-4A9F-9FD4-89AE55A8ACCC";
paths = (
{
closed = 1;
nodes = (
"30 579 LINE",
"98.67 473 OFFCURVE",
"133 376.33 OFFCURVE",
"133 289 CURVE SMOOTH",
"133 202.33 OFFCURVE",
"98.67 106 OFFCURVE",
"30 0 CURVE",
"127 0 LINE",
"186.33 104 OFFCURVE",
"216 200.33 OFFCURVE",
"216 289 CURVE SMOOTH",
"216 377.67 OFFCURVE",
"186.33 474.33 OFFCURVE",
"127 579 CURVE"
);
}
);
width = 246;
}
);
note = parenright;
unicode = 0029;
},
{
glyphname = asterisk;
lastChange = "2018-10-30 01:52:17 +0000";
layers = (
{
layerId = "1B5A40BC-338C-4A9F-9FD4-89AE55A8ACCC";
paths = (
{
closed = 1;
nodes = (
"464 298 LINE",
"348 298 LINE",
"430 380 LINE",
"371 439 LINE",
"288 356 LINE",
"288 474 LINE",
"206 474 LINE",
"206 356 LINE",
"122 440 LINE",
"63 381 LINE",
"146 298 LINE",
"30 298 LINE",
"30 215 LINE",
"148 215 LINE",
"63 131 LINE",
"122 72 LINE",
"206 156 LINE",
"206 40 LINE",
"288 40 LINE",
"288 156 LINE",
"371 73 LINE",
"430 132 LINE",
"346 215 LINE",
"464 215 LINE"
);
}
);
width = 494;
}
);
note = asterisk;
unicode = 002A;
},
{
glyphname = plus;
lastChange = "2018-10-30 01:52:17 +0000";
layers = (
{
layerId = "1B5A40BC-338C-4A9F-9FD4-89AE55A8ACCC";
paths = (
{
closed = 1;
nodes = (
"287 297 LINE",
"287 471 LINE",
"204 471 LINE",
"204 297 LINE",
"30 297 LINE",
"30 214 LINE",
"204 214 LINE",
"204 40 LINE",
"287 40 LINE",
"287 214 LINE",
"461 214 LINE",
"461 297 LINE"
);
}
);
width = 492;
}
);
note = plus;
unicode = 002B;
},
{
glyphname = comma;
lastChange = "2018-10-30 01:52:17 +0000";
layers = (
{
layerId = "1B5A40BC-338C-4A9F-9FD4-89AE55A8ACCC";
paths = (
{
closed = 1;
nodes = (
"30 83 LINE",
"30 -83 LINE",
"82 -83 LINE",
"113 83 LINE"
);
}
);
width = 143;
}
);
note = comma;
unicode = 002C;
},
{
glyphname = hyphen;
lastChange = "2018-10-30 01:52:17 +0000";
layers = (
{
layerId = "1B5A40BC-338C-4A9F-9FD4-89AE55A8ACCC";
paths = (
{
closed = 1;
nodes = (
"464 214 LINE",
"464 297 LINE",
"30 297 LINE",
"30 214 LINE"
);
}
);
width = 494;
}
);
note = hyphen;
unicode = 002D;
},
{
glyphname = period;
lastChange = "2018-10-30 01:52:17 +0000";
layers = (
{
layerId = "1B5A40BC-338C-4A9F-9FD4-89AE55A8ACCC";
paths = (
{
closed = 1;
nodes = (
"59.83 83 OFFCURVE",
"50 79 OFFCURVE",
"42 71 CURVE SMOOTH",
"34 63 OFFCURVE",
"30 53.17 OFFCURVE",
"30 41.5 CURVE SMOOTH",
"30 29.83 OFFCURVE",
"34 20 OFFCURVE",
"42 12 CURVE SMOOTH",
"50 4 OFFCURVE",
"59.83 0 OFFCURVE",
"71.5 0 CURVE SMOOTH",
"83.17 0 OFFCURVE",
"93 4 OFFCURVE",
"101 12 CURVE SMOOTH",
"109 20 OFFCURVE",
"113 29.83 OFFCURVE",
"113 41.5 CURVE SMOOTH",
"113 53.17 OFFCURVE",
"109 63 OFFCURVE",
"101 71 CURVE SMOOTH",
"93 79 OFFCURVE",
"83.17 83 OFFCURVE",
"71.5 83 CURVE SMOOTH"
);
}
);
width = 143;
}
);
note = period;
unicode = 002E;
},
{
glyphname = slash;
lastChange = "2018-10-30 01:52:17 +0000";
layers = (
{
layerId = "1B5A40BC-338C-4A9F-9FD4-89AE55A8ACCC";
paths = (
{
closed = 1;
nodes = (
"319 579 LINE",
"30 0 LINE",
"123 0 LINE",
"412 579 LINE"
);
}
);
width = 443;
}
);
note = slash;
unicode = 002F;
},
{
glyphname = zero;
lastChange = "2018-10-30 01:52:17 +0000";
layers = (
{
layerId = "1B5A40BC-338C-4A9F-9FD4-89AE55A8ACCC";
paths = (
{
closed = 1;
nodes = (
"283.67 496 OFFCURVE",
"315.17 475.5 OFFCURVE",
"341.5 434.5 CURVE SMOOTH",
"367.83 393.5 OFFCURVE",
"381 345 OFFCURVE",
"381 289 CURVE SMOOTH",
"381 233 OFFCURVE",
"367.83 184.67 OFFCURVE",
"341.5 144 CURVE SMOOTH",
"315.17 103.33 OFFCURVE",
"283.67 83 OFFCURVE",
"247 83 CURVE SMOOTH",
"210.33 83 OFFCURVE",
"178.83 103.33 OFFCURVE",
"152.5 144 CURVE SMOOTH",
"126.17 184.67 OFFCURVE",
"113 233 OFFCURVE",
"113 289 CURVE SMOOTH",
"113 345 OFFCURVE",
"126.17 393.5 OFFCURVE",
"152.5 434.5 CURVE SMOOTH",
"178.83 475.5 OFFCURVE",
"210.33 496 OFFCURVE",
"247 496 CURVE SMOOTH"
);
},
{
closed = 1;
nodes = (
"30 209.67 OFFCURVE",
"51.17 141.67 OFFCURVE",
"93.5 85 CURVE SMOOTH",
"135.83 28.33 OFFCURVE",
"187 0 OFFCURVE",
"247 0 CURVE SMOOTH",
"307 0 OFFCURVE",
"358.17 28.33 OFFCURVE",
"400.5 85 CURVE SMOOTH",
"442.83 141.67 OFFCURVE",
"464 209.67 OFFCURVE",
"464 289 CURVE SMOOTH",
"464 369 OFFCURVE",
"442.83 437.33 OFFCURVE",
"400.5 494 CURVE SMOOTH",
"358.17 550.67 OFFCURVE",
"307 579 OFFCURVE",
"247 579 CURVE SMOOTH",
"187 579 OFFCURVE",
"135.83 550.67 OFFCURVE",
"93.5 494 CURVE SMOOTH",
"51.17 437.33 OFFCURVE",
"30 369 OFFCURVE",
"30 289 CURVE SMOOTH"
);
}
);
width = 494;
}
);
note = zero;
unicode = 0030;
},
{
glyphname = one;
lastChange = "2018-10-30 01:52:17 +0000";
layers = (
{
layerId = "1B5A40BC-338C-4A9F-9FD4-89AE55A8ACCC";
paths = (
{
closed = 1;
nodes = (
"175 579 LINE",
"30 579 LINE",
"30 496 LINE",
"92 496 LINE",
"92 0 LINE",
"175 0 LINE"
);
}
);
width = 205;
}
);
note = one;
unicode = 0031;
},
{
glyphname = two;
lastChange = "2018-10-30 01:52:17 +0000";
layers = (
{
layerId = "1B5A40BC-338C-4A9F-9FD4-89AE55A8ACCC";
paths = (
{
closed = 1;
nodes = (
"335 295 LINE SMOOTH",
"345 309.67 OFFCURVE",
"353.67 325.33 OFFCURVE",
"361 342 CURVE",
"364 350 LINE SMOOTH",
"370.67 369.33 OFFCURVE",
"374 388 OFFCURVE",
"374 406 CURVE SMOOTH",
"374 454 OFFCURVE",
"357.33 494.67 OFFCURVE",
"324 528 CURVE SMOOTH",
"290.67 561.33 OFFCURVE",
"250.17 578 OFFCURVE",
"202.5 578 CURVE SMOOTH",
"154.83 578 OFFCURVE",
"114.17 561.33 OFFCURVE",
"80.5 528 CURVE SMOOTH",
"46.83 494.67 OFFCURVE",
"30 454 OFFCURVE",
"30 406 CURVE",
"113 406 LINE",
"113 430.67 OFFCURVE",
"121.67 451.83 OFFCURVE",
"139 469.5 CURVE SMOOTH",
"156.33 487.17 OFFCURVE",
"177.33 496 OFFCURVE",
"202 496 CURVE SMOOTH",
"226.67 496 OFFCURVE",
"247.83 487.17 OFFCURVE",
"265.5 469.5 CURVE SMOOTH",
"283.17 451.83 OFFCURVE",
"292 430.67 OFFCURVE",
"292 406 CURVE SMOOTH",
"292 384.67 OFFCURVE",
"285.33 366 OFFCURVE",
"272 350 CURVE",
"30 0 LINE",
"374 0 LINE",
"374 83 LINE",
"188 83 LINE"
);
}
);
width = 405;
}
);
note = two;
unicode = 0032;
},
{
glyphname = three;
lastChange = "2018-10-30 01:52:17 +0000";
layers = (
{
layerId = "1B5A40BC-338C-4A9F-9FD4-89AE55A8ACCC";
paths = (
{
closed = 1;
nodes = (
"324 294.67 OFFCURVE",
"319.67 298.33 OFFCURVE",
"311 305 CURVE",
"312.5 306 LINE SMOOTH",
"313.5 306.67 OFFCURVE",
"314 307.33 OFFCURVE",
"314 308 CURVE",
"345.33 338.67 OFFCURVE",
"361 376 OFFCURVE",
"361 420 CURVE SMOOTH",
"361 464 OFFCURVE",
"345.5 501.5 OFFCURVE",
"314.5 532.5 CURVE SMOOTH",
"283.5 563.5 OFFCURVE",
"246.17 579 OFFCURVE",
"202.5 579 CURVE SMOOTH",
"158.83 579 OFFCURVE",
"121.5 563.5 OFFCURVE",
"90.5 532.5 CURVE SMOOTH",
"59.5 501.5 OFFCURVE",
"44 464 OFFCURVE",
"44 420 CURVE",
"127 420 LINE",
"127 440.67 OFFCURVE",
"134.33 458.5 OFFCURVE",
"149 473.5 CURVE SMOOTH",
"163.67 488.5 OFFCURVE",
"181.5 496 OFFCURVE",
"202.5 496 CURVE SMOOTH",
"223.5 496 OFFCURVE",
"241.33 488.5 OFFCURVE",
"256 473.5 CURVE SMOOTH",
"270.67 458.5 OFFCURVE",
"278 440.67 OFFCURVE",
"278 420 CURVE SMOOTH",
"278 399.33 OFFCURVE",
"270.67 381.67 OFFCURVE",
"256 367 CURVE SMOOTH",
"241.33 352.33 OFFCURVE",
"223.67 344.67 OFFCURVE",
"203 344 CURVE",
"202 345 LINE",
"202 262 LINE",
"226.67 261.33 OFFCURVE",
"247.83 252.33 OFFCURVE",
"265.5 235 CURVE SMOOTH",
"283.17 217.67 OFFCURVE",
"292 196.67 OFFCURVE",
"292 172 CURVE SMOOTH",
"292 147.33 OFFCURVE",
"283.17 126.33 OFFCURVE",
"265.5 109 CURVE SMOOTH",
"247.83 91.67 OFFCURVE",
"226.67 83 OFFCURVE",
"202 83 CURVE SMOOTH",
"177.33 83 OFFCURVE",
"156.33 91.67 OFFCURVE",
"139 109 CURVE SMOOTH",
"121.67 126.33 OFFCURVE",
"113 147.33 OFFCURVE",
"113 172 CURVE",
"30 172 LINE",
"30 124.67 OFFCURVE",
"46.83 84.17 OFFCURVE",
"80.5 50.5 CURVE SMOOTH",
"114.17 16.83 OFFCURVE",
"154.83 0 OFFCURVE",
"202.5 0 CURVE SMOOTH",
"250.17 0 OFFCURVE",
"290.67 16.83 OFFCURVE",
"324 50.5 CURVE SMOOTH",
"357.33 84.17 OFFCURVE",
"374 124.83 OFFCURVE",
"374 172.5 CURVE SMOOTH",
"374 220.17 OFFCURVE",
"357.33 260.67 OFFCURVE",
"324 294 CURVE"
);
}
);
width = 405;
}
);
note = three;
unicode = 0033;
},
{
glyphname = four;
lastChange = "2018-10-30 01:52:17 +0000";
layers = (
{
layerId = "1B5A40BC-338C-4A9F-9FD4-89AE55A8ACCC";
paths = (
{
closed = 1;
nodes = (
"385.67 226 LINE",
"385.67 577 LINE",
"23.67 143 LINE",
"302.67 143 LINE",
"302.67 0 LINE",
"385.67 0 LINE",
"385.67 143 LINE",
"457.67 143 LINE",
"457.67 226 LINE"
);
},
{
closed = 1;
nodes = (
"302.67 226 LINE",
"200.67 226 LINE",
"302.67 348 LINE"
);
}
);
width = 487;
}
);
note = four;
unicode = 0034;
},
{
glyphname = five;
lastChange = "2018-10-30 01:52:17 +0000";
layers = (
{
layerId = "1B5A40BC-338C-4A9F-9FD4-89AE55A8ACCC";
paths = (
{
closed = 1;
nodes = (
"437 496 LINE",
"437 579 LINE",
"148 579 LINE",
"68 320 LINE",
"232 320 LINE SMOOTH",
"264.67 320 OFFCURVE",
"292.5 308.5 OFFCURVE",
"315.5 285.5 CURVE SMOOTH",
"338.5 262.5 OFFCURVE",
"350 234.5 OFFCURVE",
"350 201.5 CURVE SMOOTH",
"350 168.5 OFFCURVE",
"338.5 140.5 OFFCURVE",
"315.5 117.5 CURVE SMOOTH",
"292.5 94.5 OFFCURVE",
"264.5 83 OFFCURVE",
"231.5 83 CURVE SMOOTH",
"198.5 83 OFFCURVE",
"170.5 94.5 OFFCURVE",
"147.5 117.5 CURVE SMOOTH",
"124.5 140.5 OFFCURVE",
"113 168.67 OFFCURVE",
"113 202 CURVE",
"30 202 LINE",
"30 146 OFFCURVE",
"49.67 98.33 OFFCURVE",
"89 59 CURVE SMOOTH",
"128.33 19.67 OFFCURVE",
"175.83 0 OFFCURVE",
"231.5 0 CURVE SMOOTH",
"287.17 0 OFFCURVE",
"334.67 19.67 OFFCURVE",
"374 59 CURVE SMOOTH",
"413.33 98.33 OFFCURVE",
"433 145.83 OFFCURVE",
"433 201.5 CURVE SMOOTH",
"433 257.17 OFFCURVE",
"413.33 304.67 OFFCURVE",
"374 344 CURVE SMOOTH",
"334.67 383.33 OFFCURVE",
"287.33 403 OFFCURVE",
"232 403 CURVE SMOOTH",
"180 403 LINE",
"209 496 LINE"
);
}
);
width = 468;
}
);
note = five;
unicode = 0035;
},
{
glyphname = six;
lastChange = "2018-10-30 01:52:17 +0000";
layers = (
{
layerId = "1B5A40BC-338C-4A9F-9FD4-89AE55A8ACCC";
paths = (
{
closed = 1;
nodes = (
"368.33 273 OFFCURVE",
"355.67 292.33 OFFCURVE",
"339 309 CURVE SMOOTH",
"322.33 325.67 OFFCURVE",
"303 338.33 OFFCURVE",
"281 347 CURVE",
"259 357 OFFCURVE",
"235.67 362 OFFCURVE",
"211 362 CURVE SMOOTH",
"210.33 362 OFFCURVE",
"204 361.33 OFFCURVE",
"192 360 CURVE",
"302 579 LINE",
"209 579 LINE",
"44 251 LINE",
"34.67 229 OFFCURVE",
"30 205.67 OFFCURVE",
"30 181 CURVE SMOOTH",
"30 156.33 OFFCURVE",
"34.67 132.67 OFFCURVE",
"44 110 CURVE SMOOTH",
"53.33 88.67 OFFCURVE",
"66.33 69.67 OFFCURVE",
"83 53 CURVE SMOOTH",
"99.67 36.33 OFFCURVE",
"118.67 23.33 OFFCURVE",
"140 14 CURVE SMOOTH",
"162.67 4.67 OFFCURVE",
"186.33 0 OFFCURVE",
"211 0 CURVE SMOOTH",
"235.67 0 OFFCURVE",
"259 4.67 OFFCURVE",
"281 14 CURVE SMOOTH",
"303 23.33 OFFCURVE",
"322.33 36.33 OFFCURVE",
"339 53 CURVE SMOOTH",
"355.67 69.67 OFFCURVE",
"368.33 88.67 OFFCURVE",
"377 110 CURVE SMOOTH",
"387 132.67 OFFCURVE",
"392 156.33 OFFCURVE",
"392 181 CURVE SMOOTH",
"392 205.67 OFFCURVE",
"387 229 OFFCURVE",
"377 251 CURVE"
);
},
{
closed = 1;
nodes = (
"296.33 131 OFFCURVE",
"289.33 120.5 OFFCURVE",
"280 111.5 CURVE SMOOTH",
"270.67 102.5 OFFCURVE",
"260.33 95.67 OFFCURVE",
"249 91 CURVE SMOOTH",
"237 85.67 OFFCURVE",
"224.33 83 OFFCURVE",
"211 83 CURVE SMOOTH",
"197.67 83 OFFCURVE",
"185 85.67 OFFCURVE",
"173 91 CURVE",
"161 95.67 OFFCURVE",
"150.5 102.5 OFFCURVE",
"141.5 111.5 CURVE SMOOTH",
"132.5 120.5 OFFCURVE",
"125.67 131 OFFCURVE",
"121 143 CURVE",
"115.67 155 OFFCURVE",
"113 167.67 OFFCURVE",
"113 181 CURVE SMOOTH",
"113 194.33 OFFCURVE",
"115.33 207 OFFCURVE",
"120 219 CURVE",
"121 219 LINE",
"124 225 LINE SMOOTH",
"128.67 235 OFFCURVE",
"134.67 243.33 OFFCURVE",
"142 250 CURVE",
"150.67 259.33 OFFCURVE",
"161 266.33 OFFCURVE",
"173 271 CURVE",
"185 276.33 OFFCURVE",
"197.67 279 OFFCURVE",
"211 279 CURVE SMOOTH",
"224.33 279 OFFCURVE",
"237 276.33 OFFCURVE",
"249 271 CURVE SMOOTH",
"260.33 266.33 OFFCURVE",
"270.67 259.5 OFFCURVE",
"280 250.5 CURVE SMOOTH",
"289.33 241.5 OFFCURVE",
"296.33 231 OFFCURVE",
"301 219 CURVE",
"306.33 207 OFFCURVE",
"309 194.33 OFFCURVE",
"309 181 CURVE SMOOTH",
"309 167.67 OFFCURVE",
"306.33 155 OFFCURVE",
"301 143 CURVE"
);
}
);
width = 422;
}
);
note = six;
unicode = 0036;
},
{
glyphname = seven;
lastChange = "2018-10-30 01:52:17 +0000";
layers = (
{
layerId = "1B5A40BC-338C-4A9F-9FD4-89AE55A8ACCC";
paths = (
{
closed = 1;
nodes = (
"70 0 LINE",
"164 0 LINE",
"464 579 LINE",
"30 579 LINE",
"30 496 LINE",
"327 496 LINE"
);
}
);
width = 494;
}
);
note = seven;
unicode = 0037;
},
{
glyphname = eight;
lastChange = "2018-10-30 01:52:17 +0000";
layers = (
{
layerId = "1B5A40BC-338C-4A9F-9FD4-89AE55A8ACCC";
paths = (
{
closed = 1;
nodes = (
"247.83 91.67 OFFCURVE",
"226.67 83 OFFCURVE",
"202 83 CURVE SMOOTH",
"177.33 83 OFFCURVE",
"156.33 91.67 OFFCURVE",
"139 109 CURVE SMOOTH",
"121.67 126.33 OFFCURVE",
"113 147.33 OFFCURVE",
"113 172 CURVE SMOOTH",
"113 196.67 OFFCURVE",
"121.67 217.67 OFFCURVE",
"139 235 CURVE SMOOTH",
"156.33 252.33 OFFCURVE",
"177.33 261 OFFCURVE",
"202 261 CURVE SMOOTH",
"226.67 261 OFFCURVE",
"247.83 252.33 OFFCURVE",
"265.5 235 CURVE SMOOTH",
"283.17 217.67 OFFCURVE",
"292 196.67 OFFCURVE",
"292 172 CURVE SMOOTH",
"292 147.33 OFFCURVE",
"283.17 126.33 OFFCURVE",
"265.5 109 CURVE SMOOTH"
);
},
{
closed = 1;
nodes = (
"134.33 381.67 OFFCURVE",
"127 399.33 OFFCURVE",
"127 420 CURVE SMOOTH",
"127 440.67 OFFCURVE",
"134.33 458.5 OFFCURVE",
"149 473.5 CURVE SMOOTH",
"163.67 488.5 OFFCURVE",
"181.5 496 OFFCURVE",
"202.5 496 CURVE SMOOTH",
"223.5 496 OFFCURVE",
"241.33 488.5 OFFCURVE",
"256 473.5 CURVE SMOOTH",
"270.67 458.5 OFFCURVE",
"278 440.67 OFFCURVE",
"278 420 CURVE SMOOTH",
"278 399.33 OFFCURVE",
"270.67 381.67 OFFCURVE",
"256 367 CURVE SMOOTH",
"241.33 352.33 OFFCURVE",
"223.67 344.67 OFFCURVE",
"203 344 CURVE",
"202 345 LINE",
"202 344 LINE",
"181.33 344.67 OFFCURVE",
"163.67 352.33 OFFCURVE",
"149 367 CURVE SMOOTH"
);
},
{
closed = 1;
nodes = (
"324 294.67 OFFCURVE",
"319.67 298.33 OFFCURVE",
"311 305 CURVE",
"312 306 LINE",
"313.33 306.67 OFFCURVE",
"314 307.33 OFFCURVE",
"314 308 CURVE",
"345.33 338.67 OFFCURVE",
"361 376 OFFCURVE",
"361 420 CURVE SMOOTH",
"361 464 OFFCURVE",
"345.5 501.5 OFFCURVE",
"314.5 532.5 CURVE SMOOTH",
"283.5 563.5 OFFCURVE",
"246.17 579 OFFCURVE",
"202.5 579 CURVE SMOOTH",
"158.83 579 OFFCURVE",
"121.5 563.5 OFFCURVE",
"90.5 532.5 CURVE SMOOTH",
"59.5 501.5 OFFCURVE",
"44 464 OFFCURVE",
"44 420 CURVE SMOOTH",
"44 376 OFFCURVE",
"59.33 338.67 OFFCURVE",
"90 308 CURVE SMOOTH",
"92 306 LINE",
"94 305 LINE",
"85.33 298.33 OFFCURVE",
"80.67 294.67 OFFCURVE",
"80 294 CURVE SMOOTH",
"46.67 260.67 OFFCURVE",
"30 220.17 OFFCURVE",
"30 172.5 CURVE SMOOTH",
"30 124.83 OFFCURVE",
"46.83 84.17 OFFCURVE",
"80.5 50.5 CURVE SMOOTH",
"114.17 16.83 OFFCURVE",
"154.83 0 OFFCURVE",
"202.5 0 CURVE SMOOTH",
"250.17 0 OFFCURVE",
"290.67 16.83 OFFCURVE",
"324 50.5 CURVE SMOOTH",
"357.33 84.17 OFFCURVE",
"374 124.83 OFFCURVE",
"374 172.5 CURVE SMOOTH",
"374 220.17 OFFCURVE",
"357.33 260.67 OFFCURVE",
"324 294 CURVE"
);
}
);
width = 405;
}
);
note = eight;
unicode = 0038;
},
{
glyphname = nine;
lastChange = "2018-10-30 01:52:17 +0000";
layers = (
{
layerId = "1B5A40BC-338C-4A9F-9FD4-89AE55A8ACCC";
paths = (
{
closed = 1;
nodes = (
"53.33 305.67 OFFCURVE",
"66.33 286.67 OFFCURVE",
"83 270 CURVE SMOOTH",
"99.67 253.33 OFFCURVE",
"118.67 240.33 OFFCURVE",
"140 231 CURVE SMOOTH",
"162.67 221.67 OFFCURVE",
"186.33 217 OFFCURVE",
"211 217 CURVE SMOOTH",
"211.67 217 OFFCURVE",
"218 217.67 OFFCURVE",
"230 219 CURVE",
"119 0 LINE",
"212 0 LINE",
"377 327 LINE",
"387 349.67 OFFCURVE",
"392 373.17 OFFCURVE",
"392 397.5 CURVE SMOOTH",
"392 421.83 OFFCURVE",
"387 445.33 OFFCURVE",
"377 468 CURVE",
"368.33 490 OFFCURVE",
"355.67 509.33 OFFCURVE",
"339 526 CURVE SMOOTH",
"322.33 542.67 OFFCURVE",
"303 555.33 OFFCURVE",
"281 564 CURVE SMOOTH",
"259 573.33 OFFCURVE",
"235.67 578 OFFCURVE",
"211 578 CURVE SMOOTH",
"186.33 578 OFFCURVE",
"162.67 573.33 OFFCURVE",
"140 564 CURVE SMOOTH",
"118.67 555.33 OFFCURVE",
"99.67 542.67 OFFCURVE",
"83 526 CURVE SMOOTH",
"66.33 509.33 OFFCURVE",
"53.33 490 OFFCURVE",
"44 468 CURVE SMOOTH",
"34.67 445.33 OFFCURVE",
"30 421.83 OFFCURVE",
"30 397.5 CURVE SMOOTH",
"30 373.17 OFFCURVE",
"34.67 349.67 OFFCURVE",
"44 327 CURVE SMOOTH"
);
},
{
closed = 1;
nodes = (
"125.67 447.33 OFFCURVE",
"132.5 457.67 OFFCURVE",
"141.5 467 CURVE SMOOTH",
"150.5 476.33 OFFCURVE",
"161 483.33 OFFCURVE",
"173 488 CURVE",
"185 493.33 OFFCURVE",
"197.67 496 OFFCURVE",
"211 496 CURVE SMOOTH",
"224.33 496 OFFCURVE",
"237 493.33 OFFCURVE",
"249 488 CURVE SMOOTH",
"260.33 483.33 OFFCURVE",
"270.67 476.33 OFFCURVE",
"280 467 CURVE SMOOTH",
"289.33 457.67 OFFCURVE",
"296.33 447.33 OFFCURVE",
"301 436 CURVE SMOOTH",
"306.33 424 OFFCURVE",
"309 411.33 OFFCURVE",
"309 398 CURVE SMOOTH",
"309 384.67 OFFCURVE",
"306.33 372 OFFCURVE",
"301 360 CURVE",
"298 354 LINE SMOOTH",
"292.67 344 OFFCURVE",
"286.67 335.33 OFFCURVE",
"280 328 CURVE",
"271.33 319.33 OFFCURVE",
"261 312.33 OFFCURVE",
"249 307 CURVE",
"237 302.33 OFFCURVE",
"224.33 300 OFFCURVE",
"211 300 CURVE SMOOTH",
"197.67 300 OFFCURVE",
"185 302.33 OFFCURVE",
"173 307 CURVE",
"161 312.33 OFFCURVE",
"150.5 319.5 OFFCURVE",
"141.5 328.5 CURVE SMOOTH",
"132.5 337.5 OFFCURVE",
"125.67 348 OFFCURVE",
"121 360 CURVE",
"115.67 372 OFFCURVE",
"113 384.67 OFFCURVE",
"113 398 CURVE SMOOTH",
"113 411.33 OFFCURVE",
"115.67 424 OFFCURVE",
"121 436 CURVE SMOOTH"
);
}
);
width = 422;
}
);
note = nine;
unicode = 0039;
},
{
glyphname = colon;
lastChange = "2018-10-30 01:52:17 +0000";
layers = (
{
layerId = "1B5A40BC-338C-4A9F-9FD4-89AE55A8ACCC";
paths = (
{
closed = 1;
nodes = (
"79 394 OFFCURVE",
"86.17 395.83 OFFCURVE",
"92.5 399.5 CURVE SMOOTH",
"98.83 403.17 OFFCURVE",
"103.83 408.17 OFFCURVE",
"107.5 414.5 CURVE SMOOTH",
"111.17 420.83 OFFCURVE",
"113 428 OFFCURVE",
"113 436 CURVE SMOOTH",
"113 447.33 OFFCURVE",
"109 457 OFFCURVE",
"101 465 CURVE SMOOTH",
"93 473 OFFCURVE",
"83.17 477 OFFCURVE",
"71.5 477 CURVE SMOOTH",
"59.83 477 OFFCURVE",
"50 473 OFFCURVE",
"42 465 CURVE SMOOTH",
"34 457 OFFCURVE",
"30 447.17 OFFCURVE",
"30 435.5 CURVE SMOOTH",
"30 423.83 OFFCURVE",
"34 414 OFFCURVE",
"42 406 CURVE SMOOTH",
"50 398 OFFCURVE",
"59.67 394 OFFCURVE",
"71 394 CURVE SMOOTH"
);
},
{
closed = 1;
nodes = (
"59.83 188 OFFCURVE",
"50 183.83 OFFCURVE",
"42 175.5 CURVE SMOOTH",
"34 167.17 OFFCURVE",
"30 157.33 OFFCURVE",
"30 146 CURVE SMOOTH",
"30 134.67 OFFCURVE",
"34 125 OFFCURVE",
"42 117 CURVE SMOOTH",
"50 109 OFFCURVE",
"59.83 105 OFFCURVE",
"71.5 105 CURVE SMOOTH",
"83.17 105 OFFCURVE",
"93 109 OFFCURVE",
"101 117 CURVE SMOOTH",
"109 125 OFFCURVE",
"113 134.67 OFFCURVE",
"113 146 CURVE SMOOTH",
"113 157.33 OFFCURVE",
"109 167.17 OFFCURVE",
"101 175.5 CURVE SMOOTH",
"93 183.83 OFFCURVE",
"83.17 188 OFFCURVE",
"71.5 188 CURVE SMOOTH"
);
}
);
width = 143;
}
);
note = colon;
unicode = 003A;
},
{
glyphname = semicolon;
lastChange = "2018-10-30 01:52:17 +0000";
layers = (
{
layerId = "1B5A40BC-338C-4A9F-9FD4-89AE55A8ACCC";
paths = (
{
closed = 1;
nodes = (
"30 19 LINE",
"82 19 LINE",
"113 185 LINE",
"30 185 LINE"
);
},
{
closed = 1;
nodes = (
"82.33 394 OFFCURVE",
"92.17 398.17 OFFCURVE",
"100.5 406.5 CURVE SMOOTH",
"108.83 414.83 OFFCURVE",
"113 424.67 OFFCURVE",
"113 436 CURVE SMOOTH",
"113 447.33 OFFCURVE",
"108.83 457 OFFCURVE",
"100.5 465 CURVE SMOOTH",
"92.17 473 OFFCURVE",
"82.33 477 OFFCURVE",
"71 477 CURVE SMOOTH",
"59.67 477 OFFCURVE",
"50 472.83 OFFCURVE",
"42 464.5 CURVE SMOOTH",
"34 456.17 OFFCURVE",
"30 446.67 OFFCURVE",
"30 436 CURVE SMOOTH",
"30 424.67 OFFCURVE",
"34 414.83 OFFCURVE",
"42 406.5 CURVE SMOOTH",
"50 398.17 OFFCURVE",
"59.67 394 OFFCURVE",
"71 394 CURVE SMOOTH"
);
}
);
width = 143;
}
);
note = semicolon;
unicode = 003B;
},
{
glyphname = less;
lastChange = "2018-10-30 01:52:17 +0000";
layers = (
{
layerId = "1B5A40BC-338C-4A9F-9FD4-89AE55A8ACCC";
paths = (
{
closed = 1;
nodes = (
"267 579 LINE",
"175 579 LINE",
"30 289 LINE",
"175 0 LINE",
"267 0 LINE",
"123 289 LINE"
);
}
);
width = 298;
}
);
note = less;
unicode = 003C;
},
{
glyphname = equal;
lastChange = "2018-10-30 01:52:17 +0000";
layers = (
{
layerId = "1B5A40BC-338C-4A9F-9FD4-89AE55A8ACCC";
paths = (
{
closed = 1;
nodes = (
"464 365 LINE",
"464 448 LINE",
"30 448 LINE",
"30 365 LINE"
);
},
{
closed = 1;
nodes = (
"464 131 LINE",
"464 214 LINE",
"30 214 LINE",
"30 131 LINE"
);
}
);
width = 494;
}
);
note = equal;
unicode = 003D;
},
{
glyphname = greater;
lastChange = "2018-10-30 01:52:17 +0000";
layers = (
{
layerId = "1B5A40BC-338C-4A9F-9FD4-89AE55A8ACCC";
paths = (
{
closed = 1;
nodes = (
"123 579 LINE",
"30 579 LINE",
"175 289 LINE",
"30 0 LINE",
"123 0 LINE",
"267 289 LINE"
);
}
);
width = 298;
}
);
note = greater;
unicode = 003E;
},
{
glyphname = question;
lastChange = "2018-10-30 01:52:17 +0000";
layers = (
{
layerId = "1B5A40BC-338C-4A9F-9FD4-89AE55A8ACCC";
paths = (
{
closed = 1;
nodes = (
"207.67 83 OFFCURVE",
"198 79 OFFCURVE",
"190 71 CURVE SMOOTH",
"182 63 OFFCURVE",
"178 53.17 OFFCURVE",
"178 41.5 CURVE SMOOTH",
"178 29.83 OFFCURVE",
"182 20 OFFCURVE",
"190 12 CURVE SMOOTH",
"198 4 OFFCURVE",
"207.67 0 OFFCURVE",
"219 0 CURVE SMOOTH",
"230.33 0 OFFCURVE",
"240.17 4 OFFCURVE",
"248.5 12 CURVE SMOOTH",
"256.83 20 OFFCURVE",
"261 29.83 OFFCURVE",
"261 41.5 CURVE SMOOTH",
"261 53.17 OFFCURVE",
"256.83 63 OFFCURVE",
"248.5 71 CURVE SMOOTH",
"240.17 79 OFFCURVE",
"230.33 83 OFFCURVE",
"219 83 CURVE SMOOTH"
);
},
{
closed = 1;
nodes = (
"316.33 560.5 OFFCURVE",
"271.83 579 OFFCURVE",
"219.5 579 CURVE SMOOTH",
"167.17 579 OFFCURVE",
"122.5 560.5 OFFCURVE",
"85.5 523.5 CURVE SMOOTH",
"48.5 486.5 OFFCURVE",
"30 441.67 OFFCURVE",
"30 389 CURVE SMOOTH",
"30 344.33 OFFCURVE",
"44.33 304.33 OFFCURVE",
"73 269 CURVE",
"134 327 LINE",
"120 345.67 OFFCURVE",
"113 366.33 OFFCURVE",
"113 389 CURVE SMOOTH",
"113 419 OFFCURVE",
"123.33 444.33 OFFCURVE",
"144 465 CURVE SMOOTH",
"164.67 485.67 OFFCURVE",
"189.67 496 OFFCURVE",
"219 496 CURVE SMOOTH",
"248.33 496 OFFCURVE",
"273.33 485.5 OFFCURVE",
"294 464.5 CURVE SMOOTH",
"314.67 443.5 OFFCURVE",
"325 418.33 OFFCURVE",
"325 389 CURVE SMOOTH",
"325 359.67 OFFCURVE",
"314.67 334.67 OFFCURVE",
"294 314 CURVE SMOOTH",
"273.33 293.33 OFFCURVE",
"248.33 283 OFFCURVE",
"219 283 CURVE SMOOTH",
"178 283 LINE",
"178 145 LINE",
"261 145 LINE",
"261 205 LINE",
"296.33 213 OFFCURVE",
"327 230 OFFCURVE",
"353 256 CURVE SMOOTH",
"389.67 292.67 OFFCURVE",
"408 337.17 OFFCURVE",
"408 389.5 CURVE SMOOTH",
"408 441.83 OFFCURVE",
"389.67 486.5 OFFCURVE",
"353 523.5 CURVE SMOOTH"
);
}
);
width = 439;
}
);
note = question;
unicode = 003F;
},
{
glyphname = at;
lastChange = "2018-10-30 01:52:17 +0000";
layers = (
{
layerId = "1B5A40BC-338C-4A9F-9FD4-89AE55A8ACCC";
paths = (
{
closed = 1;
nodes = (
"344.33 186.33 OFFCURVE",
"326.67 179 OFFCURVE",
"306 179 CURVE SMOOTH",
"285.33 179 OFFCURVE",
"267.67 186.33 OFFCURVE",
"253 201 CURVE SMOOTH",
"237.67 216.33 OFFCURVE",
"230 234.33 OFFCURVE",
"230 255 CURVE SMOOTH",
"230 276.33 OFFCURVE",
"237.67 294 OFFCURVE",
"253 308 CURVE",
"267 323.33 OFFCURVE",
"284.67 331 OFFCURVE",
"306 331 CURVE SMOOTH",
"327.33 331 OFFCURVE",
"345 323.33 OFFCURVE",
"359 308 CURVE",
"374.33 294 OFFCURVE",
"382 276.33 OFFCURVE",
"382 255 CURVE SMOOTH",
"382 253 LINE",
"381 252 LINE",
"381 251 LINE",
"379.67 231 OFFCURVE",
"372.33 214.33 OFFCURVE",
"359 201 CURVE SMOOTH"
);
},
{
closed = 1;
nodes = (
"570 402.67 OFFCURVE",
"549.33 433 OFFCURVE",
"522 459 CURVE",
"496 486.33 OFFCURVE",
"465.67 507 OFFCURVE",
"431 521 CURVE SMOOTH",
"395 536.33 OFFCURVE",
"357.33 544 OFFCURVE",
"318 544 CURVE SMOOTH",
"280 544 OFFCURVE",
"242.67 536.33 OFFCURVE",
"206 521 CURVE SMOOTH",
"172 507 OFFCURVE",
"141.33 486.33 OFFCURVE",
"114 459 CURVE SMOOTH",
"87.33 432.33 OFFCURVE",
"67 402 OFFCURVE",
"53 368 CURVE SMOOTH",
"37.67 331.33 OFFCURVE",
"30 293.67 OFFCURVE",
"30 255 CURVE SMOOTH",
"30 217 OFFCURVE",
"37.67 179.67 OFFCURVE",
"53 143 CURVE SMOOTH",
"67 109 OFFCURVE",
"87.67 78.33 OFFCURVE",
"115 51 CURVE SMOOTH",
"141.67 24.33 OFFCURVE",
"172 4 OFFCURVE",
"206 -10 CURVE SMOOTH",
"242.67 -25.33 OFFCURVE",
"280.67 -33 OFFCURVE",
"320 -33 CURVE SMOOTH",
"359.33 -33 OFFCURVE",
"393.17 -18.33 OFFCURVE",
"421.5 11 CURVE SMOOTH",
"449.83 40.33 OFFCURVE",
"464 75.33 OFFCURVE",
"464 116 CURVE SMOOTH",
"464 251 LINE",
"464 254 LINE",
"465 255 LINE",
"465 298.33 OFFCURVE",
"449.33 335.67 OFFCURVE",
"418 367 CURVE SMOOTH",
"386.67 398.33 OFFCURVE",
"349.33 414 OFFCURVE",
"306 414 CURVE SMOOTH",
"262.67 414 OFFCURVE",
"225.33 398.33 OFFCURVE",
"194 367 CURVE SMOOTH",
"162.67 335.67 OFFCURVE",
"147 298.33 OFFCURVE",
"147 255 CURVE SMOOTH",
"147 211.67 OFFCURVE",
"162.67 174.33 OFFCURVE",
"194 143 CURVE SMOOTH",
"225.33 111.67 OFFCURVE",
"262.67 96 OFFCURVE",
"306 96 CURVE SMOOTH",
"331.33 96 OFFCURVE",
"356.33 102.67 OFFCURVE",
"381 116 CURVE",
"381 98 OFFCURVE",
"374.83 82.5 OFFCURVE",
"362.5 69.5 CURVE SMOOTH",
"350.17 56.5 OFFCURVE",
"335.67 50 OFFCURVE",
"319 50 CURVE SMOOTH",
"289.67 50 OFFCURVE",
"263 55.33 OFFCURVE",
"239 66 CURVE SMOOTH",
"214.33 76 OFFCURVE",
"192.33 90.67 OFFCURVE",
"173 110 CURVE SMOOTH",
"153.67 129.33 OFFCURVE",
"139 151 OFFCURVE",
"129 175 CURVE SMOOTH",
"118.33 200.33 OFFCURVE",
"113 227 OFFCURVE",
"113 255 CURVE SMOOTH",
"113 284.33 OFFCURVE",
"118.33 311 OFFCURVE",
"129 335 CURVE SMOOTH",
"140.33 361 OFFCURVE",
"155 383 OFFCURVE",
"173 401 CURVE SMOOTH",
"191 419 OFFCURVE",
"213 433.67 OFFCURVE",
"239 445 CURVE SMOOTH",
"263 455.67 OFFCURVE",
"289.67 461 OFFCURVE",
"319 461 CURVE SMOOTH",
"348.33 461 OFFCURVE",
"375 455.67 OFFCURVE",
"399 445 CURVE SMOOTH",
"425 433 OFFCURVE",
"446.67 418.33 OFFCURVE",
"464 401 CURVE SMOOTH",
"483.33 381.67 OFFCURVE",
"498 359.67 OFFCURVE",
"508 335 CURVE SMOOTH",
"518.67 311 OFFCURVE",
"524 284.33 OFFCURVE",
"524 255 CURVE SMOOTH",
"524 -34 LINE",
"607 -34 LINE",
"607 255 LINE SMOOTH",
"607 293.67 OFFCURVE",
"599.33 331.33 OFFCURVE",
"584 368 CURVE SMOOTH"
);
}
);
width = 638;
}
);
note = at;
unicode = 0040;
},
{
glyphname = A;
lastChange = "2018-10-30 02:42:46 +0000";
layers = (
{
anchors = (
{
name = bottom;
position = "{301, 0}";
},
{
name = ogonek;
position = "{542, 10}";
},
{
name = top;
position = "{293, 564}";
}
);
layerId = "1B5A40BC-338C-4A9F-9FD4-89AE55A8ACCC";
paths = (
{
closed = 1;
nodes = (
"97 0 LINE",
"169 145 LINE",
"417 145 LINE",
"490 0 LINE",
"583 0 LINE",
"293 579 LINE",
"4 0 LINE"
);
},
{
closed = 1;
nodes = (
"293 393 LINE",
"376 228 LINE",
"210 228 LINE"
);
}
);
width = 602;
}
);
note = A;
unicode = 0041;
},
{
glyphname = B;
lastChange = "2018-10-30 02:42:46 +0000";
layers = (
{
anchors = (
{
name = bottom;
position = "{260, 0}";
},
{
name = top;
position = "{260, 579}";
}
);
layerId = "1B5A40BC-338C-4A9F-9FD4-89AE55A8ACCC";
paths = (
{
closed = 1;
nodes = (
"319 0 LINE SMOOTH",
"365.67 0 OFFCURVE",
"405.67 16.17 OFFCURVE",
"439 48.5 CURVE SMOOTH",
"472.33 80.83 OFFCURVE",
"489 119.67 OFFCURVE",
"489 165 CURVE SMOOTH",
"489 215 OFFCURVE",
"469.67 256.33 OFFCURVE",
"431 289 CURVE",
"469.67 322.33 OFFCURVE",
"489 363.67 OFFCURVE",
"489 413 CURVE SMOOTH",
"489 459 OFFCURVE",
"472.33 498.17 OFFCURVE",
"439 530.5 CURVE SMOOTH",
"405.67 562.83 OFFCURVE",
"365.67 579 OFFCURVE",
"319 579 CURVE SMOOTH",
"30 579 LINE",
"30 0 LINE"
);
},
{
closed = 1;
nodes = (
"113 248 LINE",
"319 248 LINE SMOOTH",
"343 248 OFFCURVE",
"363.5 240 OFFCURVE",
"380.5 224 CURVE SMOOTH",
"397.5 208 OFFCURVE",
"406 188.5 OFFCURVE",
"406 165.5 CURVE SMOOTH",
"406 142.5 OFFCURVE",
"397.5 123 OFFCURVE",
"380.5 107 CURVE SMOOTH",
"363.5 91 OFFCURVE",
"343 83 OFFCURVE",
"319 83 CURVE SMOOTH",
"113 83 LINE"
);
},
{
closed = 1;
nodes = (
"113 496 LINE",
"319 496 LINE SMOOTH",
"343 496 OFFCURVE",
"363.5 487.83 OFFCURVE",
"380.5 471.5 CURVE SMOOTH",
"397.5 455.17 OFFCURVE",
"406 435.67 OFFCURVE",
"406 413 CURVE SMOOTH",
"406 390.33 OFFCURVE",
"397.5 371 OFFCURVE",
"380.5 355 CURVE SMOOTH",
"363.5 339 OFFCURVE",
"343 331 OFFCURVE",
"319 331 CURVE SMOOTH",
"113 331 LINE"
);
}
);
width = 519;
}
);
note = B;
unicode = 0042;
},
{
glyphname = C;
lastChange = "2018-10-30 02:42:46 +0000";
layers = (
{
anchors = (
{
name = bottom;
position = "{277, 0}";
},
{
name = top;
position = "{277, 579}";
}
);
layerId = "1B5A40BC-338C-4A9F-9FD4-89AE55A8ACCC";
paths = (
{
closed = 1;
nodes = (
"399 0 OFFCURVE",
"467.33 28.33 OFFCURVE",
"524 85 CURVE",
"465 143 LINE",
"425 103 OFFCURVE",
"376.5 83 OFFCURVE",
"319.5 83 CURVE SMOOTH",
"262.5 83 OFFCURVE",
"213.83 103.17 OFFCURVE",
"173.5 143.5 CURVE SMOOTH",
"133.17 183.83 OFFCURVE",
"113 232.5 OFFCURVE",
"113 289.5 CURVE SMOOTH",
"113 346.5 OFFCURVE",
"133.17 395.17 OFFCURVE",
"173.5 435.5 CURVE SMOOTH",
"213.83 475.83 OFFCURVE",
"262.5 496 OFFCURVE",
"319.5 496 CURVE SMOOTH",
"376.5 496 OFFCURVE",
"425 475.67 OFFCURVE",
"465 435 CURVE",
"524 494 LINE",
"467.33 550.67 OFFCURVE",
"399 579 OFFCURVE",
"319 579 CURVE SMOOTH",
"287.67 579 OFFCURVE",
"257.33 574 OFFCURVE",
"228 564 CURVE SMOOTH",
"198.67 554 OFFCURVE",
"172.17 540.17 OFFCURVE",
"148.5 522.5 CURVE SMOOTH",
"124.83 504.83 OFFCURVE",
"104 484.17 OFFCURVE",
"86 460.5 CURVE SMOOTH",
"68 436.83 OFFCURVE",
"54.17 410.17 OFFCURVE",
"44.5 380.5 CURVE SMOOTH",
"34.83 350.83 OFFCURVE",
"30 320.33 OFFCURVE",
"30 289 CURVE SMOOTH",
"30 209 OFFCURVE",
"58.17 140.83 OFFCURVE",
"114.5 84.5 CURVE SMOOTH",
"170.83 28.17 OFFCURVE",
"239 0 OFFCURVE",
"319 0 CURVE SMOOTH"
);
}
);
width = 554;
}
);
note = C;
unicode = 0043;
},
{
glyphname = D;
lastChange = "2018-10-30 02:42:46 +0000";
layers = (
{
anchors = (
{
name = bottom;
position = "{284, 0}";
},
{
name = center;
position = "{284, 290}";
},
{
name = top;
position = "{284, 579}";
}
);
layerId = "1B5A40BC-338C-4A9F-9FD4-89AE55A8ACCC";
paths = (
{
closed = 1;
nodes = (
"246 0 LINE",
"247 0 LINE",
"248 0 LINE SMOOTH",
"328 0 OFFCURVE",
"396.17 28.17 OFFCURVE",
"452.5 84.5 CURVE SMOOTH",
"508.83 140.83 OFFCURVE",
"537 209 OFFCURVE",
"537 289 CURVE SMOOTH",
"537 369 OFFCURVE",
"508.83 437.33 OFFCURVE",
"452.5 494 CURVE SMOOTH",
"396.17 550.67 OFFCURVE",
"328 579 OFFCURVE",
"248 579 CURVE SMOOTH",
"246 579 LINE",
"30 579 LINE",
"30 0 LINE"
);
},
{
closed = 1;
nodes = (
"112 496 LINE",
"246 496 LINE",
"247 496 LINE",
"248 496 LINE SMOOTH",
"304.67 496 OFFCURVE",
"353.17 475.83 OFFCURVE",
"393.5 435.5 CURVE SMOOTH",
"433.83 395.17 OFFCURVE",
"454 346.5 OFFCURVE",
"454 289.5 CURVE SMOOTH",
"454 232.5 OFFCURVE",
"433.83 183.83 OFFCURVE",
"393.5 143.5 CURVE SMOOTH",
"353.17 103.17 OFFCURVE",
"304.67 83 OFFCURVE",
"248 83 CURVE SMOOTH",
"247 83 LINE",
"246 83 LINE",
"112 83 LINE"
);
}
);
width = 568;
}
);
note = D;
unicode = 0044;
},
{
glyphname = E;
lastChange = "2018-10-30 02:42:46 +0000";
layers = (
{
anchors = (
{
name = bottom;
position = "{211, 0}";
},
{
name = ogonek;
position = "{380, 10}";
},
{
name = top;
position = "{211, 579}";
},
{
name = topleft;
position = "{20, 579}";
}
);
layerId = "1B5A40BC-338C-4A9F-9FD4-89AE55A8ACCC";
paths = (
{
closed = 1;
nodes = (
"392 0 LINE",
"392 83 LINE",
"113 83 LINE",
"113 248 LINE",
"392 248 LINE",
"392 331 LINE",
"113 331 LINE",
"113 496 LINE",
"392 496 LINE",
"392 579 LINE",
"30 579 LINE",
"30 0 LINE"
);
}
);
width = 422;
}
);
note = E;
unicode = 0045;
},
{
glyphname = F;
lastChange = "2018-10-30 02:42:46 +0000";
layers = (
{
anchors = (
{
name = bottom;
position = "{211, 0}";
},
{
name = top;
position = "{211, 579}";
}
);
layerId = "1B5A40BC-338C-4A9F-9FD4-89AE55A8ACCC";
paths = (
{
closed = 1;
nodes = (
"113 0 LINE",
"113 248 LINE",
"392 248 LINE",
"392 331 LINE",
"113 331 LINE",
"113 496 LINE",
"392 496 LINE",
"392 579 LINE",
"30 579 LINE",
"30 0 LINE"
);
}
);
width = 422;
}
);
note = F;
unicode = 0046;
},
{
glyphname = G;
lastChange = "2018-10-30 03:08:52 +0000";
layers = (
{
anchors = (
{
name = bottom;
position = "{320, 0}";
},
{
name = top;
position = "{320, 579}";
}
);
layerId = "1B5A40BC-338C-4A9F-9FD4-89AE55A8ACCC";
paths = (
{
closed = 1;
nodes = (
"399 0 OFFCURVE",
"467.33 28.17 OFFCURVE",
"524 84.5 CURVE SMOOTH",
"580.67 140.83 OFFCURVE",
"609 209 OFFCURVE",
"609 289 CURVE",
"526 289 LINE",
"319 289 LINE",
"319 206 LINE",
"508 206 LINE",
"492 169.33 OFFCURVE",
"467 139.67 OFFCURVE",
"433 117 CURVE SMOOTH",
"399 94.33 OFFCURVE",
"361 83 OFFCURVE",
"319 83 CURVE SMOOTH",
"262.33 83 OFFCURVE",
"213.83 103.17 OFFCURVE",
"173.5 143.5 CURVE SMOOTH",
"133.17 183.83 OFFCURVE",
"113 232.5 OFFCURVE",
"113 289.5 CURVE SMOOTH",
"113 346.5 OFFCURVE",
"133.17 395.17 OFFCURVE",
"173.5 435.5 CURVE SMOOTH",
"213.83 475.83 OFFCURVE",
"262.5 496 OFFCURVE",
"319.5 496 CURVE SMOOTH",
"376.5 496 OFFCURVE",
"425 475.67 OFFCURVE",
"465 435 CURVE",
"524 494 LINE",
"467.33 550.67 OFFCURVE",
"399 579 OFFCURVE",
"319 579 CURVE SMOOTH",
"239 579 OFFCURVE",
"170.83 550.67 OFFCURVE",
"114.5 494 CURVE SMOOTH",
"58.17 437.33 OFFCURVE",
"30 369 OFFCURVE",
"30 289 CURVE SMOOTH",
"30 209 OFFCURVE",
"58.17 140.83 OFFCURVE",
"114.5 84.5 CURVE SMOOTH",
"170.83 28.17 OFFCURVE",
"239 0 OFFCURVE",
"319 0 CURVE SMOOTH"
);
}
);
width = 639;
}
);
note = G;
unicode = 0047;
},
{
glyphname = H;
lastChange = "2018-10-30 02:42:46 +0000";
layers = (
{
anchors = (
{
name = bottom;
position = "{247, 0}";
},
{
name = center;
position = "{247, 290}";
},
{
name = top;
position = "{247, 579}";
},
{
name = topleft;
position = "{20, 579}";
}
);
layerId = "1B5A40BC-338C-4A9F-9FD4-89AE55A8ACCC";
paths = (
{
closed = 1;
nodes = (
"113 0 LINE",
"113 248 LINE",
"381 248 LINE",
"381 0 LINE",
"464 0 LINE",
"464 579 LINE",
"381 579 LINE",
"381 331 LINE",
"113 331 LINE",
"113 579 LINE",
"30 579 LINE",
"30 0 LINE"
);
}
);
width = 494;
}
);
note = H;
unicode = 0048;
},
{
glyphname = I;
lastChange = "2018-10-30 02:13:32 +0000";
layers = (
{
anchors = (
{
name = bottom;
position = "{72, 0}";
},
{
name = ogonek;
position = "{129, 10}";
},
{
name = top;
position = "{72, 579}";
},
{
name = topleft;
position = "{20, 579}";
}
);
layerId = "1B5A40BC-338C-4A9F-9FD4-89AE55A8ACCC";
paths = (
{
closed = 1;
nodes = (
"113 0 LINE",
"113 579 LINE",
"30 579 LINE",
"30 0 LINE"
);
}
);
width = 143;
}
);
note = I;
unicode = 0049;
},
{
glyphname = J;
lastChange = "2018-10-30 02:42:46 +0000";
layers = (
{
anchors = (
{
name = bottom;
position = "{220, 0}";
},
{
name = top;
position = "{220, 579}";
}
);
layerId = "1B5A40BC-338C-4A9F-9FD4-89AE55A8ACCC";
paths = (
{
closed = 1;
nodes = (
"253 0 OFFCURVE",
"284.67 8.5 OFFCURVE",
"314 25.5 CURVE SMOOTH",
"343.33 42.5 OFFCURVE",
"366.33 65.5 OFFCURVE",
"383 94.5 CURVE SMOOTH",
"399.67 123.5 OFFCURVE",
"408 155 OFFCURVE",
"408 189 CURVE SMOOTH",
"408 579 LINE",
"325 579 LINE",
"325 345 LINE",
"325 346 LINE",
"325 189 LINE SMOOTH",
"325 159.67 OFFCURVE",
"314.67 134.67 OFFCURVE",
"294 114 CURVE SMOOTH",
"273.33 93.33 OFFCURVE",
"248.33 83 OFFCURVE",
"219 83 CURVE SMOOTH",
"189.67 83 OFFCURVE",
"164.67 93.33 OFFCURVE",
"144 114 CURVE SMOOTH",
"123.33 134.67 OFFCURVE",
"113 159.67 OFFCURVE",
"113 189 CURVE",
"30 189 LINE",
"30 137 OFFCURVE",
"48.5 92.5 OFFCURVE",
"85.5 55.5 CURVE SMOOTH",
"122.5 18.5 OFFCURVE",
"167 0 OFFCURVE",
"219 0 CURVE SMOOTH"
);
}
);
width = 439;
}
);
note = J;
unicode = 004A;
},
{
glyphname = K;
lastChange = "2018-10-30 02:42:46 +0000";
layers = (
{
anchors = (
{
name = bottom;
position = "{280, 0}";
},
{
name = top;
position = "{280, 579}";
}
);
layerId = "1B5A40BC-338C-4A9F-9FD4-89AE55A8ACCC";
paths = (
{
closed = 1;
nodes = (
"113 0 LINE",
"113 236 LINE",
"399 0 LINE",
"529 0 LINE",
"178 289 LINE",
"529 579 LINE",
"399 579 LINE",
"113 343 LINE",
"113 579 LINE",
"30 579 LINE",
"30 0 LINE"
);
}
);
width = 560;
}
);
note = K;
unicode = 004B;
},
{
glyphname = L;
lastChange = "2018-10-30 02:42:46 +0000";
layers = (
{
anchors = (
{
name = bottom;
position = "{211, 0}";
},
{
name = center;
position = "{211, 290}";
},
{
name = top;
position = "{211, 579}";
},
{
name = topright;
position = "{402, 579}";
}
);
layerId = "1B5A40BC-338C-4A9F-9FD4-89AE55A8ACCC";
paths = (
{
closed = 1;
nodes = (
"392 0 LINE",
"392 83 LINE",
"113 83 LINE",
"113 579 LINE",
"30 579 LINE",
"30 0 LINE"
);
}
);
width = 422;
}
);
note = L;
unicode = 004C;
},
{
glyphname = M;
lastChange = "2018-10-30 02:42:46 +0000";
layers = (
{
anchors = (
{
name = bottom;
position = "{361, 0}";
},
{
name = top;
position = "{361, 579}";
}
);
layerId = "1B5A40BC-338C-4A9F-9FD4-89AE55A8ACCC";
paths = (
{
closed = 1;
nodes = (
"113 0 LINE",
"113 330 LINE",
"173 250 LINE",
"361 0 LINE",
"609 331 LINE",
"609 1 LINE",
"690 1 LINE",
"690 578 LINE",
"609 469 LINE",
"361 138 LINE",
"30 579 LINE",
"30 0 LINE"
);
}
);
width = 721;
}
);
note = M;
unicode = 004D;
},
{
glyphname = N;
lastChange = "2018-10-30 02:13:32 +0000";
layers = (
{
anchors = (
{
name = bottom;
position = "{261, 0}";
},
{
name = top;
position = "{261, 579}";
}
);
layerId = "1B5A40BC-338C-4A9F-9FD4-89AE55A8ACCC";
paths = (
{
closed = 1;
nodes = (
"491 579 LINE",
"409 579 LINE",
"409 202 LINE",
"30 581 LINE",
"30 1 LINE",
"113 1 LINE",
"113 378 LINE",
"490 1 LINE",
"491 0 LINE"
);
}
);
width = 521;
}
);
note = N;
unicode = 004E;
},
{
glyphname = O;
lastChange = "2018-10-30 02:42:46 +0000";
layers = (
{
anchors = (
{
name = bottom;
position = "{320, 0}";
},
{
name = center;
position = "{320, 290}";
},
{
name = ogonek;
position = "{575, 10}";
},
{
name = top;
position = "{320, 579}";
},
{
name = topleft;
position = "{20, 579}";
},
{
name = topright;
position = "{619, 579}";
}
);
layerId = "1B5A40BC-338C-4A9F-9FD4-89AE55A8ACCC";
paths = (
{
closed = 1;
nodes = (
"399 0 OFFCURVE",
"467.33 28.17 OFFCURVE",
"524 84.5 CURVE SMOOTH",
"580.67 140.83 OFFCURVE",
"609 209 OFFCURVE",
"609 289 CURVE SMOOTH",
"609 341.67 OFFCURVE",
"596 390.17 OFFCURVE",
"570 434.5 CURVE SMOOTH",
"544 478.83 OFFCURVE",
"508.83 514 OFFCURVE",
"464.5 540 CURVE SMOOTH",
"420.17 566 OFFCURVE",
"371.67 579 OFFCURVE",
"319 579 CURVE SMOOTH",
"239 579 OFFCURVE",
"170.83 550.67 OFFCURVE",
"114.5 494 CURVE SMOOTH",
"58.17 437.33 OFFCURVE",
"30 369 OFFCURVE",
"30 289 CURVE SMOOTH",
"30 209 OFFCURVE",
"58.17 140.83 OFFCURVE",
"114.5 84.5 CURVE SMOOTH",
"170.83 28.17 OFFCURVE",
"239 0 OFFCURVE",
"319 0 CURVE SMOOTH"
);
},
{
closed = 1;
nodes = (
"262.5 83 OFFCURVE",
"213.83 103.17 OFFCURVE",
"173.5 143.5 CURVE SMOOTH",
"133.17 183.83 OFFCURVE",
"113 232.33 OFFCURVE",
"113 289 CURVE SMOOTH",
"113 326.33 OFFCURVE",
"122.17 360.83 OFFCURVE",
"140.5 392.5 CURVE SMOOTH",
"158.83 424.17 OFFCURVE",
"183.83 449.33 OFFCURVE",
"215.5 468 CURVE SMOOTH",
"247.17 486.67 OFFCURVE",
"281.67 496 OFFCURVE",
"319 496 CURVE SMOOTH",
"376.33 496 OFFCURVE",
"425.17 475.83 OFFCURVE",
"465.5 435.5 CURVE SMOOTH",
"505.83 395.17 OFFCURVE",
"526 346.5 OFFCURVE",
"526 289.5 CURVE SMOOTH",
"526 232.5 OFFCURVE",
"505.83 183.83 OFFCURVE",
"465.5 143.5 CURVE SMOOTH",
"425.17 103.17 OFFCURVE",
"376.5 83 OFFCURVE",
"319.5 83 CURVE SMOOTH"
);
}
);
width = 639;
}
);
note = O;
unicode = 004F;
},
{
glyphname = P;
lastChange = "2018-10-30 02:42:46 +0000";
layers = (
{
anchors = (
{
name = bottom;
position = "{258, 0}";
},
{
name = top;
position = "{258, 579}";
}
);
layerId = "1B5A40BC-338C-4A9F-9FD4-89AE55A8ACCC";
paths = (
{
closed = 1;
nodes = (
"113 0 LINE",
"113 248 LINE",
"319 248 LINE SMOOTH",
"365 248 OFFCURVE",
"404.17 264.17 OFFCURVE",
"436.5 296.5 CURVE SMOOTH",
"468.83 328.83 OFFCURVE",
"485 367.83 OFFCURVE",
"485 413.5 CURVE SMOOTH",
"485 459.17 OFFCURVE",
"468.83 498.17 OFFCURVE",
"436.5 530.5 CURVE SMOOTH",
"404.17 562.83 OFFCURVE",
"365 579 OFFCURVE",
"319 579 CURVE SMOOTH",
"30 579 LINE",
"30 0 LINE"
);
},
{
closed = 1;
nodes = (
"113 496 LINE",
"319 496 LINE SMOOTH",
"341.67 496 OFFCURVE",
"361.17 487.83 OFFCURVE",
"377.5 471.5 CURVE SMOOTH",
"393.83 455.17 OFFCURVE",
"402 435.67 OFFCURVE",
"402 413 CURVE SMOOTH",
"402 398.33 OFFCURVE",
"398.33 384.67 OFFCURVE",
"391 372 CURVE SMOOTH",
"383.67 359.33 OFFCURVE",
"373.67 349.33 OFFCURVE",
"361 342 CURVE SMOOTH",
"348.33 334.67 OFFCURVE",
"334.33 331 OFFCURVE",
"319 331 CURVE SMOOTH",
"113 331 LINE"
);
}
);
width = 515;
}
);
note = P;
unicode = 0050;
},
{
glyphname = Q;
lastChange = "2018-10-30 02:42:46 +0000";
layers = (
{
anchors = (
{
name = bottom;
position = "{320, 0}";
},
{
name = top;
position = "{320, 579}";
}
);
layerId = "1B5A40BC-338C-4A9F-9FD4-89AE55A8ACCC";
paths = (
{
closed = 1;
nodes = (
"368.33 0 OFFCURVE",
"414.33 11.67 OFFCURVE",
"457 35 CURVE",
"491 0 LINE",
"609 0 LINE",
"524 85 LINE",
"580.67 141 OFFCURVE",
"609 209 OFFCURVE",
"609 289 CURVE SMOOTH",
"609 341.67 OFFCURVE",
"596 390.17 OFFCURVE",
"570 434.5 CURVE SMOOTH",
"544 478.83 OFFCURVE",
"508.83 514 OFFCURVE",
"464.5 540 CURVE SMOOTH",
"420.17 566 OFFCURVE",
"371.67 579 OFFCURVE",
"319 579 CURVE SMOOTH",
"239 579 OFFCURVE",
"170.83 550.67 OFFCURVE",
"114.5 494 CURVE SMOOTH",
"58.17 437.33 OFFCURVE",
"30 369 OFFCURVE",
"30 289 CURVE SMOOTH",
"30 209 OFFCURVE",
"58.17 140.83 OFFCURVE",
"114.5 84.5 CURVE SMOOTH",
"170.83 28.17 OFFCURVE",
"239 0 OFFCURVE",
"319 0 CURVE SMOOTH"
);
},
{
closed = 1;
nodes = (
"262.33 83 OFFCURVE",
"213.83 103.17 OFFCURVE",
"173.5 143.5 CURVE SMOOTH",
"133.17 183.83 OFFCURVE",
"113 232.5 OFFCURVE",
"113 289.5 CURVE SMOOTH",
"113 346.5 OFFCURVE",
"133.17 395.17 OFFCURVE",
"173.5 435.5 CURVE SMOOTH",
"213.83 475.83 OFFCURVE",
"262.5 496 OFFCURVE",
"319.5 496 CURVE SMOOTH",
"376.5 496 OFFCURVE",
"425.17 475.83 OFFCURVE",
"465.5 435.5 CURVE SMOOTH",
"505.83 395.17 OFFCURVE",
"526 346.5 OFFCURVE",
"526 289.5 CURVE SMOOTH",
"526 232.5 OFFCURVE",
"505.67 183.67 OFFCURVE",
"465 143 CURVE",
"436 173 LINE",
"319 173 LINE",
"394 97 LINE",
"370 87.67 OFFCURVE",
"345 83 OFFCURVE",
"319 83 CURVE SMOOTH"
);
}
);
width = 639;
}
);
note = Q;
unicode = 0051;
},
{
glyphname = R;
lastChange = "2018-10-30 02:42:46 +0000";
layers = (
{
anchors = (
{
name = bottom;
position = "{258, 0}";
},
{
name = top;
position = "{258, 579}";
}
);
layerId = "1B5A40BC-338C-4A9F-9FD4-89AE55A8ACCC";
paths = (
{
closed = 1;
nodes = (
"113 0 LINE",
"113 248 LINE",
"114 248 LINE",
"362 0 LINE",
"479 0 LINE",
"231 248 LINE",
"319 248 LINE SMOOTH",
"365 248 OFFCURVE",
"404.17 264.17 OFFCURVE",
"436.5 296.5 CURVE SMOOTH",
"468.83 328.83 OFFCURVE",
"485 367.83 OFFCURVE",
"485 413.5 CURVE SMOOTH",
"485 459.17 OFFCURVE",
"468.83 498.17 OFFCURVE",
"436.5 530.5 CURVE SMOOTH",
"404.17 562.83 OFFCURVE",
"365 579 OFFCURVE",
"319 579 CURVE SMOOTH",
"30 579 LINE",
"30 0 LINE"
);
},
{
closed = 1;
nodes = (
"113 496 LINE",
"319 496 LINE SMOOTH",
"341.67 496 OFFCURVE",
"361.17 487.83 OFFCURVE",
"377.5 471.5 CURVE SMOOTH",
"393.83 455.17 OFFCURVE",
"402 435.67 OFFCURVE",
"402 413 CURVE SMOOTH",
"402 390.33 OFFCURVE",
"393.83 371 OFFCURVE",
"377.5 355 CURVE SMOOTH",
"361.17 339 OFFCURVE",
"341.67 331 OFFCURVE",
"319 331 CURVE SMOOTH",
"113 331 LINE"
);
}
);
width = 515;
}
);
note = R;
unicode = 0052;
},
{
glyphname = S;
lastChange = "2018-10-30 02:42:46 +0000";
layers = (
{
anchors = (
{
name = bottom;
position = "{200, 0}";
},
{
name = top;
position = "{200, 579}";
}
);
layerId = "1B5A40BC-338C-4A9F-9FD4-89AE55A8ACCC";
paths = (
{
closed = 1;
nodes = (
"246.5 0 OFFCURVE",
"286.5 16.17 OFFCURVE",
"319.5 48.5 CURVE SMOOTH",
"352.5 80.83 OFFCURVE",
"369 119.83 OFFCURVE",
"369 165.5 CURVE SMOOTH",
"369 211.17 OFFCURVE",
"352.33 250 OFFCURVE",
"319 282 CURVE",
"318.33 283.33 OFFCURVE",
"315.67 285.67 OFFCURVE",
"311 289 CURVE",
"312 289 LINE",
"311.33 289.67 OFFCURVE",
"310.67 290.17 OFFCURVE",
"310 290.5 CURVE SMOOTH",
"309.33 290.83 OFFCURVE",
"309 291.33 OFFCURVE",
"309 292 CURVE",
"308.33 292 OFFCURVE",
"307.5 292.5 OFFCURVE",
"306.5 293.5 CURVE SMOOTH",
"305 295 LINE",
"301.67 297.67 OFFCURVE",
"299 299.67 OFFCURVE",
"297 301 CURVE",
"295 301.67 OFFCURVE",
"293.33 302.67 OFFCURVE",
"292 304 CURVE",
"289.33 305.33 OFFCURVE",
"286.33 307 OFFCURVE",
"283 309 CURVE",
"282.33 309.67 OFFCURVE",
"280.67 310.67 OFFCURVE",
"278 312 CURVE SMOOTH",
"275.33 313.33 OFFCURVE",
"272.33 314.67 OFFCURVE",
"269 316 CURVE",
"266.33 317.33 OFFCURVE",
"264.67 318 OFFCURVE",
"264 318 CURVE",
"260.67 319.33 OFFCURVE",
"257 320.67 OFFCURVE",
"253 322 CURVE SMOOTH",
"251.5 322.5 LINE SMOOTH",
"250.5 322.83 OFFCURVE",
"249.67 323.33 OFFCURVE",
"249 324 CURVE",
"245.67 324.67 OFFCURVE",
"241.67 325.67 OFFCURVE",
"237 327 CURVE",
"235 327 LINE SMOOTH",
"234.33 327 OFFCURVE",
"233.67 327.33 OFFCURVE",
"233 328 CURVE",
"219 330 LINE",
"218 330 LINE",
"217 330 LINE",
"211 330.67 OFFCURVE",
"205.33 331 OFFCURVE",
"200 331 CURVE SMOOTH",
"176 331 OFFCURVE",
"155.5 339 OFFCURVE",
"138.5 355 CURVE SMOOTH",
"121.5 371 OFFCURVE",
"113 390.33 OFFCURVE",
"113 413 CURVE SMOOTH",
"113 435.67 OFFCURVE",
"121.5 455.17 OFFCURVE",
"138.5 471.5 CURVE SMOOTH",
"155.5 487.83 OFFCURVE",
"175.83 496 OFFCURVE",
"199.5 496 CURVE SMOOTH",
"223.17 496 OFFCURVE",
"243.67 487.67 OFFCURVE",
"261 471 CURVE SMOOTH",
"271.67 461 OFFCURVE",
"279 448.67 OFFCURVE",
"283 434 CURVE",
"368 434 LINE",
"362.67 471.33 OFFCURVE",
"346.33 503.33 OFFCURVE",
"319 530 CURVE SMOOTH",
"286.33 562.67 OFFCURVE",
"246.67 579 OFFCURVE",
"200 579 CURVE SMOOTH",
"153.33 579 OFFCURVE",
"113.33 562.83 OFFCURVE",
"80 530.5 CURVE SMOOTH",
"46.67 498.17 OFFCURVE",
"30 459.17 OFFCURVE",
"30 413.5 CURVE SMOOTH",
"30 367.83 OFFCURVE",
"46.67 328.67 OFFCURVE",
"80 296 CURVE SMOOTH",
"81.33 294.67 OFFCURVE",
"84 292.33 OFFCURVE",
"88 289 CURVE SMOOTH",
"91.33 286.33 OFFCURVE",
"95 283.67 OFFCURVE",
"99 281 CURVE",
"99 280 LINE",
"100 280 LINE",
"103.33 277.33 OFFCURVE",
"107 275 OFFCURVE",
"111 273 CURVE",
"111 272.33 OFFCURVE",
"111.67 272 OFFCURVE",
"113 272 CURVE",
"116.33 269.33 OFFCURVE",
"120 267.33 OFFCURVE",
"124 266 CURVE",
"126 264 LINE",
"130.67 262 OFFCURVE",
"134.33 260.67 OFFCURVE",
"137 260 CURVE",
"141 258 LINE",
"145.67 256.67 OFFCURVE",
"149.33 255.67 OFFCURVE",
"152 255 CURVE",
"157 253 LINE",
"161.67 252.33 OFFCURVE",
"165 251.67 OFFCURVE",
"167 251 CURVE",
"167.67 251 OFFCURVE",
"169.67 250.67 OFFCURVE",
"173 250 CURVE",
"182.33 248.67 OFFCURVE",
"191 248 OFFCURVE",
"199 248 CURVE SMOOTH",
"200 248 LINE SMOOTH",
"223.33 248 OFFCURVE",
"243.5 240 OFFCURVE",
"260.5 224 CURVE SMOOTH",
"277.5 208 OFFCURVE",
"286 188.5 OFFCURVE",
"286 165.5 CURVE SMOOTH",
"286 142.5 OFFCURVE",
"277.5 123 OFFCURVE",
"260.5 107 CURVE SMOOTH",
"243.5 91 OFFCURVE",
"223.17 83 OFFCURVE",
"199.5 83 CURVE SMOOTH",
"175.83 83 OFFCURVE",
"155.33 91 OFFCURVE",
"138 107 CURVE",
"127.33 117.67 OFFCURVE",
"120 130.33 OFFCURVE",
"116 145 CURVE",
"31 145 LINE",
"36.33 107.67 OFFCURVE",
"52.67 75.67 OFFCURVE",
"80 49 CURVE SMOOTH",
"112.67 16.33 OFFCURVE",
"152.5 0 OFFCURVE",
"199.5 0 CURVE SMOOTH"
);
}
);
width = 400;
}
);
note = S;
unicode = 0053;
},
{
glyphname = T;
lastChange = "2018-10-30 02:42:46 +0000";
layers = (
{
anchors = (
{
name = bottom;
position = "{247, 0}";
},
{
name = center;
position = "{247, 290}";
},
{
name = top;
position = "{247, 579}";
}
);
layerId = "1B5A40BC-338C-4A9F-9FD4-89AE55A8ACCC";
paths = (
{
closed = 1;
nodes = (
"288 0 LINE",
"288 496 LINE",
"464 496 LINE",
"464 579 LINE",
"30 579 LINE",
"30 496 LINE",
"206 496 LINE",
"206 0 LINE"
);
}
);
width = 494;
}
);
note = T;
unicode = 0054;
},
{
glyphname = U;
lastChange = "2018-10-30 02:42:46 +0000";
layers = (
{
anchors = (
{
name = bottom;
position = "{289, 0}";
},
{
name = ogonek;
position = "{519, 10}";
},
{
name = top;
position = "{289, 579}";
},
{
name = topright;
position = "{557, 579}";
}
);
layerId = "1B5A40BC-338C-4A9F-9FD4-89AE55A8ACCC";
paths = (
{
closed = 1;
nodes = (
"359.5 0 OFFCURVE",
"420.33 25.33 OFFCURVE",
"471 76 CURVE SMOOTH",
"521.67 126.67 OFFCURVE",
"547 187.33 OFFCURVE",
"547 258 CURVE SMOOTH",
"547 259 LINE",
"547 260 LINE",
"547 577 LINE",
"464 577 LINE",
"464 260 LINE",
"464 259.5 LINE",
"464 258 LINE SMOOTH",
"464 226.67 OFFCURVE",
"456.17 197.5 OFFCURVE",
"440.5 170.5 CURVE SMOOTH",
"424.83 143.5 OFFCURVE",
"403.5 122.17 OFFCURVE",
"376.5 106.5 CURVE SMOOTH",
"349.5 90.83 OFFCURVE",
"320 83 OFFCURVE",
"288 83 CURVE SMOOTH",
"240 83 OFFCURVE",
"198.83 100.17 OFFCURVE",
"164.5 134.5 CURVE SMOOTH",
"130.17 168.83 OFFCURVE",
"113 210 OFFCURVE",
"113 258 CURVE SMOOTH",
"113 259 LINE",
"113 260 LINE",
"113 577 LINE",
"30 577 LINE",
"30 260 LINE",
"30 259 LINE",
"30 258 LINE SMOOTH",
"30 187.33 OFFCURVE",
"55.33 126.67 OFFCURVE",
"106 76 CURVE SMOOTH",
"156.67 25.33 OFFCURVE",
"217.5 0 OFFCURVE",
"288.5 0 CURVE SMOOTH"
);
}
);
width = 577;
}
);
note = U;
unicode = 0055;
},
{
glyphname = V;
lastChange = "2018-10-30 02:42:46 +0000";
layers = (
{
anchors = (
{
name = bottom;
position = "{279, 0}";
},
{
name = top;
position = "{279, 579}";
}
);
layerId = "1B5A40BC-338C-4A9F-9FD4-89AE55A8ACCC";
paths = (
{
closed = 1;
nodes = (
"562 579 LINE",
"470 579 LINE",
"278 188 LINE",
"86 579 LINE",
"-6 579 LINE",
"278 0 LINE"
);
}
);
width = 557;
}
);
note = V;
unicode = 0056;
},
{
glyphname = W;
lastChange = "2018-10-30 02:42:46 +0000";
layers = (
{
anchors = (
{
name = bottom;
position = "{479, 0}";
},
{
name = top;
position = "{479, 579}";
}
);
layerId = "1B5A40BC-338C-4A9F-9FD4-89AE55A8ACCC";
paths = (
{
closed = 1;
nodes = (
"479 390 LINE",
"671 0 LINE",
"955 579 LINE",
"863 579 LINE",
"671 188 LINE",
"525 485 LINE",
"479 579 LINE",
"433 485 LINE",
"433 484 LINE",
"287 188 LINE",
"95 579 LINE",
"3 579 LINE",
"287 0 LINE"
);
}
);
width = 958;
}
);
note = W;
unicode = 0057;
},
{
glyphname = X;
lastChange = "2018-10-30 02:42:46 +0000";
layers = (
{
anchors = (
{
name = bottom;
position = "{299, 0}";
},
{
name = top;
position = "{299, 579}";
}
);
layerId = "1B5A40BC-338C-4A9F-9FD4-89AE55A8ACCC";
paths = (
{
closed = 1;
nodes = (
"134 0 LINE",
"299 220 LINE",
"464 0 LINE",
"568 0 LINE",
"351 289 LINE",
"568 579 LINE",
"464 579 LINE",
"299 358 LINE",
"134 579 LINE",
"30 579 LINE",
"247 289 LINE",
"30 0 LINE"
);
}
);
width = 598;
}
);
note = X;
unicode = 0058;
},
{
glyphname = Y;
lastChange = "2018-10-30 02:42:46 +0000";
layers = (
{
anchors = (
{
name = bottom;
position = "{299, 0}";
},
{
name = top;
position = "{299, 579}";
},
{
name = topleft;
position = "{20, 579}";
}
);
layerId = "1B5A40BC-338C-4A9F-9FD4-89AE55A8ACCC";
paths = (
{
closed = 1;
nodes = (
"340 0 LINE",
"340 275 LINE",
"568 579 LINE",
"464 579 LINE",
"299 358 LINE",
"134 579 LINE",
"30 579 LINE",
"257 275 LINE",
"257 0 LINE"
);
}
);
width = 598;
}
);
note = Y;
unicode = 0059;
},
{
glyphname = Z;
lastChange = "2018-10-30 02:42:46 +0000";
layers = (
{
anchors = (
{
name = bottom;
position = "{299, 0}";
},
{
name = top;
position = "{299, 579}";
}
);
layerId = "1B5A40BC-338C-4A9F-9FD4-89AE55A8ACCC";
paths = (
{
closed = 1;
nodes = (
"568 0 LINE",
"568 83 LINE",
"196 83 LINE",
"568 579 LINE",
"30 579 LINE",
"30 496 LINE",
"402 496 LINE",
"30 0 LINE"
);
}
);
width = 598;
}
);
note = Z;
unicode = 005A;
},
{
glyphname = bracketleft;
lastChange = "2018-10-30 01:52:17 +0000";
layers = (
{
layerId = "1B5A40BC-338C-4A9F-9FD4-89AE55A8ACCC";
paths = (
{
closed = 1;
nodes = (
"216 537 LINE",
"216 620 LINE",
"30 620 LINE",
"30 -41 LINE",
"216 -41 LINE",
"216 41 LINE",
"113 41 LINE",
"113 537 LINE"
);
}
);
width = 247;
}
);
note = bracketleft;
unicode = 005B;
},
{
glyphname = backslash;
lastChange = "2018-10-30 01:52:17 +0000";
layers = (
{
layerId = "1B5A40BC-338C-4A9F-9FD4-89AE55A8ACCC";
paths = (
{
closed = 1;
nodes = (
"123 579 LINE",
"30 579 LINE",
"319 0 LINE",
"412 0 LINE"
);
}
);
width = 443;
}
);
note = backslash;
unicode = 005C;
},
{
glyphname = bracketright;
lastChange = "2018-10-30 01:52:17 +0000";
layers = (
{
layerId = "1B5A40BC-338C-4A9F-9FD4-89AE55A8ACCC";
paths = (
{
closed = 1;
nodes = (
"30 627 LINE",
"30 544 LINE",
"133 544 LINE",
"133 48 LINE",
"30 48 LINE",
"30 -35 LINE",
"216 -35 LINE",
"216 627 LINE"
);
}
);
width = 247;
}
);
note = bracketright;
unicode = 005D;
},
{
glyphname = underscore;
lastChange = "2018-10-30 01:52:17 +0000";
layers = (
{
layerId = "1B5A40BC-338C-4A9F-9FD4-89AE55A8ACCC";
paths = (
{
closed = 1;
nodes = (
"609 -117 LINE",
"609 -34 LINE",
"30 -34 LINE",
"30 -117 LINE"
);
}
);
width = 639;
}
);
note = underscore;
unicode = 005F;
},
{
glyphname = a;
lastChange = "2018-10-30 02:42:46 +0000";
layers = (
{
anchors = (
{
name = bottom;
position = "{247, 0}";
},
{
name = ogonek;
position = "{445, 10}";
},
{
name = top;
position = "{247, 469}";
}
);
hints = (
{
horizontal = 1;
origin = "{0, 16}";
target = "{1, 26}";
type = Stem;
},
{
horizontal = 1;
origin = "{0, 4}";
target = "{1, 11}";
type = Stem;
},
{
origin = "{0, 10}";
target = "{1, 5}";
type = Stem;
},
{
origin = "{0, 20}";
target = "{0, 21}";
type = Stem;
}
);
layerId = "1B5A40BC-338C-4A9F-9FD4-89AE55A8ACCC";
paths = (
{
closed = 1;
nodes = (
"297 0 OFFCURVE",
"341.67 15.67 OFFCURVE",
"381 47 CURVE",
"381 0 LINE",
"464 0 LINE",
"464 434 LINE",
"381 434 LINE",
"381 387 LINE",
"341.67 418.33 OFFCURVE",
"297 434 OFFCURVE",
"247 434 CURVE SMOOTH",
"187 434 OFFCURVE",
"135.83 412.83 OFFCURVE",
"93.5 370.5 CURVE SMOOTH",
"51.17 328.17 OFFCURVE",
"30 277 OFFCURVE",
"30 217 CURVE SMOOTH",
"30 157 OFFCURVE",
"51.17 105.83 OFFCURVE",
"93.5 63.5 CURVE SMOOTH",
"135.83 21.17 OFFCURVE",
"187 0 OFFCURVE",
"247 0 CURVE SMOOTH"
);
},
{
closed = 1;
nodes = (
"210.33 83 OFFCURVE",
"178.83 96.17 OFFCURVE",
"152.5 122.5 CURVE SMOOTH",
"126.17 148.83 OFFCURVE",
"113 180.33 OFFCURVE",
"113 217 CURVE SMOOTH",
"113 253.67 OFFCURVE",
"126.17 285.17 OFFCURVE",
"152.5 311.5 CURVE SMOOTH",
"178.83 337.83 OFFCURVE",
"210.33 351 OFFCURVE",
"247 351 CURVE SMOOTH",
"283.67 351 OFFCURVE",
"315.17 337.83 OFFCURVE",
"341.5 311.5 CURVE SMOOTH",
"367.83 285.17 OFFCURVE",
"381 253.67 OFFCURVE",
"381 217 CURVE SMOOTH",
"381 193 OFFCURVE",
"375 170.67 OFFCURVE",
"363 150 CURVE SMOOTH",
"351 129.33 OFFCURVE",
"334.67 113 OFFCURVE",
"314 101 CURVE SMOOTH",
"293.33 89 OFFCURVE",
"271 83 OFFCURVE",
"247 83 CURVE SMOOTH"
);
}
);
width = 494;
}
);
note = a;
unicode = 0061;
},
{
glyphname = b;
lastChange = "2018-10-30 02:42:46 +0000";
layers = (
{
anchors = (
{
name = bottom;
position = "{247, 0}";
},
{
name = top;
position = "{247, 500}";
}
);
hints = (
{
horizontal = 1;
origin = "{0, 5}";
target = "{1, 23}";
type = Stem;
},
{
horizontal = 1;
origin = "{0, 22}";
target = "{1, 11}";
type = Stem;
},
{
horizontal = 1;
origin = "{0, 4}";
target = down;
type = TopGhost;
},
{
origin = "{0, 5}";
target = "{0, 6}";
type = Stem;
},
{
origin = "{1, 17}";
target = "{0, 16}";
type = Stem;
}
);
layerId = "1B5A40BC-338C-4A9F-9FD4-89AE55A8ACCC";
paths = (
{
closed = 1;
nodes = (
"113 0 LINE",
"113 47 LINE",
"152.33 15.67 OFFCURVE",
"197 0 OFFCURVE",
"247 0 CURVE SMOOTH",
"307 0 OFFCURVE",
"358.17 21.17 OFFCURVE",
"400.5 63.5 CURVE SMOOTH",
"442.83 105.83 OFFCURVE",
"464 157 OFFCURVE",
"464 217 CURVE SMOOTH",
"464 277 OFFCURVE",
"442.83 328.17 OFFCURVE",
"400.5 370.5 CURVE SMOOTH",
"358.17 412.83 OFFCURVE",
"307 434 OFFCURVE",
"247 434 CURVE SMOOTH",
"197 434 OFFCURVE",
"152.33 418.33 OFFCURVE",
"113 387 CURVE",
"113 579 LINE",
"30 579 LINE",
"30 0 LINE"
);
},
{
closed = 1;
nodes = (
"210.33 83 OFFCURVE",
"178.83 96.17 OFFCURVE",
"152.5 122.5 CURVE SMOOTH",
"126.17 148.83 OFFCURVE",
"113 180.33 OFFCURVE",
"113 217 CURVE SMOOTH",
"113 253.67 OFFCURVE",
"126.17 285.17 OFFCURVE",
"152.5 311.5 CURVE SMOOTH",
"178.83 337.83 OFFCURVE",
"210.33 351 OFFCURVE",
"247 351 CURVE SMOOTH",
"283.67 351 OFFCURVE",
"315.17 337.83 OFFCURVE",
"341.5 311.5 CURVE SMOOTH",
"367.83 285.17 OFFCURVE",
"381 253.67 OFFCURVE",
"381 217 CURVE SMOOTH",
"381 180.33 OFFCURVE",
"367.83 148.83 OFFCURVE",
"341.5 122.5 CURVE SMOOTH",
"315.17 96.17 OFFCURVE",
"283.67 83 OFFCURVE",
"247 83 CURVE SMOOTH"
);
}
);
width = 494;
}
);
note = b;
unicode = 0062;
},
{
glyphname = c;
lastChange = "2018-10-30 02:42:46 +0000";
layers = (
{
anchors = (
{
name = bottom;
position = "{216, 0}";
},
{
name = top;
position = "{247, 500}";
}
);
hints = (
{
horizontal = 1;
origin = "{0, 30}";
target = "{0, 37}";
type = Stem;
},
{
horizontal = 1;
origin = "{0, 18}";
target = "{0, 11}";
type = Stem;
},
{
origin = "{0, 24}";
target = "{0, 5}";
type = Stem;
}
);
layerId = "1B5A40BC-338C-4A9F-9FD4-89AE55A8ACCC";
paths = (
{
closed = 1;
nodes = (
"307 0 OFFCURVE",
"358 21.33 OFFCURVE",
"400 64 CURVE",
"342 122 LINE",
"315.33 96 OFFCURVE",
"283.67 83 OFFCURVE",
"247 83 CURVE SMOOTH",
"210.33 83 OFFCURVE",
"178.83 96.17 OFFCURVE",
"152.5 122.5 CURVE SMOOTH",
"126.17 148.83 OFFCURVE",
"113 180.33 OFFCURVE",
"113 217 CURVE SMOOTH",
"113 253.67 OFFCURVE",
"126.17 285.17 OFFCURVE",
"152.5 311.5 CURVE SMOOTH",
"178.83 337.83 OFFCURVE",
"210.33 351 OFFCURVE",
"247 351 CURVE SMOOTH",
"283.67 351 OFFCURVE",
"315.33 338 OFFCURVE",
"342 312 CURVE",
"400 370 LINE",
"358 412.67 OFFCURVE",
"307 434 OFFCURVE",
"247 434 CURVE SMOOTH",
"187 434 OFFCURVE",
"135.83 412.83 OFFCURVE",
"93.5 370.5 CURVE SMOOTH",
"51.17 328.17 OFFCURVE",
"30 277 OFFCURVE",
"30 217 CURVE SMOOTH",
"30 157 OFFCURVE",
"51.17 105.83 OFFCURVE",
"93.5 63.5 CURVE SMOOTH",
"135.83 21.17 OFFCURVE",
"187 0 OFFCURVE",
"247 0 CURVE SMOOTH"
);
}
);
width = 431;
}
);
note = c;
unicode = 0063;
},
{
glyphname = d;
lastChange = "2018-10-30 02:42:46 +0000";
layers = (
{
anchors = (
{
name = bottom;
position = "{247, 0}";
},
{
name = center;
position = "{247, 217}";
},
{
name = top;
position = "{247, 500}";
},
{
name = topright;
position = "{474, 434}";
}
);
hints = (
{
horizontal = 1;
origin = "{0, 16}";
target = "{1, 29}";
type = Stem;
},
{
horizontal = 1;
origin = "{0, 4}";
target = "{1, 11}";
type = Stem;
},
{
horizontal = 1;
origin = "{0, 0}";
target = down;
type = TopGhost;
},
{
origin = "{0, 10}";
target = "{1, 5}";
type = Stem;
},
{
origin = "{0, 20}";
target = "{0, 21}";
type = Stem;
}
);
layerId = "1B5A40BC-338C-4A9F-9FD4-89AE55A8ACCC";
paths = (
{
closed = 1;
nodes = (
"297 0 OFFCURVE",
"341.67 15.67 OFFCURVE",
"381 47 CURVE",
"381 0 LINE",
"464 0 LINE",
"464 579 LINE",
"381 579 LINE",
"381 387 LINE",
"341.67 418.33 OFFCURVE",
"297 434 OFFCURVE",
"247 434 CURVE SMOOTH",
"187 434 OFFCURVE",
"135.83 412.83 OFFCURVE",
"93.5 370.5 CURVE SMOOTH",
"51.17 328.17 OFFCURVE",
"30 277 OFFCURVE",
"30 217 CURVE SMOOTH",
"30 157 OFFCURVE",
"51.17 105.83 OFFCURVE",
"93.5 63.5 CURVE SMOOTH",
"135.83 21.17 OFFCURVE",
"187 0 OFFCURVE",
"247 0 CURVE SMOOTH"
);
},
{
closed = 1;
nodes = (
"210.33 83 OFFCURVE",
"178.83 96.17 OFFCURVE",
"152.5 122.5 CURVE SMOOTH",
"126.17 148.83 OFFCURVE",
"113 180.33 OFFCURVE",
"113 217 CURVE SMOOTH",
"113 253.67 OFFCURVE",
"126.17 285.17 OFFCURVE",
"152.5 311.5 CURVE SMOOTH",
"178.83 337.83 OFFCURVE",
"210.33 351 OFFCURVE",
"247 351 CURVE SMOOTH",
"265 351 OFFCURVE",
"282.33 347.5 OFFCURVE",
"299 340.5 CURVE SMOOTH",
"315.67 333.5 OFFCURVE",
"330 324 OFFCURVE",
"342 312 CURVE SMOOTH",
"354 300 OFFCURVE",
"363.5 285.67 OFFCURVE",
"370.5 269 CURVE SMOOTH",
"377.5 252.33 OFFCURVE",
"381 235 OFFCURVE",
"381 217 CURVE SMOOTH",
"381 180.33 OFFCURVE",
"367.83 148.83 OFFCURVE",
"341.5 122.5 CURVE SMOOTH",
"315.17 96.17 OFFCURVE",
"283.67 83 OFFCURVE",
"247 83 CURVE SMOOTH"
);
}
);
width = 494;
}
);
note = d;
unicode = 0064;
},
{
glyphname = e;
lastChange = "2018-10-30 02:42:46 +0000";
layers = (
{
anchors = (
{
name = bottom;
position = "{247, 0}";
},
{
name = ogonek;
position = "{445, 10}";
},
{
name = top;
position = "{247, 500}";
}
);
hints = (
{
horizontal = 1;
origin = "{0, 21}";
target = "{0, 28}";
type = Stem;
},
{
horizontal = 1;
origin = "{0, 37}";
target = "{1, 0}";
type = Stem;
},
{
horizontal = 1;
origin = "{0, 9}";
target = "{1, 6}";
type = Stem;
},
{
origin = "{0, 15}";
target = "{0, 3}";
type = Stem;
}
);
layerId = "1B5A40BC-338C-4A9F-9FD4-89AE55A8ACCC";
paths = (
{
closed = 1;
nodes = (
"295 0 OFFCURVE",
"338 14.33 OFFCURVE",
"376 43 CURVE",
"317 103 LINE",
"295.67 89.67 OFFCURVE",
"272.33 83 OFFCURVE",
"247 83 CURVE SMOOTH",
"227.67 83 OFFCURVE",
"209.5 86.83 OFFCURVE",
"192.5 94.5 CURVE SMOOTH",
"175.5 102.17 OFFCURVE",
"160.83 112.83 OFFCURVE",
"148.5 126.5 CURVE SMOOTH",
"136.17 140.17 OFFCURVE",
"127 155.67 OFFCURVE",
"121 173 CURVE",
"459 173 LINE",
"462.33 187.67 OFFCURVE",
"464 202.33 OFFCURVE",
"464 217 CURVE SMOOTH",
"464 277 OFFCURVE",
"442.83 328.17 OFFCURVE",
"400.5 370.5 CURVE SMOOTH",
"358.17 412.83 OFFCURVE",
"307 434 OFFCURVE",
"247 434 CURVE SMOOTH",
"187 434 OFFCURVE",
"135.83 412.83 OFFCURVE",
"93.5 370.5 CURVE SMOOTH",
"51.17 328.17 OFFCURVE",
"30 277 OFFCURVE",
"30 217 CURVE SMOOTH",
"30 157 OFFCURVE",
"51.17 105.83 OFFCURVE",
"93.5 63.5 CURVE SMOOTH",
"135.83 21.17 OFFCURVE",
"187 0 OFFCURVE",
"247 0 CURVE SMOOTH"
);
},
{
closed = 1;
nodes = (
"127 283 OFFCURVE",
"142.83 306 OFFCURVE",
"166.5 324 CURVE SMOOTH",
"190.17 342 OFFCURVE",
"217 351 OFFCURVE",
"247 351 CURVE SMOOTH",
"261.67 351 OFFCURVE",
"276 348.67 OFFCURVE",
"290 344 CURVE SMOOTH",
"304 339.33 OFFCURVE",
"316.5 332.67 OFFCURVE",
"327.5 324 CURVE SMOOTH",
"338.5 315.33 OFFCURVE",
"348.17 305.17 OFFCURVE",
"356.5 293.5 CURVE SMOOTH",
"364.83 281.83 OFFCURVE",
"371 269 OFFCURVE",
"375 255 CURVE",
"119 255 LINE"
);
}
);
width = 494;
}
);
note = e;
unicode = 0065;
},
{
glyphname = f;
lastChange = "2018-10-30 02:42:46 +0000";
layers = (
{
anchors = (
{
name = bottom;
position = "{155, 0}";
},
{
name = top;
position = "{155, 799}";
}
);
hints = (
{
horizontal = 1;
origin = "{0, 37}";
target = up;
type = BottomGhost;
},
{
horizontal = 1;
origin = "{0, 35}";
target = "{0, 34}";
type = Stem;
},
{
horizontal = 1;
origin = "{0, 9}";
target = "{0, 25}";
type = Stem;
},
{
origin = "{0, 37}";
target = "{0, 38}";
type = Stem;
}
);
layerId = "1B5A40BC-338C-4A9F-9FD4-89AE55A8ACCC";
paths = (
{
closed = 1;
nodes = (
"185 0 LINE",
"185 393 LINE",
"319 393 LINE",
"319 475 LINE",
"185 475 LINE",
"185 568 LINE",
"185 569 LINE",
"185 579 LINE",
"186 579 LINE",
"188 590.33 OFFCURVE",
"192.33 600.67 OFFCURVE",
"199 610 CURVE SMOOTH",
"205.67 619.33 OFFCURVE",
"214.17 626.67 OFFCURVE",
"224.5 632 CURVE SMOOTH",
"234.83 637.33 OFFCURVE",
"245.67 640 OFFCURVE",
"257 640 CURVE SMOOTH",
"275 640 OFFCURVE",
"290.83 634.17 OFFCURVE",
"304.5 622.5 CURVE SMOOTH",
"318.17 610.83 OFFCURVE",
"326.33 596.33 OFFCURVE",
"329 579 CURVE",
"412 579 LINE",
"410 605.67 OFFCURVE",
"402 630 OFFCURVE",
"388 652 CURVE SMOOTH",
"374 674 OFFCURVE",
"355.5 691.33 OFFCURVE",
"332.5 704 CURVE SMOOTH",
"309.5 716.67 OFFCURVE",
"284.33 723 OFFCURVE",
"257 723 CURVE SMOOTH",
"216.33 723 OFFCURVE",
"181.17 709 OFFCURVE",
"151.5 681 CURVE SMOOTH",
"121.83 653 OFFCURVE",
"105.67 619 OFFCURVE",
"103 579 CURVE",
"102 579 LINE",
"102 475 LINE",
"30 475 LINE",
"30 393 LINE",
"102 393 LINE",
"102 0 LINE"
);
}
);
width = 309;
}
);
note = f;
unicode = 0066;
},
{
glyphname = g;
lastChange = "2018-10-30 02:42:46 +0000";
layers = (
{
anchors = (
{
name = bottom;
position = "{247, -289}";
},
{
name = top;
position = "{247, 434}";
}
);
layerId = "1B5A40BC-338C-4A9F-9FD4-89AE55A8ACCC";
paths = (
{
closed = 1;
nodes = (
"307 -289 OFFCURVE",
"358.17 -267.83 OFFCURVE",
"400.5 -225.5 CURVE SMOOTH",
"442.83 -183.17 OFFCURVE",
"464 -132 OFFCURVE",
"464 -72 CURVE SMOOTH",
"464 217 LINE SMOOTH",
"464 277 OFFCURVE",
"442.83 328.17 OFFCURVE",
"400.5 370.5 CURVE SMOOTH",
"358.17 412.83 OFFCURVE",
"307 434 OFFCURVE",
"247 434 CURVE SMOOTH",
"187 434 OFFCURVE",
"135.83 412.83 OFFCURVE",
"93.5 370.5 CURVE SMOOTH",
"51.17 328.17 OFFCURVE",
"30 277 OFFCURVE",
"30 217 CURVE SMOOTH",
"30 157 OFFCURVE",
"51.17 105.83 OFFCURVE",
"93.5 63.5 CURVE SMOOTH",
"135.83 21.17 OFFCURVE",
"187 0 OFFCURVE",
"247 0 CURVE SMOOTH",
"296.33 0 OFFCURVE",
"341 15.67 OFFCURVE",
"381 47 CURVE",
"381 -72 LINE SMOOTH",
"381 -109.33 OFFCURVE",
"367.83 -141 OFFCURVE",
"341.5 -167 CURVE SMOOTH",
"315.17 -193 OFFCURVE",
"283.67 -206 OFFCURVE",
"247 -206 CURVE SMOOTH",
"210.33 -206 OFFCURVE",
"178.83 -193 OFFCURVE",
"152.5 -167 CURVE SMOOTH",
"126.17 -141 OFFCURVE",
"113 -109.33 OFFCURVE",
"113 -72 CURVE",
"30 -72 LINE",
"30 -132 OFFCURVE",
"51.17 -183.17 OFFCURVE",
"93.5 -225.5 CURVE SMOOTH",
"135.83 -267.83 OFFCURVE",
"187 -289 OFFCURVE",
"247 -289 CURVE SMOOTH"
);
},
{
closed = 1;
nodes = (
"210.33 83 OFFCURVE",
"178.83 96.17 OFFCURVE",
"152.5 122.5 CURVE SMOOTH",
"126.17 148.83 OFFCURVE",
"113 180.33 OFFCURVE",
"113 217 CURVE SMOOTH",
"113 253.67 OFFCURVE",
"126.17 285.17 OFFCURVE",
"152.5 311.5 CURVE SMOOTH",
"178.83 337.83 OFFCURVE",
"210.33 351 OFFCURVE",
"247 351 CURVE SMOOTH",
"283.67 351 OFFCURVE",
"315.17 337.83 OFFCURVE",
"341.5 311.5 CURVE SMOOTH",
"367.83 285.17 OFFCURVE",
"381 253.67 OFFCURVE",
"381 217 CURVE SMOOTH",
"381 180.33 OFFCURVE",
"367.83 148.83 OFFCURVE",
"341.5 122.5 CURVE SMOOTH",
"315.17 96.17 OFFCURVE",
"283.67 83 OFFCURVE",
"247 83 CURVE SMOOTH"
);
}
);
width = 494;
}
);
note = g;
unicode = 0067;
},
{
glyphname = h;
lastChange = "2018-10-30 02:42:46 +0000";
layers = (
{
anchors = (
{
name = bottom;
position = "{248, 0}";
},
{
name = center;
position = "{248, 400}";
},
{
name = top;
position = "{248, 799}";
}
);
layerId = "1B5A40BC-338C-4A9F-9FD4-89AE55A8ACCC";
paths = (
{
closed = 1;
nodes = (
"113 0 LINE",
"113 217 LINE SMOOTH",
"113 253.67 OFFCURVE",
"126.17 285.17 OFFCURVE",
"152.5 311.5 CURVE SMOOTH",
"178.83 337.83 OFFCURVE",
"210.33 351 OFFCURVE",
"247 351 CURVE SMOOTH",
"283.67 351 OFFCURVE",
"315.17 337.83 OFFCURVE",
"341.5 311.5 CURVE SMOOTH",
"367.83 285.17 OFFCURVE",
"381 253.67 OFFCURVE",
"381 217 CURVE SMOOTH",
"381 0 LINE",
"464 0 LINE",
"464 217 LINE SMOOTH",
"464 277 OFFCURVE",
"442.83 328.17 OFFCURVE",
"400.5 370.5 CURVE SMOOTH",
"358.17 412.83 OFFCURVE",
"307 434 OFFCURVE",
"247 434 CURVE SMOOTH",
"197 434 OFFCURVE",
"152.33 418.33 OFFCURVE",
"113 387 CURVE",
"113 579 LINE",
"30 579 LINE",
"30 0 LINE"
);
}
);
width = 495;
}
);
note = h;
unicode = 0068;
},
{
glyphname = i;
lastChange = "2018-10-30 02:12:43 +0000";
layers = (
{
anchors = (
{
name = bottom;
position = "{72, 0}";
}
);
layerId = "1B5A40BC-338C-4A9F-9FD4-89AE55A8ACCC";
paths = (
{
closed = 1;
nodes = (
"113 0 LINE",
"113 434 LINE",
"30 434 LINE",
"30 0 LINE"
);
},
{
closed = 1;
nodes = (
"79 496 OFFCURVE",
"86.17 497.83 OFFCURVE",
"92.5 501.5 CURVE SMOOTH",
"98.83 505.17 OFFCURVE",
"103.83 510.17 OFFCURVE",
"107.5 516.5 CURVE SMOOTH",
"111.17 522.83 OFFCURVE",
"113 529.67 OFFCURVE",
"113 537 CURVE SMOOTH",
"113 548.33 OFFCURVE",
"109 558.17 OFFCURVE",
"101 566.5 CURVE SMOOTH",
"93 574.83 OFFCURVE",
"83.17 579 OFFCURVE",
"71.5 579 CURVE SMOOTH",
"59.83 579 OFFCURVE",
"50 574.83 OFFCURVE",
"42 566.5 CURVE SMOOTH",
"34 558.17 OFFCURVE",
"30 548.33 OFFCURVE",
"30 537 CURVE SMOOTH",
"30 525.67 OFFCURVE",
"34 516 OFFCURVE",
"42 508 CURVE SMOOTH",
"50 500 OFFCURVE",
"59.67 496 OFFCURVE",
"71 496 CURVE SMOOTH"
);
}
);
width = 143;
}
);
note = i;
unicode = 0069;
},
{
glyphname = j;
lastChange = "2018-10-30 02:42:46 +0000";
layers = (
{
layerId = "1B5A40BC-338C-4A9F-9FD4-89AE55A8ACCC";
paths = (
{
closed = 1;
nodes = (
"76.67 -87.33 OFFCURVE",
"114.17 -52.17 OFFCURVE",
"142.5 -6.5 CURVE SMOOTH",
"170.83 39.17 OFFCURVE",
"185 89.67 OFFCURVE",
"185 145 CURVE SMOOTH",
"185 434 LINE",
"102 434 LINE",
"102 145 LINE SMOOTH",
"102 81.67 OFFCURVE",
"78 29.33 OFFCURVE",
"30 -12 CURVE",
"30 -112 LINE"
);
},
{
closed = 1;
nodes = (
"155.33 496 OFFCURVE",
"165 500 OFFCURVE",
"173 508 CURVE SMOOTH",
"181 516 OFFCURVE",
"185 525.67 OFFCURVE",
"185 537 CURVE SMOOTH",
"185 544.33 OFFCURVE",
"183.17 551.33 OFFCURVE",
"179.5 558 CURVE SMOOTH",
"175.83 564.67 OFFCURVE",
"170.83 569.83 OFFCURVE",
"164.5 573.5 CURVE SMOOTH",
"158.17 577.17 OFFCURVE",
"151.33 579 OFFCURVE",
"144 579 CURVE SMOOTH",
"138 579 OFFCURVE",
"132.5 577.83 OFFCURVE",
"127.5 575.5 CURVE SMOOTH",
"122.5 573.17 OFFCURVE",
"118.17 570.17 OFFCURVE",
"114.5 566.5 CURVE SMOOTH",
"110.83 562.83 OFFCURVE",
"107.83 558.5 OFFCURVE",
"105.5 553.5 CURVE SMOOTH",
"103.17 548.5 OFFCURVE",
"102 543 OFFCURVE",
"102 537 CURVE SMOOTH",
"102 525.67 OFFCURVE",
"106.17 516 OFFCURVE",
"114.5 508 CURVE SMOOTH",
"122.83 500 OFFCURVE",
"132.67 496 OFFCURVE",
"144 496 CURVE SMOOTH"
);
}
);
width = 216;
}
);
note = j;
unicode = 006A;
},
{
glyphname = k;
lastChange = "2018-10-30 02:42:46 +0000";
layers = (
{
anchors = (
{
name = bottom;
position = "{207, 0}";
},
{
name = top;
position = "{207, 799}";
}
);
layerId = "1B5A40BC-338C-4A9F-9FD4-89AE55A8ACCC";
paths = (
{
closed = 1;
nodes = (
"113 0 LINE",
"113 125 LINE",
"255 0 LINE",
"381 0 LINE",
"134 216 LINE",
"382 433 LINE",
"256 433 LINE",
"113 308 LINE",
"113 578 LINE",
"30 578 LINE",
"30 0 LINE"
);
}
);
width = 413;
}
);
note = k;
unicode = 006B;
},
{
glyphname = l;
lastChange = "2018-10-30 02:12:43 +0000";
layers = (
{
anchors = (
{
name = bottom;
position = "{72, 0}";
},
{
name = center;
position = "{72, 400}";
},
{
name = top;
position = "{72, 799}";
},
{
name = topright;
position = "{123, 799}";
}
);
layerId = "1B5A40BC-338C-4A9F-9FD4-89AE55A8ACCC";
paths = (
{
closed = 1;
nodes = (
"113 0 LINE",
"113 579 LINE",
"30 579 LINE",
"30 0 LINE"
);
}
);
width = 143;
}
);
note = l;
unicode = 006C;
},
{
glyphname = m;
lastChange = "2018-10-30 02:42:46 +0000";
layers = (
{
anchors = (
{
name = bottom;
position = "{423, 0}";
},
{
name = top;
position = "{423, 434}";
}
);
layerId = "1B5A40BC-338C-4A9F-9FD4-89AE55A8ACCC";
paths = (
{
closed = 1;
nodes = (
"113 0 LINE",
"113 217 LINE SMOOTH",
"113 253.67 OFFCURVE",
"126.17 285.17 OFFCURVE",
"152.5 311.5 CURVE SMOOTH",
"178.83 337.83 OFFCURVE",
"210.33 351 OFFCURVE",
"247 351 CURVE SMOOTH",
"283.67 351 OFFCURVE",
"315.17 338 OFFCURVE",
"341.5 312 CURVE SMOOTH",
"367.83 286 OFFCURVE",
"381 254.67 OFFCURVE",
"381 218 CURVE SMOOTH",
"381 217 LINE",
"381 217 LINE",
"381 0 LINE",
"464 0 LINE",
"464 217 LINE",
"464 218 LINE SMOOTH",
"464 242 OFFCURVE",
"470 264.17 OFFCURVE",
"482 284.5 CURVE SMOOTH",
"494 304.83 OFFCURVE",
"510.33 321 OFFCURVE",
"531 333 CURVE SMOOTH",
"551.67 345 OFFCURVE",
"574 351 OFFCURVE",
"598 351 CURVE SMOOTH",
"622 351 OFFCURVE",
"644.33 345 OFFCURVE",
"665 333 CURVE SMOOTH",
"685.67 321 OFFCURVE",
"702 304.67 OFFCURVE",
"714 284 CURVE SMOOTH",
"726 263.33 OFFCURVE",
"732 241 OFFCURVE",
"732 217 CURVE SMOOTH",
"732 0 LINE",
"815 0 LINE",
"815 217 LINE SMOOTH",
"815 256.33 OFFCURVE",
"805.33 292.67 OFFCURVE",
"786 326 CURVE SMOOTH",
"766.67 359.33 OFFCURVE",
"740.33 385.67 OFFCURVE",
"707 405 CURVE SMOOTH",
"673.67 424.33 OFFCURVE",
"637.33 434 OFFCURVE",
"598 434 CURVE SMOOTH",
"562.67 434 OFFCURVE",
"529.67 426 OFFCURVE",
"499 410 CURVE SMOOTH",
"468.33 394 OFFCURVE",
"442.67 372 OFFCURVE",
"422 344 CURVE",
"414.67 355.33 OFFCURVE",
"406 365.5 OFFCURVE",
"396 374.5 CURVE SMOOTH",
"386 383.5 OFFCURVE",
"375.33 391.67 OFFCURVE",
"364 399 CURVE SMOOTH",
"352.67 406.33 OFFCURVE",
"340.83 412.67 OFFCURVE",
"328.5 418 CURVE SMOOTH",
"316.17 423.33 OFFCURVE",
"303 427.33 OFFCURVE",
"289 430 CURVE SMOOTH",
"275 432.67 OFFCURVE",
"261 434 OFFCURVE",
"247 434 CURVE SMOOTH",
"187 434 OFFCURVE",
"135.83 412.83 OFFCURVE",
"93.5 370.5 CURVE SMOOTH",
"51.17 328.17 OFFCURVE",
"30 277 OFFCURVE",
"30 217 CURVE SMOOTH",
"30 0 LINE"
);
}
);
width = 846;
}
);
note = m;
unicode = 006D;
},
{
glyphname = n;
lastChange = "2018-10-30 02:42:46 +0000";
layers = (
{
anchors = (
{
name = bottom;
position = "{248, 0}";
},
{
name = top;
position = "{248, 434}";
}
);
layerId = "1B5A40BC-338C-4A9F-9FD4-89AE55A8ACCC";
paths = (
{
closed = 1;
nodes = (
"113 0 LINE",
"113 217 LINE SMOOTH",
"113 253.67 OFFCURVE",
"126.17 285.17 OFFCURVE",
"152.5 311.5 CURVE SMOOTH",
"178.83 337.83 OFFCURVE",
"210.33 351 OFFCURVE",
"247 351 CURVE SMOOTH",
"283.67 351 OFFCURVE",
"315.17 337.83 OFFCURVE",
"341.5 311.5 CURVE SMOOTH",
"367.83 285.17 OFFCURVE",
"381 253.67 OFFCURVE",
"381 217 CURVE SMOOTH",
"381 0 LINE",
"464 0 LINE",
"464 217 LINE SMOOTH",
"464 256.33 OFFCURVE",
"454.33 292.67 OFFCURVE",
"435 326 CURVE SMOOTH",
"415.67 359.33 OFFCURVE",
"389.33 385.67 OFFCURVE",
"356 405 CURVE SMOOTH",
"322.67 424.33 OFFCURVE",
"286.33 434 OFFCURVE",
"247 434 CURVE SMOOTH",
"187 434 OFFCURVE",
"135.83 412.83 OFFCURVE",
"93.5 370.5 CURVE SMOOTH",
"51.17 328.17 OFFCURVE",
"30 277 OFFCURVE",
"30 217 CURVE SMOOTH",
"30 0 LINE"
);
}
);
width = 495;
}
);
note = n;
unicode = 006E;
},
{
glyphname = o;
lastChange = "2018-10-30 02:42:46 +0000";
layers = (
{
anchors = (
{
name = bottom;
position = "{247, 0}";
},
{
name = center;
position = "{247, 217}";
},
{
name = ogonek;
position = "{445, 10}";
},
{
name = top;
position = "{247, 434}";
},
{
name = topright;
position = "{474, 434}";
}
);
layerId = "1B5A40BC-338C-4A9F-9FD4-89AE55A8ACCC";
paths = (
{
closed = 1;
nodes = (
"307 0 OFFCURVE",
"358.17 21.17 OFFCURVE",
"400.5 63.5 CURVE SMOOTH",
"442.83 105.83 OFFCURVE",
"464 157 OFFCURVE",
"464 217 CURVE SMOOTH",
"464 277 OFFCURVE",
"442.83 328.17 OFFCURVE",
"400.5 370.5 CURVE SMOOTH",
"358.17 412.83 OFFCURVE",
"307 434 OFFCURVE",
"247 434 CURVE SMOOTH",
"187 434 OFFCURVE",
"135.83 412.83 OFFCURVE",
"93.5 370.5 CURVE SMOOTH",
"51.17 328.17 OFFCURVE",
"30 277 OFFCURVE",
"30 217 CURVE SMOOTH",
"30 157 OFFCURVE",
"51.17 105.83 OFFCURVE",
"93.5 63.5 CURVE SMOOTH",
"135.83 21.17 OFFCURVE",
"187 0 OFFCURVE",
"247 0 CURVE SMOOTH"
);
},
{
closed = 1;
nodes = (
"210.33 83 OFFCURVE",
"178.83 96.17 OFFCURVE",
"152.5 122.5 CURVE SMOOTH",
"126.17 148.83 OFFCURVE",
"113 180.33 OFFCURVE",
"113 217 CURVE SMOOTH",
"113 253.67 OFFCURVE",
"126.17 285.17 OFFCURVE",
"152.5 311.5 CURVE SMOOTH",
"178.83 337.83 OFFCURVE",
"210.33 351 OFFCURVE",
"247 351 CURVE SMOOTH",
"283.67 351 OFFCURVE",
"315.17 337.83 OFFCURVE",
"341.5 311.5 CURVE SMOOTH",
"367.83 285.17 OFFCURVE",
"381 253.67 OFFCURVE",
"381 217 CURVE SMOOTH",
"381 180.33 OFFCURVE",
"367.83 148.83 OFFCURVE",
"341.5 122.5 CURVE SMOOTH",
"315.17 96.17 OFFCURVE",
"283.67 83 OFFCURVE",
"247 83 CURVE SMOOTH"
);
}
);
width = 494;
}
);
note = o;
unicode = 006F;
},
{
glyphname = p;
lastChange = "2018-10-30 02:42:46 +0000";
layers = (
{
anchors = (
{
name = bottom;
position = "{247, 0}";
},
{
name = top;
position = "{247, 434}";
}
);
layerId = "1B5A40BC-338C-4A9F-9FD4-89AE55A8ACCC";
paths = (
{
closed = 1;
nodes = (
"113 -289 LINE",
"113 47 LINE",
"152.33 15.67 OFFCURVE",
"197 0 OFFCURVE",
"247 0 CURVE SMOOTH",
"307 0 OFFCURVE",
"358.17 21.17 OFFCURVE",
"400.5 63.5 CURVE SMOOTH",
"442.83 105.83 OFFCURVE",
"464 157 OFFCURVE",
"464 217 CURVE SMOOTH",
"464 256.33 OFFCURVE",
"454.33 292.67 OFFCURVE",
"435 326 CURVE SMOOTH",
"415.67 359.33 OFFCURVE",
"389.33 385.67 OFFCURVE",
"356 405 CURVE SMOOTH",
"322.67 424.33 OFFCURVE",
"286.33 434 OFFCURVE",
"247 434 CURVE SMOOTH",
"187 434 OFFCURVE",
"135.83 412.83 OFFCURVE",
"93.5 370.5 CURVE SMOOTH",
"51.17 328.17 OFFCURVE",
"30 277 OFFCURVE",
"30 217 CURVE SMOOTH",
"30 -289 LINE"
);
},
{
closed = 1;
nodes = (
"210.33 83 OFFCURVE",
"178.83 96.17 OFFCURVE",
"152.5 122.5 CURVE SMOOTH",
"126.17 148.83 OFFCURVE",
"113 180.33 OFFCURVE",
"113 217 CURVE SMOOTH",
"113 253.67 OFFCURVE",
"126.17 285.17 OFFCURVE",
"152.5 311.5 CURVE SMOOTH",
"178.83 337.83 OFFCURVE",
"210.33 351 OFFCURVE",
"247 351 CURVE SMOOTH",
"265 351 OFFCURVE",
"282.33 347.5 OFFCURVE",
"299 340.5 CURVE SMOOTH",
"315.67 333.5 OFFCURVE",
"330 324 OFFCURVE",
"342 312 CURVE SMOOTH",
"354 300 OFFCURVE",
"363.5 285.67 OFFCURVE",
"370.5 269 CURVE SMOOTH",
"377.5 252.33 OFFCURVE",
"381 235 OFFCURVE",
"381 217 CURVE SMOOTH",
"381 180.33 OFFCURVE",
"367.83 148.83 OFFCURVE",
"341.5 122.5 CURVE SMOOTH",
"315.17 96.17 OFFCURVE",
"283.67 83 OFFCURVE",
"247 83 CURVE SMOOTH"
);
}
);
width = 494;
}
);
note = p;
unicode = 0070;
},
{
glyphname = q;
lastChange = "2018-10-30 02:42:46 +0000";
layers = (
{
anchors = (
{
name = bottom;
position = "{247, 0}";
},
{
name = top;
position = "{247, 434}";
}
);
layerId = "1B5A40BC-338C-4A9F-9FD4-89AE55A8ACCC";
paths = (
{
closed = 1;
nodes = (
"464 -289 LINE",
"464 217 LINE SMOOTH",
"464 277 OFFCURVE",
"442.83 328.17 OFFCURVE",
"400.5 370.5 CURVE SMOOTH",
"358.17 412.83 OFFCURVE",
"307 434 OFFCURVE",
"247 434 CURVE SMOOTH",
"187 434 OFFCURVE",
"135.83 412.83 OFFCURVE",
"93.5 370.5 CURVE SMOOTH",
"51.17 328.17 OFFCURVE",
"30 277 OFFCURVE",
"30 217 CURVE SMOOTH",
"30 157 OFFCURVE",
"51.17 105.83 OFFCURVE",
"93.5 63.5 CURVE SMOOTH",
"135.83 21.17 OFFCURVE",
"187 0 OFFCURVE",
"247 0 CURVE SMOOTH",
"297 0 OFFCURVE",
"341.67 15.67 OFFCURVE",
"381 47 CURVE",
"381 -289 LINE"
);
},
{
closed = 1;
nodes = (
"223 83 OFFCURVE",
"200.67 89 OFFCURVE",
"180 101 CURVE SMOOTH",
"159.33 113 OFFCURVE",
"143 129.33 OFFCURVE",
"131 150 CURVE SMOOTH",
"119 170.67 OFFCURVE",
"113 193 OFFCURVE",
"113 217 CURVE SMOOTH",
"113 253.67 OFFCURVE",
"126.17 285.17 OFFCURVE",
"152.5 311.5 CURVE SMOOTH",
"178.83 337.83 OFFCURVE",
"210.33 351 OFFCURVE",
"247 351 CURVE SMOOTH",
"283.67 351 OFFCURVE",
"315.17 337.83 OFFCURVE",
"341.5 311.5 CURVE SMOOTH",
"367.83 285.17 OFFCURVE",
"381 253.67 OFFCURVE",
"381 217 CURVE SMOOTH",
"381 180.33 OFFCURVE",
"367.83 148.83 OFFCURVE",
"341.5 122.5 CURVE SMOOTH",
"315.17 96.17 OFFCURVE",
"283.67 83 OFFCURVE",
"247 83 CURVE SMOOTH"
);
}
);
width = 494;
}
);
note = q;
unicode = 0071;
},
{
glyphname = r;
lastChange = "2018-10-30 02:42:46 +0000";
layers = (
{
anchors = (
{
name = bottom;
position = "{103, 0}";
},
{
name = top;
position = "{103, 434}";
}
);
layerId = "1B5A40BC-338C-4A9F-9FD4-89AE55A8ACCC";
paths = (
{
closed = 1;
nodes = (
"113 0 LINE",
"113 103 LINE",
"113 252 LINE",
"113 253 LINE",
"113 255 LINE",
"113 257 LINE",
"113 258 LINE",
"113 259 LINE SMOOTH",
"113.67 278.33 OFFCURVE",
"119.67 295.83 OFFCURVE",
"131 311.5 CURVE SMOOTH",
"142.33 327.17 OFFCURVE",
"157 338.67 OFFCURVE",
"175 346 CURVE",
"175 432 LINE",
"147.67 426.67 OFFCURVE",
"123 415.5 OFFCURVE",
"101 398.5 CURVE SMOOTH",
"79 381.5 OFFCURVE",
"61.67 360.5 OFFCURVE",
"49 335.5 CURVE SMOOTH",
"36.33 310.5 OFFCURVE",
"30 283.67 OFFCURVE",
"30 255 CURVE SMOOTH",
"30 0 LINE"
);
}
);
width = 205;
}
);
note = r;
unicode = 0072;
},
{
glyphname = s;
lastChange = "2018-10-30 02:42:46 +0000";
layers = (
{
anchors = (
{
name = bottom;
position = "{160, 0}";
},
{
name = top;
position = "{160, 434}";
}
);
layerId = "1B5A40BC-338C-4A9F-9FD4-89AE55A8ACCC";
paths = (
{
closed = 1;
nodes = (
"195.17 0 OFFCURVE",
"225.67 12.67 OFFCURVE",
"251 38 CURVE SMOOTH",
"276.33 63.33 OFFCURVE",
"289 93.83 OFFCURVE",
"289 129.5 CURVE SMOOTH",
"289 165.17 OFFCURVE",
"276.33 195.67 OFFCURVE",
"251 221 CURVE SMOOTH",
"225.67 246.33 OFFCURVE",
"195 259 OFFCURVE",
"159 259 CURVE",
"159 258 LINE",
"146.33 258 OFFCURVE",
"135.5 262.5 OFFCURVE",
"126.5 271.5 CURVE SMOOTH",
"117.5 280.5 OFFCURVE",
"113 291.5 OFFCURVE",
"113 304.5 CURVE SMOOTH",
"113 317.5 OFFCURVE",
"117.5 328.5 OFFCURVE",
"126.5 337.5 CURVE SMOOTH",
"135.5 346.5 OFFCURVE",
"146.5 351 OFFCURVE",
"159.5 351 CURVE SMOOTH",
"172.5 351 OFFCURVE",
"183.5 346.5 OFFCURVE",
"192.5 337.5 CURVE SMOOTH",
"201.5 328.5 OFFCURVE",
"206 317.67 OFFCURVE",
"206 305 CURVE",
"289 305 LINE",
"289 322.33 OFFCURVE",
"285.5 339 OFFCURVE",
"278.5 355 CURVE SMOOTH",
"271.5 371 OFFCURVE",
"262.33 384.67 OFFCURVE",
"251 396 CURVE SMOOTH",
"239.67 407.33 OFFCURVE",
"226 416.5 OFFCURVE",
"210 423.5 CURVE SMOOTH",
"194 430.5 OFFCURVE",
"177 434 OFFCURVE",
"159 434 CURVE SMOOTH",
"123.67 434 OFFCURVE",
"93.33 421.33 OFFCURVE",
"68 396 CURVE SMOOTH",
"42.67 370.67 OFFCURVE",
"30 340.33 OFFCURVE",
"30 305 CURVE SMOOTH",
"30 281 OFFCURVE",
"35.83 259.17 OFFCURVE",
"47.5 239.5 CURVE SMOOTH",
"59.17 219.83 OFFCURVE",
"74.83 204.17 OFFCURVE",
"94.5 192.5 CURVE SMOOTH",
"114.17 180.83 OFFCURVE",
"135.67 175 OFFCURVE",
"159 175 CURVE",
"159 176 LINE",
"172.33 176 OFFCURVE",
"183.5 171.5 OFFCURVE",
"192.5 162.5 CURVE SMOOTH",
"201.5 153.5 OFFCURVE",
"206 142.33 OFFCURVE",
"206 129 CURVE SMOOTH",
"206 121 OFFCURVE",
"203.83 113.33 OFFCURVE",
"199.5 106 CURVE SMOOTH",
"195.17 98.67 OFFCURVE",
"189.5 93 OFFCURVE",
"182.5 89 CURVE SMOOTH",
"175.5 85 OFFCURVE",
"167.67 83 OFFCURVE",
"159 83 CURVE SMOOTH",
"146.33 83 OFFCURVE",
"135.5 87.5 OFFCURVE",
"126.5 96.5 CURVE SMOOTH",
"117.5 105.5 OFFCURVE",
"113 116.33 OFFCURVE",
"113 129 CURVE",
"30 129 LINE",
"30 93.67 OFFCURVE",
"42.67 63.33 OFFCURVE",
"68 38 CURVE SMOOTH",
"93.33 12.67 OFFCURVE",
"123.83 0 OFFCURVE",
"159.5 0 CURVE SMOOTH"
);
}
);
width = 319;
}
);
note = s;
unicode = 0073;
},
{
glyphname = t;
lastChange = "2018-10-30 02:42:46 +0000";
layers = (
{
anchors = (
{
name = bottom;
position = "{175, 0}";
},
{
name = center;
position = "{175, 217}";
},
{
name = top;
position = "{175, 434}";
},
{
name = topright;
position = "{330, 434}";
}
);
layerId = "1B5A40BC-338C-4A9F-9FD4-89AE55A8ACCC";
paths = (
{
closed = 1;
nodes = (
"216 0 LINE",
"216 351 LINE",
"319 351 LINE",
"319 434 LINE",
"216 434 LINE",
"216 579 LINE",
"133 579 LINE",
"133 434 LINE",
"30 434 LINE",
"30 351 LINE",
"132 351 LINE",
"132 0 LINE"
);
}
);
width = 350;
}
);
note = t;
unicode = 0074;
},
{
glyphname = u;
lastChange = "2018-10-30 02:42:46 +0000";
layers = (
{
anchors = (
{
name = bottom;
position = "{247, 0}";
},
{
name = ogonek;
position = "{445, 10}";
},
{
name = top;
position = "{247, 434}";
},
{
name = topright;
position = "{474, 434}";
}
);
layerId = "1B5A40BC-338C-4A9F-9FD4-89AE55A8ACCC";
paths = (
{
closed = 1;
nodes = (
"307 0 OFFCURVE",
"358.17 21.17 OFFCURVE",
"400.5 63.5 CURVE SMOOTH",
"442.83 105.83 OFFCURVE",
"464 157 OFFCURVE",
"464 217 CURVE SMOOTH",
"464 434 LINE",
"381 434 LINE",
"381 217 LINE SMOOTH",
"381 180.33 OFFCURVE",
"367.83 148.83 OFFCURVE",
"341.5 122.5 CURVE SMOOTH",
"315.17 96.17 OFFCURVE",
"283.67 83 OFFCURVE",
"247 83 CURVE SMOOTH",
"223 83 OFFCURVE",
"200.67 89 OFFCURVE",
"180 101 CURVE SMOOTH",
"159.33 113 OFFCURVE",
"143 129.33 OFFCURVE",
"131 150 CURVE SMOOTH",
"119 170.67 OFFCURVE",
"113 193 OFFCURVE",
"113 217 CURVE SMOOTH",
"113 434 LINE",
"30 434 LINE",
"30 217 LINE SMOOTH",
"30 157 OFFCURVE",
"51.17 105.83 OFFCURVE",
"93.5 63.5 CURVE SMOOTH",
"135.83 21.17 OFFCURVE",
"187 0 OFFCURVE",
"247 0 CURVE SMOOTH"
);
}
);
width = 494;
}
);
note = u;
unicode = 0075;
},
{
glyphname = v;
lastChange = "2018-10-30 02:42:46 +0000";
layers = (
{
anchors = (
{
name = bottom;
position = "{226, 0}";
},
{
name = top;
position = "{226, 434}";
}
);
layerId = "1B5A40BC-338C-4A9F-9FD4-89AE55A8ACCC";
paths = (
{
closed = 1;
nodes = (
"420 434 LINE",
"328 434 LINE",
"207 188 LINE",
"86 434 LINE",
"-6 434 LINE",
"207 0 LINE"
);
}
);
width = 451;
}
);
note = v;
unicode = 0076;
},
{
glyphname = w;
lastChange = "2018-10-30 02:42:46 +0000";
layers = (
{
anchors = (
{
name = bottom;
position = "{364, 0}";
},
{
name = top;
position = "{364, 434}";
}
);
layerId = "1B5A40BC-338C-4A9F-9FD4-89AE55A8ACCC";
paths = (
{
closed = 1;
nodes = (
"364 246 LINE",
"484 0 LINE",
"698 434 LINE",
"605 434 LINE",
"484 188 LINE",
"410 340 LINE",
"364 434 LINE",
"318 340 LINE",
"288 279 LINE",
"243 188 LINE",
"122 434 LINE",
"30 434 LINE",
"243 0 LINE"
);
}
);
width = 728;
}
);
note = w;
unicode = 0077;
},
{
glyphname = x;
lastChange = "2018-10-30 02:42:46 +0000";
layers = (
{
anchors = (
{
name = bottom;
position = "{225, 0}";
},
{
name = top;
position = "{225, 434}";
}
);
layerId = "1B5A40BC-338C-4A9F-9FD4-89AE55A8ACCC";
paths = (
{
closed = 1;
nodes = (
"130 0 LINE",
"224 142 LINE",
"319 0 LINE",
"419 0 LINE",
"274 217 LINE",
"419 434 LINE",
"319 434 LINE",
"224 292 LINE",
"130 434 LINE",
"30 434 LINE",
"175 217 LINE",
"30 0 LINE"
);
}
);
width = 449;
}
);
note = x;
unicode = 0078;
},
{
glyphname = y;
lastChange = "2018-10-30 02:42:46 +0000";
layers = (
{
anchors = (
{
name = bottom;
position = "{222, 0}";
},
{
name = top;
position = "{222, 434}";
}
);
layerId = "1B5A40BC-338C-4A9F-9FD4-89AE55A8ACCC";
paths = (
{
closed = 1;
nodes = (
"123 -145 LINE",
"412 434 LINE",
"319 434 LINE",
"221 237 LINE",
"123 434 LINE",
"30 434 LINE",
"175 145 LINE",
"30 -145 LINE"
);
}
);
width = 443;
}
);
note = y;
unicode = 0079;
},
{
glyphname = z;
lastChange = "2018-10-30 02:42:46 +0000";
layers = (
{
anchors = (
{
name = bottom;
position = "{176, 0}";
},
{
name = top;
position = "{176, 434}";
}
);
layerId = "1B5A40BC-338C-4A9F-9FD4-89AE55A8ACCC";
paths = (
{
closed = 1;
nodes = (
"320 0 LINE",
"320 83 LINE",
"160 83 LINE",
"321 433 LINE",
"30 433 LINE",
"30 350 LINE",
"192 350 LINE",
"30 0 LINE"
);
}
);
width = 352;
}
);
note = z;
unicode = 007A;
},
{
glyphname = braceleft;
lastChange = "2018-10-30 01:52:17 +0000";
layers = (
{
layerId = "1B5A40BC-338C-4A9F-9FD4-89AE55A8ACCC";
paths = (
{
closed = 1;
nodes = (
"202 496 LINE SMOOTH",
"202 507.33 OFFCURVE",
"206.17 517 OFFCURVE",
"214.5 525 CURVE SMOOTH",
"222.83 533 OFFCURVE",
"232.67 537 OFFCURVE",
"244 537 CURVE",
"244 620 LINE",
"209.33 620 OFFCURVE",
"180 607.83 OFFCURVE",
"156 583.5 CURVE SMOOTH",
"132 559.17 OFFCURVE",
"120 530 OFFCURVE",
"120 496 CURVE SMOOTH",
"120 379 LINE",
"30 289 LINE",
"120 200 LINE",
"120 83 LINE SMOOTH",
"120 48.33 OFFCURVE",
"132 19 OFFCURVE",
"156 -5 CURVE SMOOTH",
"180 -29 OFFCURVE",
"209.33 -41 OFFCURVE",
"244 -41 CURVE",
"244 41 LINE",
"232.67 41 OFFCURVE",
"222.83 45.17 OFFCURVE",
"214.5 53.5 CURVE SMOOTH",
"206.17 61.83 OFFCURVE",
"202 71.67 OFFCURVE",
"202 83 CURVE SMOOTH",
"202 234 LINE",
"147 289 LINE",
"202 344 LINE"
);
}
);
width = 274;
}
);
note = braceleft;
unicode = 007B;
},
{
glyphname = verticalbar;
lastChange = "2018-10-30 01:52:17 +0000";
layers = (
{
layerId = "1B5A40BC-338C-4A9F-9FD4-89AE55A8ACCC";
paths = (
{
closed = 1;
nodes = (
"113 -96 LINE",
"113 772 LINE",
"30 772 LINE",
"30 -96 LINE"
);
}
);
width = 143;
}
);
note = verticalbar;
unicode = 007C;
},
{
glyphname = braceright;
lastChange = "2018-10-30 01:52:17 +0000";
layers = (
{
layerId = "1B5A40BC-338C-4A9F-9FD4-89AE55A8ACCC";
paths = (
{
closed = 1;
nodes = (
"154 379 LINE",
"154 496 LINE SMOOTH",
"154 530 OFFCURVE",
"141.83 559.17 OFFCURVE",
"117.5 583.5 CURVE SMOOTH",
"93.17 607.83 OFFCURVE",
"64 620 OFFCURVE",
"30 620 CURVE",
"30 537 LINE",
"41.33 537 OFFCURVE",
"51 533 OFFCURVE",
"59 525 CURVE SMOOTH",
"67 517 OFFCURVE",
"71 507.33 OFFCURVE",
"71 496 CURVE SMOOTH",
"71 344 LINE",
"126 289 LINE",
"71 234 LINE",
"71 83 LINE SMOOTH",
"71 71.67 OFFCURVE",
"67 61.83 OFFCURVE",
"59 53.5 CURVE SMOOTH",
"51 45.17 OFFCURVE",
"41.33 41 OFFCURVE",
"30 41 CURVE",
"30 -41 LINE",
"64 -41 OFFCURVE",
"93.17 -29 OFFCURVE",
"117.5 -5 CURVE SMOOTH",
"141.83 19 OFFCURVE",
"154 48.33 OFFCURVE",
"154 83 CURVE SMOOTH",
"154 200 LINE",
"244 289 LINE"
);
}
);
width = 274;
}
);
note = braceright;
unicode = 007D;
},
{
glyphname = asciitilde;
lastChange = "2018-10-30 01:52:17 +0000";
layers = (
{
layerId = "1B5A40BC-338C-4A9F-9FD4-89AE55A8ACCC";
paths = (
{
closed = 1;
nodes = (
"522 362 LINE",
"525.33 350.67 OFFCURVE",
"527 341 OFFCURVE",
"527 333 CURVE SMOOTH",
"527 321 OFFCURVE",
"524.33 308.67 OFFCURVE",
"519 296 CURVE",
"509 274.67 OFFCURVE",
"492.67 260 OFFCURVE",
"470 252 CURVE",
"460 248 OFFCURVE",
"450 246 OFFCURVE",
"440 246 CURVE SMOOTH",
"427.33 246 OFFCURVE",
"415.33 249 OFFCURVE",
"404 255 CURVE",
"382.67 264.33 OFFCURVE",
"367.67 280.67 OFFCURVE",
"359 304 CURVE SMOOTH",
"342.33 348 OFFCURVE",
"313 379.67 OFFCURVE",
"271 399 CURVE SMOOTH",
"249 409.67 OFFCURVE",
"225 415 OFFCURVE",
"199 415 CURVE SMOOTH",
"178.33 415 OFFCURVE",
"159 411.67 OFFCURVE",
"141 405 CURVE SMOOTH",
"97.67 389.67 OFFCURVE",
"66 360.33 OFFCURVE",
"46 317 CURVE SMOOTH",
"35.33 295.67 OFFCURVE",
"30 272.33 OFFCURVE",
"30 247 CURVE SMOOTH",
"30 236.33 OFFCURVE",
"31 226 OFFCURVE",
"33 216 CURVE",
"118 216 LINE",
"114.67 224 OFFCURVE",
"113 234 OFFCURVE",
"113 246 CURVE SMOOTH",
"113 260 OFFCURVE",
"115.67 272 OFFCURVE",
"121 282 CURVE",
"131.67 304 OFFCURVE",
"148 319 OFFCURVE",
"170 327 CURVE",
"177.33 330.33 OFFCURVE",
"187 332 OFFCURVE",
"199 332 CURVE SMOOTH",
"213 332 OFFCURVE",
"225.33 329.33 OFFCURVE",
"236 324 CURVE SMOOTH",
"258 313.33 OFFCURVE",
"273 297 OFFCURVE",
"281 275 CURVE SMOOTH",
"296.33 231.67 OFFCURVE",
"325.33 199.67 OFFCURVE",
"368 179 CURVE",
"392.67 168.33 OFFCURVE",
"416.67 163 OFFCURVE",
"440 163 CURVE SMOOTH",
"458.67 163 OFFCURVE",
"478 166.67 OFFCURVE",
"498 174 CURVE SMOOTH",
"542 189.33 OFFCURVE",
"574 218.33 OFFCURVE",
"594 261 CURVE SMOOTH",
"604.67 285.67 OFFCURVE",
"610 309.33 OFFCURVE",
"610 332 CURVE SMOOTH",
"610 342 OFFCURVE",
"609 352 OFFCURVE",
"607 362 CURVE"
);
}
);
width = 640;
}
);
note = asciitilde;
unicode = 007E;
},
{
glyphname = exclamdown;
lastChange = "2018-10-30 01:52:17 +0000";
layers = (
{
layerId = "1B5A40BC-338C-4A9F-9FD4-89AE55A8ACCC";
paths = (
{
closed = 1;
nodes = (
"108.33 342 OFFCURVE",
"118.17 346 OFFCURVE",
"126.5 354 CURVE SMOOTH",
"134.83 362 OFFCURVE",
"139 371.83 OFFCURVE",
"139 383.5 CURVE SMOOTH",
"139 395.17 OFFCURVE",
"134.83 405 OFFCURVE",
"126.5 413 CURVE SMOOTH",
"118.17 421 OFFCURVE",
"108.33 425 OFFCURVE",
"97 425 CURVE SMOOTH",
"85.67 425 OFFCURVE",
"76 421 OFFCURVE",
"68 413 CURVE SMOOTH",
"60 405 OFFCURVE",
"56 395.17 OFFCURVE",
"56 383.5 CURVE SMOOTH",
"56 371.83 OFFCURVE",
"60 362 OFFCURVE",
"68 354 CURVE SMOOTH",
"76 346 OFFCURVE",
"85.67 342 OFFCURVE",
"97 342 CURVE SMOOTH"
);
},
{
closed = 1;
nodes = (
"139 280 LINE",
"56 280 LINE",
"30 -154 LINE",
"164 -154 LINE"
);
}
);
width = 195;
}
);
note = exclamdown;
unicode = 00A1;
},
{
glyphname = cent;
lastChange = "2018-10-30 01:52:17 +0000";
layers = (
{
layerId = "1B5A40BC-338C-4A9F-9FD4-89AE55A8ACCC";
paths = (
{
closed = 1;
nodes = (
"262.5 90 OFFCURVE",
"213.83 110.17 OFFCURVE",
"173.5 150.5 CURVE SMOOTH",
"133.17 190.83 OFFCURVE",
"113 239.5 OFFCURVE",
"113 296.5 CURVE SMOOTH",
"113 353.5 OFFCURVE",
"133.17 402.17 OFFCURVE",
"173.5 442.5 CURVE SMOOTH",
"213.83 482.83 OFFCURVE",
"262.5 503 OFFCURVE",
"319.5 503 CURVE SMOOTH",
"376.5 503 OFFCURVE",
"425 482.67 OFFCURVE",
"465 442 CURVE",
"524 501 LINE",
"478.67 546.33 OFFCURVE",
"424.33 573.33 OFFCURVE",
"361 582 CURVE",
"361 658 LINE",
"278 658 LINE",
"278 582 LINE",
"207.33 572 OFFCURVE",
"148.33 540 OFFCURVE",
"101 486 CURVE SMOOTH",
"53.67 432 OFFCURVE",
"30 368.67 OFFCURVE",
"30 296 CURVE SMOOTH",
"30 248.67 OFFCURVE",
"40.83 204.17 OFFCURVE",
"62.5 162.5 CURVE SMOOTH",
"84.17 120.83 OFFCURVE",
"113.83 86.67 OFFCURVE",
"151.5 60 CURVE SMOOTH",
"189.17 33.33 OFFCURVE",
"231.33 16.67 OFFCURVE",
"278 10 CURVE",
"278 -65 LINE",
"361 -65 LINE",
"361 10 LINE",
"424.33 19.33 OFFCURVE",
"478.67 46.67 OFFCURVE",
"524 92 CURVE",
"465 150 LINE",
"425 110 OFFCURVE",
"376.5 90 OFFCURVE",
"319.5 90 CURVE SMOOTH"
);
}
);
width = 554;
}
);
note = cent;
unicode = 00A2;
},
{
glyphname = sterling;
lastChange = "2018-10-30 01:52:17 +0000";
layers = (
{
layerId = "1B5A40BC-338C-4A9F-9FD4-89AE55A8ACCC";
paths = (
{
closed = 1;
nodes = (
"217 90 LINE",
"221.67 110.67 OFFCURVE",
"224 128.33 OFFCURVE",
"224 143 CURVE SMOOTH",
"224 166.33 OFFCURVE",
"220.67 189.67 OFFCURVE",
"214 213 CURVE",
"319 213 LINE",
"319 296 LINE",
"175 296 LINE",
"165.67 308.67 OFFCURVE",
"156.33 319.67 OFFCURVE",
"147 329 CURVE SMOOTH",
"146.33 329.67 OFFCURVE",
"145.33 330.5 OFFCURVE",
"144 331.5 CURVE SMOOTH",
"142.67 332.5 OFFCURVE",
"141.67 333.33 OFFCURVE",
"141 334 CURVE",
"141 335 LINE",
"122.33 353.67 OFFCURVE",
"113 377 OFFCURVE",
"113 405 CURVE SMOOTH",
"113 431.67 OFFCURVE",
"122.5 454.67 OFFCURVE",
"141.5 474 CURVE SMOOTH",
"160.5 493.33 OFFCURVE",
"183.67 503 OFFCURVE",
"211 503 CURVE SMOOTH",
"235.67 503 OFFCURVE",
"257.33 494.33 OFFCURVE",
"276 477 CURVE",
"335 536 LINE",
"299.67 569.33 OFFCURVE",
"258.33 586 OFFCURVE",
"211 586 CURVE SMOOTH",
"161 586 OFFCURVE",
"118.33 568.33 OFFCURVE",
"83 533 CURVE SMOOTH",
"47.67 497.67 OFFCURVE",
"30 455 OFFCURVE",
"30 405 CURVE SMOOTH",
"30 365 OFFCURVE",
"42.33 328.67 OFFCURVE",
"67 296 CURVE",
"30 296 LINE",
"30 213 LINE",
"127 213 LINE",
"136.33 191 OFFCURVE",
"141 167.67 OFFCURVE",
"141 143 CURVE SMOOTH",
"141 125.67 OFFCURVE",
"138 108 OFFCURVE",
"132 90 CURVE",
"30 90 LINE",
"30 7 LINE",
"392 7 LINE",
"392 90 LINE"
);
}
);
width = 422;
}
);
note = sterling;
unicode = 00A3;
},
{
glyphname = currency;
lastChange = "2018-10-30 01:52:17 +0000";
layers = (
{
layerId = "1B5A40BC-338C-4A9F-9FD4-89AE55A8ACCC";
paths = (
{
closed = 1;
nodes = (
"445 16 LINE",
"468.33 52.67 OFFCURVE",
"480 92.67 OFFCURVE",
"480 136 CURVE SMOOTH",
"480 179.33 OFFCURVE",
"468.33 219 OFFCURVE",
"445 255 CURVE",
"497 306 LINE",
"439 365 LINE",
"386 314 LINE",
"349.33 339.33 OFFCURVE",
"308.5 352 OFFCURVE",
"263.5 352 CURVE SMOOTH",
"218.5 352 OFFCURVE",
"177.33 339.33 OFFCURVE",
"140 314 CURVE",
"88 365 LINE",
"30 306 LINE",
"82 255 LINE",
"58 219 OFFCURVE",
"46 179.17 OFFCURVE",
"46 135.5 CURVE SMOOTH",
"46 91.83 OFFCURVE",
"58 52 OFFCURVE",
"82 16 CURVE",
"30 -35 LINE",
"88 -94 LINE",
"140 -43 LINE",
"177.33 -68.33 OFFCURVE",
"218.5 -81 OFFCURVE",
"263.5 -81 CURVE SMOOTH",
"308.5 -81 OFFCURVE",
"349.33 -68.33 OFFCURVE",
"386 -43 CURVE",
"439 -94 LINE",
"497 -35 LINE"
);
},
{
closed = 1;
nodes = (
"394.33 109 OFFCURVE",
"394 106.33 OFFCURVE",
"394 105 CURVE",
"392.67 99.67 OFFCURVE",
"391 94.67 OFFCURVE",
"389 90 CURVE",
"387.67 85.33 OFFCURVE",
"385.67 80.67 OFFCURVE",
"383 76 CURVE",
"370.33 50 OFFCURVE",
"351 30.33 OFFCURVE",
"325 17 CURVE SMOOTH",
"318.33 13.67 OFFCURVE",
"311.33 11 OFFCURVE",
"304 9 CURVE",
"299.33 7 OFFCURVE",
"296 5.67 OFFCURVE",
"294 5 CURVE",
"292 5 OFFCURVE",
"289.33 4.67 OFFCURVE",
"286 4 CURVE",
"277.33 2.67 OFFCURVE",
"269.83 2 OFFCURVE",
"263.5 2 CURVE SMOOTH",
"257.17 2 OFFCURVE",
"249.67 2.67 OFFCURVE",
"241 4 CURVE",
"237.67 4.67 OFFCURVE",
"234.67 5 OFFCURVE",
"232 5 CURVE",
"230 5.67 OFFCURVE",
"227 7 OFFCURVE",
"223 9 CURVE",
"215.67 11 OFFCURVE",
"208.67 13.67 OFFCURVE",
"202 17 CURVE SMOOTH",
"176 31 OFFCURVE",
"156.67 50.67 OFFCURVE",
"144 76 CURVE",
"141.33 80.67 OFFCURVE",
"139.33 85.33 OFFCURVE",
"138 90 CURVE",
"136 95.33 OFFCURVE",
"134.33 100.33 OFFCURVE",
"133 105 CURVE",
"133 106.33 OFFCURVE",
"132.67 109 OFFCURVE",
"132 113 CURVE",
"130 121 OFFCURVE",
"129 128.5 OFFCURVE",
"129 135.5 CURVE SMOOTH",
"129 142.5 OFFCURVE",
"130 150 OFFCURVE",
"132 158 CURVE",
"132.67 162 OFFCURVE",
"133 164.67 OFFCURVE",
"133 166 CURVE",
"134.33 171.33 OFFCURVE",
"136 176.67 OFFCURVE",
"138 182 CURVE",
"139.33 186 OFFCURVE",
"141.33 190.33 OFFCURVE",
"144 195 CURVE",
"156.67 221 OFFCURVE",
"176 240.67 OFFCURVE",
"202 254 CURVE SMOOTH",
"208.67 257.33 OFFCURVE",
"215.67 260.33 OFFCURVE",
"223 263 CURVE SMOOTH",
"227 264.33 OFFCURVE",
"230.17 265.17 OFFCURVE",
"232.5 265.5 CURVE SMOOTH",
"234.83 265.83 OFFCURVE",
"237.67 266.33 OFFCURVE",
"241 267 CURVE SMOOTH",
"249.67 269 OFFCURVE",
"257.17 270 OFFCURVE",
"263.5 270 CURVE SMOOTH",
"269.83 270 OFFCURVE",
"277.33 269 OFFCURVE",
"286 267 CURVE",
"289.33 267 OFFCURVE",
"292 266.67 OFFCURVE",
"294 266 CURVE",
"296.67 265.33 OFFCURVE",
"300 264.33 OFFCURVE",
"304 263 CURVE SMOOTH",
"324 256.33 OFFCURVE",
"341.33 245.83 OFFCURVE",
"356 231.5 CURVE SMOOTH",
"370.67 217.17 OFFCURVE",
"381.67 200.67 OFFCURVE",
"389 182 CURVE SMOOTH",
"391 176.67 OFFCURVE",
"392.67 171.33 OFFCURVE",
"394 166 CURVE",
"394 164.67 OFFCURVE",
"394.33 162 OFFCURVE",
"395 158 CURVE",
"397 150 OFFCURVE",
"397.83 142.5 OFFCURVE",
"397.5 135.5 CURVE SMOOTH",
"397.17 128.5 OFFCURVE",
"396.33 121 OFFCURVE",
"395 113 CURVE SMOOTH"
);
}
);
width = 527;
}
);
note = currency;
unicode = 00A4;
},
{
glyphname = yen;
lastChange = "2018-10-30 01:52:17 +0000";
layers = (
{
layerId = "1B5A40BC-338C-4A9F-9FD4-89AE55A8ACCC";
paths = (
{
closed = 1;
nodes = (
"568 586 LINE",
"464 586 LINE",
"299 365 LINE",
"134 586 LINE",
"30 586 LINE",
"216 338 LINE",
"154 338 LINE",
"154 255 LINE",
"257 255 LINE",
"257 221 LINE",
"154 221 LINE",
"154 138 LINE",
"257 138 LINE",
"257 7 LINE",
"340 7 LINE",
"340 138 LINE",
"444 138 LINE",
"444 221 LINE",
"340 221 LINE",
"340 255 LINE",
"444 255 LINE",
"444 338 LINE",
"382 338 LINE"
);
}
);
width = 598;
}
);
note = yen;
unicode = 00A5;
},
{
glyphname = section;
lastChange = "2018-10-30 01:52:17 +0000";
layers = (
{
layerId = "1B5A40BC-338C-4A9F-9FD4-89AE55A8ACCC";
paths = (
{
closed = 1;
nodes = (
"286 288 LINE SMOOTH",
"286 278.67 OFFCURVE",
"284 269 OFFCURVE",
"280 259 CURVE",
"274 242.33 OFFCURVE",
"263.67 228.83 OFFCURVE",
"249 218.5 CURVE SMOOTH",
"234.33 208.17 OFFCURVE",
"218 203 OFFCURVE",
"200 203 CURVE SMOOTH",
"176 203 OFFCURVE",
"155.5 211.33 OFFCURVE",
"138.5 228 CURVE SMOOTH",
"121.5 244.67 OFFCURVE",
"113 265 OFFCURVE",
"113 289 CURVE SMOOTH",
"113 290 LINE",
"113 291 LINE SMOOTH",
"113 300.33 OFFCURVE",
"115 310 OFFCURVE",
"119 320 CURVE",
"125 336.67 OFFCURVE",
"135.33 350.17 OFFCURVE",
"150 360.5 CURVE SMOOTH",
"164.67 370.83 OFFCURVE",
"181.33 376 OFFCURVE",
"200 376 CURVE SMOOTH",
"223.33 376 OFFCURVE",
"243.5 367.5 OFFCURVE",
"260.5 350.5 CURVE SMOOTH",
"277.5 333.5 OFFCURVE",
"286 313 OFFCURVE",
"286 289 CURVE SMOOTH"
);
},
{
closed = 1;
nodes = (
"313 166 LINE",
"313.67 166 OFFCURVE",
"314.67 166.67 OFFCURVE",
"316 168 CURVE SMOOTH",
"319 171 LINE SMOOTH",
"352.33 203 OFFCURVE",
"369 242 OFFCURVE",
"369 288 CURVE SMOOTH",
"369 292.67 OFFCURVE",
"368.33 300.67 OFFCURVE",
"367 312 CURVE",
"368 312 LINE",
"367.33 312.67 OFFCURVE",
"366.83 314 OFFCURVE",
"366.5 316 CURVE SMOOTH",
"366.17 318 OFFCURVE",
"366 319.33 OFFCURVE",
"366 320 CURVE",
"365 322 LINE",
"358.33 356 OFFCURVE",
"343 384.67 OFFCURVE",
"319 408 CURVE SMOOTH",
"286.33 440 OFFCURVE",
"246.67 456 OFFCURVE",
"200 456 CURVE SMOOTH",
"194.5 456 LINE SMOOTH",
"192.83 456 OFFCURVE",
"191 455.83 OFFCURVE",
"189 455.5 CURVE SMOOTH",
"187 455.17 OFFCURVE",
"185.33 455 OFFCURVE",
"184 455 CURVE",
"166 457.67 OFFCURVE",
"150.67 465 OFFCURVE",
"138 477 CURVE SMOOTH",
"121.33 493 OFFCURVE",
"113 512.5 OFFCURVE",
"113 535.5 CURVE SMOOTH",
"113 558.5 OFFCURVE",
"121.5 578 OFFCURVE",
"138.5 594 CURVE SMOOTH",
"155.5 610 OFFCURVE",
"175.83 618 OFFCURVE",
"199.5 618 CURVE SMOOTH",
"223.17 618 OFFCURVE",
"243.67 610 OFFCURVE",
"261 594 CURVE",
"271.67 583.33 OFFCURVE",
"279 570.67 OFFCURVE",
"283 556 CURVE",
"368 556 LINE",
"362.67 594 OFFCURVE",
"346.33 626 OFFCURVE",
"319 652 CURVE SMOOTH",
"286.33 684.67 OFFCURVE",
"246.5 701 OFFCURVE",
"199.5 701 CURVE SMOOTH",
"152.5 701 OFFCURVE",
"112.5 684.83 OFFCURVE",
"79.5 652.5 CURVE SMOOTH",
"46.5 620.17 OFFCURVE",
"30 581.17 OFFCURVE",
"30 535.5 CURVE SMOOTH",
"30 489.83 OFFCURVE",
"46.67 451 OFFCURVE",
"80 419 CURVE SMOOTH",
"86 413 LINE",
"85.33 412.33 OFFCURVE",
"84.33 411.5 OFFCURVE",
"83 410.5 CURVE SMOOTH",
"81.67 409.5 OFFCURVE",
"80.67 408.67 OFFCURVE",
"80 408 CURVE SMOOTH",
"46.67 375.33 OFFCURVE",
"30 336.33 OFFCURVE",
"30 291 CURVE SMOOTH",
"30 286.33 OFFCURVE",
"30.67 278.33 OFFCURVE",
"32 267 CURVE",
"31 267 LINE",
"31.67 265.67 OFFCURVE",
"32.17 264 OFFCURVE",
"32.5 262 CURVE SMOOTH",
"32.83 260 OFFCURVE",
"33 258.67 OFFCURVE",
"33 258 CURVE",
"34 257 LINE",
"40.67 223 OFFCURVE",
"56 194.33 OFFCURVE",
"80 171 CURVE SMOOTH",
"112.67 138.33 OFFCURVE",
"152.67 122 OFFCURVE",
"200 122 CURVE SMOOTH",
"200.67 122 OFFCURVE",
"201.83 122.17 OFFCURVE",
"203.5 122.5 CURVE SMOOTH",
"205.17 122.83 OFFCURVE",
"206.5 123 OFFCURVE",
"207.5 123 CURVE SMOOTH",
"208.5 123 OFFCURVE",
"209.83 123.17 OFFCURVE",
"211.5 123.5 CURVE SMOOTH",
"213.17 123.83 OFFCURVE",
"214.33 124 OFFCURVE",
"215 124 CURVE",
"233 120.67 OFFCURVE",
"248.33 113 OFFCURVE",
"261 101 CURVE SMOOTH",
"277.67 85 OFFCURVE",
"286 65.67 OFFCURVE",
"286 43 CURVE SMOOTH",
"286 20.33 OFFCURVE",
"277.5 1 OFFCURVE",
"260.5 -15 CURVE SMOOTH",
"243.5 -31 OFFCURVE",
"223.17 -39 OFFCURVE",
"199.5 -39 CURVE SMOOTH",
"175.83 -39 OFFCURVE",
"155.33 -31 OFFCURVE",
"138 -15 CURVE SMOOTH",
"127.33 -5 OFFCURVE",
"120 7.33 OFFCURVE",
"116 22 CURVE",
"31 22 LINE",
"36.33 -15.33 OFFCURVE",
"52.67 -47.33 OFFCURVE",
"80 -74 CURVE SMOOTH",
"112.67 -106 OFFCURVE",
"152.5 -122 OFFCURVE",
"199.5 -122 CURVE SMOOTH",
"246.5 -122 OFFCURVE",
"286.5 -105.83 OFFCURVE",
"319.5 -73.5 CURVE SMOOTH",
"352.5 -41.17 OFFCURVE",
"369 -2.33 OFFCURVE",
"369 43 CURVE SMOOTH",
"369 88.33 OFFCURVE",
"352.33 127.33 OFFCURVE",
"319 160 CURVE SMOOTH"
);
}
);
width = 400;
}
);
note = section;
unicode = 00A7;
},
{
glyphname = copyright;
lastChange = "2018-10-30 01:52:17 +0000";
layers = (
{
layerId = "1B5A40BC-338C-4A9F-9FD4-89AE55A8ACCC";
paths = (
{
closed = 1;
nodes = (
"467.33 557.67 OFFCURVE",
"399.17 586 OFFCURVE",
"319.5 586 CURVE SMOOTH",
"239.83 586 OFFCURVE",
"171.67 557.67 OFFCURVE",
"115 501 CURVE SMOOTH",
"58.33 444.33 OFFCURVE",
"30 376 OFFCURVE",
"30 296 CURVE SMOOTH",
"30 216 OFFCURVE",
"58.17 147.83 OFFCURVE",
"114.5 91.5 CURVE SMOOTH",
"170.83 35.17 OFFCURVE",
"239 7 OFFCURVE",
"319 7 CURVE SMOOTH",
"399 7 OFFCURVE",
"467.33 35.17 OFFCURVE",
"524 91.5 CURVE SMOOTH",
"580.67 147.83 OFFCURVE",
"609 216 OFFCURVE",
"609 296 CURVE SMOOTH",
"609 376 OFFCURVE",
"580.67 444.33 OFFCURVE",
"524 501 CURVE SMOOTH"
);
},
{
closed = 1;
nodes = (
"425.17 110.17 OFFCURVE",
"376.5 90 OFFCURVE",
"319.5 90 CURVE SMOOTH",
"262.5 90 OFFCURVE",
"213.83 110.17 OFFCURVE",
"173.5 150.5 CURVE SMOOTH",
"133.17 190.83 OFFCURVE",
"113 239.5 OFFCURVE",
"113 296.5 CURVE SMOOTH",
"113 353.5 OFFCURVE",
"133.17 402.17 OFFCURVE",
"173.5 442.5 CURVE SMOOTH",
"213.83 482.83 OFFCURVE",
"262.5 503 OFFCURVE",
"319.5 503 CURVE SMOOTH",
"376.5 503 OFFCURVE",
"425.17 482.83 OFFCURVE",
"465.5 442.5 CURVE SMOOTH",
"505.83 402.17 OFFCURVE",
"526 353.5 OFFCURVE",
"526 296.5 CURVE SMOOTH",
"526 239.5 OFFCURVE",
"505.83 190.83 OFFCURVE",
"465.5 150.5 CURVE SMOOTH"
);
},
{
closed = 1;
nodes = (
"336.5 358 OFFCURVE",
"351 352 OFFCURVE",
"363 340 CURVE",
"422 399 LINE",
"393.33 427 OFFCURVE",
"359 441 OFFCURVE",
"319 441 CURVE SMOOTH",
"279 441 OFFCURVE",
"245 426.83 OFFCURVE",
"217 398.5 CURVE SMOOTH",
"189 370.17 OFFCURVE",
"175 336 OFFCURVE",
"175 296 CURVE SMOOTH",
"175 256 OFFCURVE",
"189 222 OFFCURVE",
"217 194 CURVE SMOOTH",
"245 166 OFFCURVE",
"279 152 OFFCURVE",
"319 152 CURVE SMOOTH",
"359 152 OFFCURVE",
"393.33 166 OFFCURVE",
"422 194 CURVE",
"363 253 LINE",
"351 241 OFFCURVE",
"336.5 235 OFFCURVE",
"319.5 235 CURVE SMOOTH",
"302.5 235 OFFCURVE",
"288 241 OFFCURVE",
"276 253 CURVE SMOOTH",
"264 265 OFFCURVE",
"258 279.5 OFFCURVE",
"258 296.5 CURVE SMOOTH",
"258 313.5 OFFCURVE",
"264 328 OFFCURVE",
"276 340 CURVE SMOOTH",
"288 352 OFFCURVE",
"302.5 358 OFFCURVE",
"319.5 358 CURVE SMOOTH"
);
}
);
width = 639;
}
);
note = copyright;
unicode = 00A9;
},
{
glyphname = registered;
lastChange = "2018-10-30 01:52:17 +0000";
layers = (
{
layerId = "1B5A40BC-338C-4A9F-9FD4-89AE55A8ACCC";
paths = (
{
closed = 1;
nodes = (
"467.33 557.67 OFFCURVE",
"399 586 OFFCURVE",
"319 586 CURVE SMOOTH",
"239.67 586 OFFCURVE",
"171.67 557.67 OFFCURVE",
"115 501 CURVE SMOOTH",
"58.33 444.33 OFFCURVE",
"30 376 OFFCURVE",
"30 296 CURVE SMOOTH",
"30 215.33 OFFCURVE",
"58.33 147.33 OFFCURVE",
"115 92 CURVE SMOOTH",
"170.33 35.33 OFFCURVE",
"238.33 7 OFFCURVE",
"319 7 CURVE SMOOTH",
"400.33 7 OFFCURVE",
"468.67 35.33 OFFCURVE",
"524 92 CURVE SMOOTH",
"580.67 148.67 OFFCURVE",
"609 216.67 OFFCURVE",
"609 296 CURVE SMOOTH",
"609 374.67 OFFCURVE",
"580.67 443 OFFCURVE",
"524 501 CURVE SMOOTH"
);
},
{
closed = 1;
nodes = (
"425 110 OFFCURVE",
"376.33 90 OFFCURVE",
"319 90 CURVE SMOOTH",
"261.67 90 OFFCURVE",
"213 110 OFFCURVE",
"173 150 CURVE SMOOTH",
"133 190 OFFCURVE",
"113 238.67 OFFCURVE",
"113 296 CURVE SMOOTH",
"113 353.33 OFFCURVE",
"133 402 OFFCURVE",
"173 442 CURVE SMOOTH",
"213.67 482.67 OFFCURVE",
"262.33 503 OFFCURVE",
"319 503 CURVE SMOOTH",
"375.67 503 OFFCURVE",
"424.33 482.67 OFFCURVE",
"465 442 CURVE SMOOTH",
"505.67 401.33 OFFCURVE",
"526 352.67 OFFCURVE",
"526 296 CURVE SMOOTH",
"526 239.33 OFFCURVE",
"505.67 190.67 OFFCURVE",
"465 150 CURVE SMOOTH"
);
},
{
closed = 1;
nodes = (
"400 412 LINE",
"385.33 426.67 OFFCURVE",
"368 434 OFFCURVE",
"348 434 CURVE SMOOTH",
"203 434 LINE",
"203 159 LINE",
"285 159 LINE",
"285 234 LINE",
"320 234 LINE",
"348 159 LINE",
"436 159 LINE",
"400 256 LINE",
"421.33 278.67 OFFCURVE",
"432 304.67 OFFCURVE",
"432 334 CURVE SMOOTH",
"432 363.33 OFFCURVE",
"422 388.33 OFFCURVE",
"402 409 CURVE"
);
},
{
closed = 1;
nodes = (
"285 317 LINE",
"285 351 LINE",
"343 351 LINE",
"347 346.33 OFFCURVE",
"349 340.33 OFFCURVE",
"349 333 CURVE SMOOTH",
"349 327.67 OFFCURVE",
"347.33 322.33 OFFCURVE",
"344 317 CURVE"
);
}
);
width = 639;
}
);
note = registered;
unicode = 00AE;
},
{
glyphname = degree;
lastChange = "2018-10-30 01:52:17 +0000";
layers = (
{
layerId = "1B5A40BC-338C-4A9F-9FD4-89AE55A8ACCC";
paths = (
{
closed = 1;
nodes = (
"186 758 OFFCURVE",
"161.67 768 OFFCURVE",
"133 768 CURVE SMOOTH",
"104.33 768 OFFCURVE",
"80 758 OFFCURVE",
"60 738 CURVE SMOOTH",
"40 718 OFFCURVE",
"30 693.83 OFFCURVE",
"30 665.5 CURVE SMOOTH",
"30 637.17 OFFCURVE",
"40 612.83 OFFCURVE",
"60 592.5 CURVE SMOOTH",
"80 572.17 OFFCURVE",
"104.33 562 OFFCURVE",
"133 562 CURVE SMOOTH",
"161.67 562 OFFCURVE",
"186 572 OFFCURVE",
"206 592 CURVE SMOOTH",
"226 612 OFFCURVE",
"236 636.33 OFFCURVE",
"236 665 CURVE SMOOTH",
"236 693.67 OFFCURVE",
"226 718 OFFCURVE",
"206 738 CURVE SMOOTH"
);
},
{
closed = 1;
nodes = (
"143.83 647 OFFCURVE",
"139.17 645 OFFCURVE",
"133.5 645 CURVE SMOOTH",
"127.83 645 OFFCURVE",
"123 647 OFFCURVE",
"119 651 CURVE SMOOTH",
"115 655 OFFCURVE",
"113 659.83 OFFCURVE",
"113 665.5 CURVE SMOOTH",
"113 671.17 OFFCURVE",
"115 676 OFFCURVE",
"119 680 CURVE SMOOTH",
"123 684 OFFCURVE",
"127.83 686 OFFCURVE",
"133.5 686 CURVE SMOOTH",
"139.17 686 OFFCURVE",
"143.83 684 OFFCURVE",
"147.5 680 CURVE SMOOTH",
"151.17 676 OFFCURVE",
"153 671.17 OFFCURVE",
"153 665.5 CURVE SMOOTH",
"153 659.83 OFFCURVE",
"151.17 655 OFFCURVE",
"147.5 651 CURVE SMOOTH"
);
}
);
width = 267;
}
);
note = degree;
unicode = 00B0;
},
{
glyphname = plusminus;
lastChange = "2018-10-30 01:52:17 +0000";
layers = (
{
layerId = "1B5A40BC-338C-4A9F-9FD4-89AE55A8ACCC";
paths = (
{
closed = 1;
nodes = (
"206 -34 LINE",
"288 -34 LINE",
"288 140 LINE",
"463 140 LINE",
"463 223 LINE",
"288 223 LINE",
"288 397 LINE",
"206 397 LINE",
"206 223 LINE",
"31 223 LINE",
"31 140 LINE",
"206 140 LINE"
);
},
{
closed = 1;
nodes = (
"464 -154 LINE",
"464 -71 LINE",
"30 -71 LINE",
"30 -154 LINE"
);
}
);
width = 494;
}
);
note = plusminus;
unicode = 00B1;
},
{
glyphname = paragraph;
lastChange = "2018-10-30 01:52:17 +0000";
layers = (
{
layerId = "1B5A40BC-338C-4A9F-9FD4-89AE55A8ACCC";
paths = (
{
closed = 1;
nodes = (
"444 0 LINE",
"444 579 LINE",
"361 579 LINE",
"361 0 LINE"
);
},
{
closed = 1;
nodes = (
"195 579 LINE SMOOTH",
"149.67 579 OFFCURVE",
"110.83 562.83 OFFCURVE",
"78.5 530.5 CURVE SMOOTH",
"46.17 498.17 OFFCURVE",
"30 459.17 OFFCURVE",
"30 413.5 CURVE SMOOTH",
"30 367.83 OFFCURVE",
"46.17 328.83 OFFCURVE",
"78.5 296.5 CURVE SMOOTH",
"110.83 264.17 OFFCURVE",
"149.67 248 OFFCURVE",
"195 248 CURVE SMOOTH",
"236 248 LINE",
"236 0 LINE",
"319 0 LINE",
"319 579 LINE"
);
}
);
width = 474;
}
);
note = paragraph;
unicode = 00B6;
},
{
glyphname = questiondown;
lastChange = "2018-10-30 01:52:17 +0000";
layers = (
{
layerId = "1B5A40BC-338C-4A9F-9FD4-89AE55A8ACCC";
paths = (
{
closed = 1;
nodes = (
"230.33 342 OFFCURVE",
"240.17 346 OFFCURVE",
"248.5 354 CURVE SMOOTH",
"256.83 362 OFFCURVE",
"261 371.83 OFFCURVE",
"261 383.5 CURVE SMOOTH",
"261 395.17 OFFCURVE",
"256.83 405 OFFCURVE",
"248.5 413 CURVE SMOOTH",
"240.17 421 OFFCURVE",
"230.33 425 OFFCURVE",
"219 425 CURVE SMOOTH",
"207.67 425 OFFCURVE",
"198 421 OFFCURVE",
"190 413 CURVE SMOOTH",
"182 405 OFFCURVE",
"178 395.17 OFFCURVE",
"178 383.5 CURVE SMOOTH",
"178 371.83 OFFCURVE",
"182 362 OFFCURVE",
"190 354 CURVE SMOOTH",
"198 346 OFFCURVE",
"207.67 342 OFFCURVE",
"219 342 CURVE SMOOTH"
);
},
{
closed = 1;
nodes = (
"327 195 OFFCURVE",
"296.33 212 OFFCURVE",
"261 220 CURVE",
"261 280 LINE",
"178 280 LINE",
"178 142 LINE",
"219 142 LINE SMOOTH",
"248.33 142 OFFCURVE",
"273.33 131.5 OFFCURVE",
"294 110.5 CURVE SMOOTH",
"314.67 89.5 OFFCURVE",
"325 64.33 OFFCURVE",
"325 35 CURVE SMOOTH",
"325 5.67 OFFCURVE",
"314.67 -19.33 OFFCURVE",
"294 -40 CURVE SMOOTH",
"273.33 -60.67 OFFCURVE",
"248.33 -71 OFFCURVE",
"219 -71 CURVE SMOOTH",
"189.67 -71 OFFCURVE",
"164.67 -60.67 OFFCURVE",
"144 -40 CURVE SMOOTH",
"123.33 -19.33 OFFCURVE",
"113 5.67 OFFCURVE",
"113 35 CURVE SMOOTH",
"113 58.33 OFFCURVE",
"120 79.33 OFFCURVE",
"134 98 CURVE",
"73 155 LINE",
"44.33 120.33 OFFCURVE",
"30 80.33 OFFCURVE",
"30 35 CURVE SMOOTH",
"30 -17 OFFCURVE",
"48.5 -61.5 OFFCURVE",
"85.5 -98.5 CURVE SMOOTH",
"122.5 -135.5 OFFCURVE",
"167.17 -154 OFFCURVE",
"219.5 -154 CURVE SMOOTH",
"271.83 -154 OFFCURVE",
"316.33 -135.5 OFFCURVE",
"353 -98.5 CURVE SMOOTH",
"389.67 -61.5 OFFCURVE",
"408 -16.83 OFFCURVE",
"408 35.5 CURVE SMOOTH",
"408 87.83 OFFCURVE",
"389.67 132.33 OFFCURVE",
"353 169 CURVE SMOOTH"
);
}
);
width = 439;
}
);
note = questiondown;
unicode = 00BF;
},
{
glyphname = AE;
lastChange = "2018-10-30 02:42:40 +0000";
layers = (
{
anchors = (
{
name = bottom;
position = "{412, 0}";
},
{
name = top;
position = "{412, 579}";
}
);
layerId = "1B5A40BC-338C-4A9F-9FD4-89AE55A8ACCC";
paths = (
{
closed = 1;
nodes = (
"100 0 LINE",
"211 147 LINE",
"431 147 LINE",
"431 0 LINE",
"792 0 LINE",
"792 83 LINE",
"514 83 LINE",
"514 248 LINE",
"792 248 LINE",
"792 331 LINE",
"514 331 LINE",
"514 496 LINE",
"792 496 LINE",
"792 579 LINE",
"431 579 LINE",
"-3 0 LINE"
);
},
{
closed = 1;
nodes = (
"431 440 LINE",
"431 229 LINE",
"272 229 LINE"
);
}
);
width = 823;
}
);
note = AE;
unicode = 00C6;
},
{
glyphname = Eth;
lastChange = "2018-10-30 02:42:46 +0000";
layers = (
{
layerId = "1B5A40BC-338C-4A9F-9FD4-89AE55A8ACCC";
paths = (
{
closed = 1;
nodes = (
"326 0 LINE",
"327 0 LINE",
"328 0 LINE SMOOTH",
"408 0 OFFCURVE",
"476.17 28.17 OFFCURVE",
"532.5 84.5 CURVE SMOOTH",
"588.83 140.83 OFFCURVE",
"617 209 OFFCURVE",
"617 289 CURVE SMOOTH",
"617 369 OFFCURVE",
"588.83 437.33 OFFCURVE",
"532.5 494 CURVE SMOOTH",
"476.17 550.67 OFFCURVE",
"408 579 OFFCURVE",
"328 579 CURVE SMOOTH",
"326 579 LINE",
"110 579 LINE",
"110 331 LINE",
"30 331 LINE",
"30 248 LINE",
"110 248 LINE",
"110 0 LINE"
);
},
{
closed = 1;
nodes = (
"192 248 LINE",
"319 248 LINE",
"319 331 LINE",
"192 331 LINE",
"192 496 LINE",
"326 496 LINE",
"327 496 LINE",
"328 496 LINE SMOOTH",
"385.33 496 OFFCURVE",
"434.17 475.83 OFFCURVE",
"474.5 435.5 CURVE SMOOTH",
"514.83 395.17 OFFCURVE",
"535 346.5 OFFCURVE",
"535 289.5 CURVE SMOOTH",
"535 232.5 OFFCURVE",
"514.67 183.83 OFFCURVE",
"474 143.5 CURVE SMOOTH",
"433.33 103.17 OFFCURVE",
"384.67 83 OFFCURVE",
"328 83 CURVE SMOOTH",
"327 83 LINE",
"326 83 LINE",
"192 83 LINE"
);
}
);
width = 648;
}
);
note = Eth;
unicode = 00D0;
},
{
glyphname = multiply;
lastChange = "2018-10-30 01:52:17 +0000";
layers = (
{
layerId = "1B5A40BC-338C-4A9F-9FD4-89AE55A8ACCC";
paths = (
{
closed = 1;
nodes = (
"394 379 LINE",
"335 437 LINE",
"212 314 LINE",
"89 437 LINE",
"30 379 LINE",
"153 255 LINE",
"30 132 LINE",
"89 74 LINE",
"212 197 LINE",
"335 74 LINE",
"394 132 LINE",
"270 255 LINE"
);
}
);
width = 424;
}
);
note = multiply;
unicode = 00D7;
},
{
glyphname = Oslash;
lastChange = "2018-10-30 02:42:46 +0000";
layers = (
{
anchors = (
{
name = bottom;
position = "{338, 0}";
},
{
name = top;
position = "{338, 579}";
}
);
layerId = "1B5A40BC-338C-4A9F-9FD4-89AE55A8ACCC";
paths = (
{
closed = 1;
nodes = (
"152 86 LINE",
"206 40.67 OFFCURVE",
"268 18 OFFCURVE",
"338 18 CURVE SMOOTH",
"417.33 18 OFFCURVE",
"485.33 46.33 OFFCURVE",
"542 103 CURVE SMOOTH",
"598.67 159.67 OFFCURVE",
"627 228 OFFCURVE",
"627 308 CURVE SMOOTH",
"627 378 OFFCURVE",
"604.67 439.67 OFFCURVE",
"560 493 CURVE",
"645 579 LINE",
"609 615 LINE",
"523 530 LINE",
"469.67 574.67 OFFCURVE",
"408 597 OFFCURVE",
"338 597 CURVE SMOOTH",
"258 597 OFFCURVE",
"189.67 568.67 OFFCURVE",
"133 512 CURVE SMOOTH",
"76.33 455.33 OFFCURVE",
"48 387.33 OFFCURVE",
"48 308 CURVE SMOOTH",
"48 238 OFFCURVE",
"70.67 176 OFFCURVE",
"116 122 CURVE",
"30 37 LINE",
"67 0 LINE"
);
},
{
closed = 1;
nodes = (
"145.67 218.33 OFFCURVE",
"131 260.67 OFFCURVE",
"131 308 CURVE SMOOTH",
"131 364.67 OFFCURVE",
"151.17 413.17 OFFCURVE",
"191.5 453.5 CURVE SMOOTH",
"231.83 493.83 OFFCURVE",
"280.67 514 OFFCURVE",
"338 514 CURVE SMOOTH",
"384.67 514 OFFCURVE",
"426.67 499.67 OFFCURVE",
"464 471 CURVE",
"175 181 LINE"
);
},
{
closed = 1;
nodes = (
"290.67 101 OFFCURVE",
"248.33 115.67 OFFCURVE",
"211 145 CURVE",
"501 434 LINE",
"529.67 396.67 OFFCURVE",
"544 354.67 OFFCURVE",
"544 308 CURVE SMOOTH",
"544 250.67 OFFCURVE",
"523.83 201.83 OFFCURVE",
"483.5 161.5 CURVE SMOOTH",
"443.17 121.17 OFFCURVE",
"394.67 101 OFFCURVE",
"338 101 CURVE SMOOTH"
);
}
);
width = 676;
}
);
note = Oslash;
unicode = 00D8;
},
{
glyphname = Thorn;
lastChange = "2018-10-30 02:42:46 +0000";
layers = (
{
anchors = (
{
name = bottom;
position = "{247, 0}";
},
{
name = top;
position = "{247, 579}";
}
);
layerId = "1B5A40BC-338C-4A9F-9FD4-89AE55A8ACCC";
paths = (
{
closed = 1;
nodes = (
"113 0 LINE",
"113 124 LINE",
"299 124 LINE SMOOTH",
"329 124 OFFCURVE",
"356.67 131.33 OFFCURVE",
"382 146 CURVE SMOOTH",
"407.33 160.67 OFFCURVE",
"427.33 180.67 OFFCURVE",
"442 206 CURVE SMOOTH",
"456.67 231.33 OFFCURVE",
"464 259 OFFCURVE",
"464 289 CURVE SMOOTH",
"464 335 OFFCURVE",
"447.83 374.17 OFFCURVE",
"415.5 406.5 CURVE SMOOTH",
"383.17 438.83 OFFCURVE",
"344.33 455 OFFCURVE",
"299 455 CURVE SMOOTH",
"113 455 LINE",
"113 579 LINE",
"30 579 LINE",
"30 0 LINE"
);
},
{
closed = 1;
nodes = (
"113 372 LINE",
"299 372 LINE SMOOTH",
"321.67 372 OFFCURVE",
"341 363.83 OFFCURVE",
"357 347.5 CURVE SMOOTH",
"373 331.17 OFFCURVE",
"381 311.67 OFFCURVE",
"381 289 CURVE SMOOTH",
"381 266.33 OFFCURVE",
"373 247 OFFCURVE",
"357 231 CURVE SMOOTH",
"341 215 OFFCURVE",
"321.67 207 OFFCURVE",
"299 207 CURVE SMOOTH",
"113 207 LINE"
);
}
);
width = 494;
}
);
note = Thorn;
unicode = 00DE;
},
{
glyphname = germandbls;
lastChange = "2018-10-30 02:43:12 +0000";
layers = (
{
anchors = (
{
name = bottom;
position = "{219, 0}";
},
{
name = top;
position = "{219, 722}";
}
);
layerId = "1B5A40BC-338C-4A9F-9FD4-89AE55A8ACCC";
paths = (
{
closed = 1;
nodes = (
"113 -1 LINE",
"113 544 LINE SMOOTH",
"113 568 OFFCURVE",
"120 589 OFFCURVE",
"135 607 CURVE SMOOTH",
"153 628 OFFCURVE",
"179 639 OFFCURVE",
"212 639 CURVE SMOOTH",
"219 639 LINE",
"244 638 OFFCURVE",
"265 629 OFFCURVE",
"282 612 CURVE SMOOTH",
"301 593 OFFCURVE",
"311 570 OFFCURVE",
"311 543 CURVE SMOOTH",
"311 516 OFFCURVE",
"301 493 OFFCURVE",
"282 474 CURVE SMOOTH",
"265 457 OFFCURVE",
"244 447 OFFCURVE",
"219 446 CURVE",
"219 361 LINE",
"258 361 OFFCURVE",
"291 348 OFFCURVE",
"318 321 CURVE SMOOTH",
"345 294 OFFCURVE",
"358 261 OFFCURVE",
"358 223 CURVE SMOOTH",
"358 184 OFFCURVE",
"345 151 OFFCURVE",
"318 124 CURVE SMOOTH",
"291 97 OFFCURVE",
"258 83 OFFCURVE",
"219 83 CURVE",
"219 0 LINE",
"280 0 OFFCURVE",
"333 22 OFFCURVE",
"376 65 CURVE SMOOTH",
"419 108 OFFCURVE",
"441 161 OFFCURVE",
"441 222 CURVE SMOOTH",
"441 283 OFFCURVE",
"419 336 OFFCURVE",
"376 379 CURVE SMOOTH",
"364 391 OFFCURVE",
"351 402 OFFCURVE",
"336 411 CURVE",
"337 412 OFFCURVE",
"338 412 OFFCURVE",
"339 413 CURVE SMOOTH",
"340 414 OFFCURVE",
"340 414 OFFCURVE",
"341 415 CURVE SMOOTH",
"376 450 OFFCURVE",
"394 493 OFFCURVE",
"394 543 CURVE SMOOTH",
"394 592 OFFCURVE",
"376 635 OFFCURVE",
"341 670 CURVE SMOOTH",
"308 703 OFFCURVE",
"267 722 OFFCURVE",
"219 722 CURVE SMOOTH",
"212 722 LINE SMOOTH",
"185 722 OFFCURVE",
"159 717 OFFCURVE",
"134 706 CURVE SMOOTH",
"109 695 OFFCURVE",
"88 680 OFFCURVE",
"71 660 CURVE SMOOTH",
"43 628 OFFCURVE",
"30 588 OFFCURVE",
"30 544 CURVE SMOOTH",
"30 -1 LINE"
);
}
);
width = 472;
}
);
note = germandbls;
unicode = 00DF;
},
{
glyphname = ae;
lastChange = "2018-10-30 02:42:46 +0000";
layers = (
{
anchors = (
{
name = bottom;
position = "{423, 0}";
},
{
name = top;
position = "{423, 434}";
}
);
layerId = "1B5A40BC-338C-4A9F-9FD4-89AE55A8ACCC";
paths = (
{
closed = 1;
nodes = (
"297 -2 OFFCURVE",
"342 13 OFFCURVE",
"381 44 CURVE",
"381 -2 LINE",
"464 -2 LINE",
"464 44 LINE",
"503 13 OFFCURVE",
"548 -2 OFFCURVE",
"598 -2 CURVE SMOOTH",
"646 -2 OFFCURVE",
"689 12 OFFCURVE",
"727 41 CURVE",
"668 100 LINE",
"647 87 OFFCURVE",
"623 81 OFFCURVE",
"598 81 CURVE SMOOTH",
"569 81 OFFCURVE",
"544 89 OFFCURVE",
"521 106 CURVE SMOOTH",
"498 123 OFFCURVE",
"481 144 OFFCURVE",
"472 170 CURVE",
"724 170 LINE",
"810 170 LINE",
"813 185 OFFCURVE",
"815 200 OFFCURVE",
"815 215 CURVE SMOOTH",
"815 275 OFFCURVE",
"794 326 OFFCURVE",
"752 369 CURVE SMOOTH",
"709 411 OFFCURVE",
"658 432 OFFCURVE",
"598 432 CURVE SMOOTH",
"548 432 OFFCURVE",
"503 416 OFFCURVE",
"464 385 CURVE",
"464 432 LINE",
"381 432 LINE",
"381 385 LINE",
"342 416 OFFCURVE",
"297 432 OFFCURVE",
"247 432 CURVE SMOOTH",
"187 432 OFFCURVE",
"136 411 OFFCURVE",
"94 369 CURVE SMOOTH",
"51 326 OFFCURVE",
"30 275 OFFCURVE",
"30 215 CURVE SMOOTH",
"30 155 OFFCURVE",
"51 104 OFFCURVE",
"94 62 CURVE SMOOTH",
"136 19 OFFCURVE",
"187 -2 OFFCURVE",
"247 -2 CURVE SMOOTH"
);
},
{
closed = 1;
nodes = (
"210 81 OFFCURVE",
"179 94 OFFCURVE",
"153 120 CURVE SMOOTH",
"126 146 OFFCURVE",
"113 178 OFFCURVE",
"113 215 CURVE SMOOTH",
"113 239 OFFCURVE",
"119 261 OFFCURVE",
"131 282 CURVE SMOOTH",
"143 303 OFFCURVE",
"159 319 OFFCURVE",
"180 331 CURVE SMOOTH",
"201 343 OFFCURVE",
"223 349 OFFCURVE",
"247 349 CURVE SMOOTH",
"284 349 OFFCURVE",
"315 336 OFFCURVE",
"342 310 CURVE SMOOTH",
"368 283 OFFCURVE",
"381 252 OFFCURVE",
"381 215 CURVE SMOOTH",
"381 178 OFFCURVE",
"368 146 OFFCURVE",
"342 120 CURVE SMOOTH",
"315 94 OFFCURVE",
"284 81 OFFCURVE",
"247 81 CURVE SMOOTH"
);
},
{
closed = 1;
nodes = (
"475 272 OFFCURVE",
"484 288 OFFCURVE",
"497 303 CURVE SMOOTH",
"509 317 OFFCURVE",
"524 328 OFFCURVE",
"542 337 CURVE SMOOTH",
"559 345 OFFCURVE",
"578 349 OFFCURVE",
"598 349 CURVE SMOOTH",
"610 349 OFFCURVE",
"622 348 OFFCURVE",
"633 345 CURVE SMOOTH",
"644 342 OFFCURVE",
"655 337 OFFCURVE",
"665 331 CURVE SMOOTH",
"674 325 OFFCURVE",
"683 318 OFFCURVE",
"692 311 CURVE SMOOTH",
"700 303 OFFCURVE",
"707 294 OFFCURVE",
"713 285 CURVE SMOOTH",
"718 275 OFFCURVE",
"723 264 OFFCURVE",
"726 253 CURVE",
"470 253 LINE"
);
}
);
width = 846;
}
);
note = ae;
unicode = 00E6;
},
{
glyphname = igrave;
lastChange = "2018-10-30 01:52:17 +0000";
layers = (
{
layerId = "1B5A40BC-338C-4A9F-9FD4-89AE55A8ACCC";
paths = (
{
closed = 1;
nodes = (
"154 -2 LINE",
"154 432 LINE",
"72 432 LINE",
"72 -2 LINE"
);
},
{
closed = 1;
nodes = (
"196 457 LINE",
"103 550 LINE",
"30 550 LINE",
"123 457 LINE"
);
}
);
width = 227;
}
);
note = igrave;
unicode = 00EC;
},
{
glyphname = iacute;
lastChange = "2018-10-30 02:42:46 +0000";
layers = (
{
layerId = "1B5A40BC-338C-4A9F-9FD4-89AE55A8ACCC";
paths = (
{
closed = 1;
nodes = (
"154 -2 LINE",
"154 432 LINE",
"72 432 LINE",
"72 -2 LINE"
);
},
{
closed = 1;
nodes = (
"103 457 LINE",
"196 550 LINE",
"123 550 LINE",
"30 457 LINE"
);
}
);
width = 227;
}
);
note = iacute;
unicode = 00ED;
},
{
glyphname = icircumflex;
lastChange = "2018-10-30 02:42:46 +0000";
layers = (
{
layerId = "1B5A40BC-338C-4A9F-9FD4-89AE55A8ACCC";
paths = (
{
closed = 1;
nodes = (
"186 508 LINE",
"319 441 LINE",
"343 488 LINE",
"186 566 LINE",
"30 488 LINE",
"53 441 LINE"
);
},
{
closed = 1;
nodes = (
"228 -2 LINE",
"228 432 LINE",
"145 432 LINE",
"145 -2 LINE"
);
}
);
width = 373;
}
);
note = icircumflex;
unicode = 00EE;
},
{
glyphname = idieresis;
lastChange = "2018-10-30 02:42:46 +0000";
layers = (
{
layerId = "1B5A40BC-338C-4A9F-9FD4-89AE55A8ACCC";
paths = (
{
closed = 1;
nodes = (
"190 -2 LINE",
"190 432 LINE",
"107 432 LINE",
"107 -2 LINE"
);
},
{
closed = 1;
nodes = (
"89.5 457 OFFCURVE",
"100.5 461.5 OFFCURVE",
"109.5 470.5 CURVE SMOOTH",
"118.5 479.5 OFFCURVE",
"123 490.5 OFFCURVE",
"123 503.5 CURVE SMOOTH",
"123 516.5 OFFCURVE",
"118.5 527.5 OFFCURVE",
"109.5 536.5 CURVE SMOOTH",
"100.5 545.5 OFFCURVE",
"89.5 550 OFFCURVE",
"76.5 550 CURVE SMOOTH",
"63.5 550 OFFCURVE",
"52.5 545.5 OFFCURVE",
"43.5 536.5 CURVE SMOOTH",
"34.5 527.5 OFFCURVE",
"30 516.5 OFFCURVE",
"30 503.5 CURVE SMOOTH",
"30 490.5 OFFCURVE",
"34.5 479.5 OFFCURVE",
"43.5 470.5 CURVE SMOOTH",
"52.5 461.5 OFFCURVE",
"63.5 457 OFFCURVE",
"76.5 457 CURVE SMOOTH"
);
},
{
closed = 1;
nodes = (
"233.67 457 OFFCURVE",
"244.5 461.5 OFFCURVE",
"253.5 470.5 CURVE SMOOTH",
"262.5 479.5 OFFCURVE",
"267 490.5 OFFCURVE",
"267 503.5 CURVE SMOOTH",
"267 516.5 OFFCURVE",
"262.5 527.5 OFFCURVE",
"253.5 536.5 CURVE SMOOTH",
"244.5 545.5 OFFCURVE",
"233.67 550 OFFCURVE",
"221 550 CURVE SMOOTH",
"208.33 550 OFFCURVE",
"197.5 545.5 OFFCURVE",
"188.5 536.5 CURVE SMOOTH",
"179.5 527.5 OFFCURVE",
"175 516.5 OFFCURVE",
"175 503.5 CURVE SMOOTH",
"175 490.5 OFFCURVE",
"179.5 479.5 OFFCURVE",
"188.5 470.5 CURVE SMOOTH",
"197.5 461.5 OFFCURVE",
"208.33 457 OFFCURVE",
"221 457 CURVE SMOOTH"
);
}
);
width = 298;
}
);
note = idieresis;
unicode = 00EF;
},
{
glyphname = eth;
lastChange = "2018-10-30 02:42:46 +0000";
layers = (
{
layerId = "1B5A40BC-338C-4A9F-9FD4-89AE55A8ACCC";
paths = (
{
closed = 1;
nodes = (
"307 24 OFFCURVE",
"358.17 45.17 OFFCURVE",
"400.5 87.5 CURVE SMOOTH",
"442.83 129.83 OFFCURVE",
"464 181 OFFCURVE",
"464 241 CURVE SMOOTH",
"464 359 OFFCURVE",
"446 463.67 OFFCURVE",
"410 555 CURVE",
"480 578 LINE",
"464 627 LINE",
"389 603 LINE",
"351 677.67 OFFCURVE",
"306.33 723.33 OFFCURVE",
"255 740 CURVE",
"255 647 LINE",
"273 633 OFFCURVE",
"291 609.33 OFFCURVE",
"309 576 CURVE",
"247 555 LINE",
"263 506 LINE",
"332 529 LINE",
"344 497.67 OFFCURVE",
"354 463 OFFCURVE",
"362 425 CURVE",
"327.33 447 OFFCURVE",
"289 458 OFFCURVE",
"247 458 CURVE SMOOTH",
"187 458 OFFCURVE",
"135.83 436.83 OFFCURVE",
"93.5 394.5 CURVE SMOOTH",
"51.17 352.17 OFFCURVE",
"30 301 OFFCURVE",
"30 241 CURVE SMOOTH",
"30 181 OFFCURVE",
"51.17 129.83 OFFCURVE",
"93.5 87.5 CURVE SMOOTH",
"135.83 45.17 OFFCURVE",
"187 24 OFFCURVE",
"247 24 CURVE SMOOTH"
);
},
{
closed = 1;
nodes = (
"210.33 107 OFFCURVE",
"178.83 120.17 OFFCURVE",
"152.5 146.5 CURVE SMOOTH",
"126.17 172.83 OFFCURVE",
"113 204.33 OFFCURVE",
"113 241 CURVE SMOOTH",
"113 277.67 OFFCURVE",
"126.17 309.17 OFFCURVE",
"152.5 335.5 CURVE SMOOTH",
"178.83 361.83 OFFCURVE",
"210.33 375 OFFCURVE",
"247 375 CURVE SMOOTH",
"283.67 375 OFFCURVE",
"315.17 361.83 OFFCURVE",
"341.5 335.5 CURVE SMOOTH",
"367.83 309.17 OFFCURVE",
"381 277.67 OFFCURVE",
"381 241 CURVE SMOOTH",
"381 204.33 OFFCURVE",
"367.83 172.83 OFFCURVE",
"341.5 146.5 CURVE SMOOTH",
"315.17 120.17 OFFCURVE",
"283.67 107 OFFCURVE",
"247 107 CURVE SMOOTH"
);
}
);
width = 511;
}
);
note = eth;
unicode = 00F0;
},
{
glyphname = divide;
lastChange = "2018-10-30 01:52:17 +0000";
layers = (
{
layerId = "1B5A40BC-338C-4A9F-9FD4-89AE55A8ACCC";
paths = (
{
closed = 1;
nodes = (
"258.33 400 OFFCURVE",
"268 404 OFFCURVE",
"276 412 CURVE SMOOTH",
"284 420 OFFCURVE",
"288 429.83 OFFCURVE",
"288 441.5 CURVE SMOOTH",
"288 453.17 OFFCURVE",
"284 463 OFFCURVE",
"276 471 CURVE SMOOTH",
"268 479 OFFCURVE",
"258.33 483 OFFCURVE",
"247 483 CURVE SMOOTH",
"239.67 483 OFFCURVE",
"232.83 481.17 OFFCURVE",
"226.5 477.5 CURVE SMOOTH",
"220.17 473.83 OFFCURVE",
"215.17 468.83 OFFCURVE",
"211.5 462.5 CURVE SMOOTH",
"207.83 456.17 OFFCURVE",
"206 449.33 OFFCURVE",
"206 442 CURVE SMOOTH",
"206 430 OFFCURVE",
"210 420 OFFCURVE",
"218 412 CURVE SMOOTH",
"226 404 OFFCURVE",
"235.67 400 OFFCURVE",
"247 400 CURVE SMOOTH"
);
},
{
closed = 1;
nodes = (
"235.67 111 OFFCURVE",
"226 106.83 OFFCURVE",
"218 98.5 CURVE SMOOTH",
"210 90.17 OFFCURVE",
"206 80.33 OFFCURVE",
"206 69 CURVE SMOOTH",
"206 57.67 OFFCURVE",
"210 48 OFFCURVE",
"218 40 CURVE SMOOTH",
"226 32 OFFCURVE",
"235.67 28 OFFCURVE",
"247 28 CURVE SMOOTH",
"258.33 28 OFFCURVE",
"268 32 OFFCURVE",
"276 40 CURVE SMOOTH",
"284 48 OFFCURVE",
"288 57.67 OFFCURVE",
"288 69 CURVE SMOOTH",
"288 80.33 OFFCURVE",
"284 90.17 OFFCURVE",
"276 98.5 CURVE SMOOTH",
"268 106.83 OFFCURVE",
"258.33 111 OFFCURVE",
"247 111 CURVE SMOOTH"
);
},
{
closed = 1;
nodes = (
"464 214 LINE",
"464 297 LINE",
"30 297 LINE",
"30 214 LINE"
);
}
);
width = 494;
}
);
note = divide;
unicode = 00F7;
},
{
glyphname = oslash;
lastChange = "2018-10-30 02:42:46 +0000";
layers = (
{
anchors = (
{
name = top;
position = "{247, 434}";
}
);
layerId = "1B5A40BC-338C-4A9F-9FD4-89AE55A8ACCC";
paths = (
{
closed = 1;
nodes = (
"113 49 LINE",
"152.33 18.33 OFFCURVE",
"197 3 OFFCURVE",
"247 3 CURVE SMOOTH",
"307 3 OFFCURVE",
"358.17 24.17 OFFCURVE",
"400.5 66.5 CURVE SMOOTH",
"442.83 108.83 OFFCURVE",
"464 160 OFFCURVE",
"464 220 CURVE SMOOTH",
"464 270 OFFCURVE",
"448.67 314.67 OFFCURVE",
"418 354 CURVE",
"464 400 LINE",
"427 437 LINE",
"381 390 LINE",
"341.67 421.33 OFFCURVE",
"297 437 OFFCURVE",
"247 437 CURVE SMOOTH",
"187 437 OFFCURVE",
"135.83 415.83 OFFCURVE",
"93.5 373.5 CURVE SMOOTH",
"51.17 331.17 OFFCURVE",
"30 280 OFFCURVE",
"30 220 CURVE SMOOTH",
"30 170 OFFCURVE",
"45.33 125.33 OFFCURVE",
"76 86 CURVE",
"30 39 LINE",
"67 3 LINE"
);
},
{
closed = 1;
nodes = (
"219.67 86 OFFCURVE",
"194.67 93.33 OFFCURVE",
"172 108 CURVE",
"358 294 LINE",
"373.33 272 OFFCURVE",
"381 247.33 OFFCURVE",
"381 220 CURVE SMOOTH",
"381 182.67 OFFCURVE",
"367.83 151 OFFCURVE",
"341.5 125 CURVE SMOOTH",
"315.17 99 OFFCURVE",
"283.67 86 OFFCURVE",
"247 86 CURVE SMOOTH"
);
},
{
closed = 1;
nodes = (
"120.67 167.67 OFFCURVE",
"113 192.67 OFFCURVE",
"113 220 CURVE SMOOTH",
"113 256.67 OFFCURVE",
"126 288.17 OFFCURVE",
"152 314.5 CURVE SMOOTH",
"178 340.83 OFFCURVE",
"209.67 354 OFFCURVE",
"247 354 CURVE SMOOTH",
"274.33 354 OFFCURVE",
"299.33 346.33 OFFCURVE",
"322 331 CURVE",
"136 145 LINE"
);
}
);
width = 494;
}
);
note = oslash;
unicode = 00F8;
},
{
glyphname = thorn;
lastChange = "2018-10-30 02:42:46 +0000";
layers = (
{
anchors = (
{
name = bottom;
position = "{248, 0}";
},
{
name = top;
position = "{248, 434}";
}
);
layerId = "1B5A40BC-338C-4A9F-9FD4-89AE55A8ACCC";
paths = (
{
closed = 1;
nodes = (
"113 -120 LINE",
"113 71 LINE",
"131 56.33 OFFCURVE",
"151 45 OFFCURVE",
"173 37 CURVE",
"174.33 37 OFFCURVE",
"175.33 36.67 OFFCURVE",
"176 36 CURVE",
"186.67 32.67 OFFCURVE",
"197.33 30 OFFCURVE",
"208 28 CURVE",
"208.67 28 OFFCURVE",
"210.33 27.67 OFFCURVE",
"213 27 CURVE",
"225.67 25 OFFCURVE",
"237 24 OFFCURVE",
"247 24 CURVE SMOOTH",
"299 24 OFFCURVE",
"344.83 40.5 OFFCURVE",
"384.5 73.5 CURVE SMOOTH",
"424.17 106.5 OFFCURVE",
"449.33 147.67 OFFCURVE",
"460 197 CURVE SMOOTH",
"462.67 211.67 OFFCURVE",
"464 226.33 OFFCURVE",
"464 241 CURVE SMOOTH",
"464 301 OFFCURVE",
"442.83 352.17 OFFCURVE",
"400.5 394.5 CURVE SMOOTH",
"358.17 436.83 OFFCURVE",
"307 458 OFFCURVE",
"247 458 CURVE SMOOTH",
"237 458 OFFCURVE",
"225.67 457 OFFCURVE",
"213 455 CURVE",
"211 455 LINE SMOOTH",
"209.67 455 OFFCURVE",
"208.67 454.67 OFFCURVE",
"208 454 CURVE",
"197.33 452.67 OFFCURVE",
"186.67 450 OFFCURVE",
"176 446 CURVE",
"174.5 445.5 LINE",
"173 445 LINE SMOOTH",
"151 437 OFFCURVE",
"131 426 OFFCURVE",
"113 412 CURVE",
"113 603 LINE",
"30 603 LINE",
"30 -120 LINE"
);
},
{
closed = 1;
nodes = (
"210.33 107 OFFCURVE",
"178.83 120.17 OFFCURVE",
"152.5 146.5 CURVE SMOOTH",
"126.17 172.83 OFFCURVE",
"113 204.33 OFFCURVE",
"113 241 CURVE SMOOTH",
"113 265.67 OFFCURVE",
"119 288.17 OFFCURVE",
"131 308.5 CURVE SMOOTH",
"143 328.83 OFFCURVE",
"159.33 345 OFFCURVE",
"180 357 CURVE SMOOTH",
"200.67 369 OFFCURVE",
"223 375 OFFCURVE",
"247 375 CURVE SMOOTH",
"283.67 375 OFFCURVE",
"315.17 362 OFFCURVE",
"341.5 336 CURVE SMOOTH",
"367.83 310 OFFCURVE",
"381 278.33 OFFCURVE",
"381 241 CURVE SMOOTH",
"381 217 OFFCURVE",
"375 194.67 OFFCURVE",
"363 174 CURVE SMOOTH",
"351 153.33 OFFCURVE",
"334.67 137 OFFCURVE",
"314 125 CURVE SMOOTH",
"293.33 113 OFFCURVE",
"271 107 OFFCURVE",
"247 107 CURVE SMOOTH"
);
}
);
width = 495;
}
);
note = thorn;
unicode = 00FE;
},
{
glyphname = dotlessi;
lastChange = "2018-10-30 02:26:48 +0000";
layers = (
{
anchors = (
{
name = bottom;
position = "{72, 0}";
},
{
name = ogonek;
position = "{129, 10}";
},
{
name = top;
position = "{72, 434}";
}
);
layerId = "1B5A40BC-338C-4A9F-9FD4-89AE55A8ACCC";
paths = (
{
closed = 1;
nodes = (
"113 0 LINE",
"113 434 LINE",
"30 434 LINE",
"30 0 LINE"
);
}
);
width = 143;
}
);
note = dotlessi;
unicode = 0131;
},
{
glyphname = Lslash;
lastChange = "2018-10-30 02:42:46 +0000";
layers = (
{
layerId = "1B5A40BC-338C-4A9F-9FD4-89AE55A8ACCC";
paths = (
{
closed = 1;
nodes = (
"472 0 LINE",
"472 83 LINE",
"193 83 LINE",
"193 314 LINE",
"300 349 LINE",
"283 398 LINE",
"193 368 LINE",
"193 579 LINE",
"111 579 LINE",
"111 341 LINE",
"30 314 LINE",
"46 265 LINE",
"111 286 LINE",
"111 0 LINE"
);
}
);
width = 503;
}
);
note = Lslash;
unicode = 0141;
},
{
glyphname = lslash;
lastChange = "2018-10-30 02:42:46 +0000";
layers = (
{
layerId = "1B5A40BC-338C-4A9F-9FD4-89AE55A8ACCC";
paths = (
{
closed = 1;
nodes = (
"193 0 LINE",
"193 314 LINE",
"300 349 LINE",
"283 398 LINE",
"193 369 LINE",
"193 579 LINE",
"111 579 LINE",
"111 341 LINE",
"30 314 LINE",
"46 265 LINE",
"111 286 LINE",
"111 0 LINE"
);
}
);
width = 330;
}
);
note = lslash;
unicode = 0142;
},
{
glyphname = OE;
lastChange = "2018-10-30 02:42:46 +0000";
layers = (
{
anchors = (
{
name = bottom;
position = "{357, 0}";
},
{
name = top;
position = "{357, 579}";
}
);
layerId = "1B5A40BC-338C-4A9F-9FD4-89AE55A8ACCC";
paths = (
{
closed = 1;
nodes = (
"321 0 LINE",
"683 0 LINE",
"683 83 LINE",
"404 83 LINE",
"404 248 LINE",
"683 248 LINE",
"683 331 LINE",
"404 331 LINE",
"404 496 LINE",
"683 496 LINE",
"683 579 LINE",
"321 579 LINE",
"319 579 LINE SMOOTH",
"239 579 OFFCURVE",
"170.83 550.67 OFFCURVE",
"114.5 494 CURVE SMOOTH",
"58.17 437.33 OFFCURVE",
"30 369 OFFCURVE",
"30 289 CURVE SMOOTH",
"30 209 OFFCURVE",
"58.17 140.83 OFFCURVE",
"114.5 84.5 CURVE SMOOTH",
"170.83 28.17 OFFCURVE",
"239 0 OFFCURVE",
"319 0 CURVE SMOOTH"
);
},
{
closed = 1;
nodes = (
"262.33 83 OFFCURVE",
"213.83 103.17 OFFCURVE",
"173.5 143.5 CURVE SMOOTH",
"133.17 183.83 OFFCURVE",
"113 232.5 OFFCURVE",
"113 289.5 CURVE SMOOTH",
"113 346.5 OFFCURVE",
"133.17 395.17 OFFCURVE",
"173.5 435.5 CURVE SMOOTH",
"213.83 475.83 OFFCURVE",
"262.33 496 OFFCURVE",
"319 496 CURVE SMOOTH",
"320.5 496 LINE",
"321 496 LINE",
"321 83 LINE",
"320.5 83 LINE",
"319 83 LINE SMOOTH"
);
}
);
width = 714;
}
);
note = OE;
unicode = 0152;
},
{
glyphname = oe;
lastChange = "2018-10-30 02:42:46 +0000";
layers = (
{
anchors = (
{
name = bottom;
position = "{423, 0}";
},
{
name = top;
position = "{423, 434}";
}
);
layerId = "1B5A40BC-338C-4A9F-9FD4-89AE55A8ACCC";
paths = (
{
closed = 1;
nodes = (
"282.33 3 OFFCURVE",
"315.33 11 OFFCURVE",
"346 27 CURVE SMOOTH",
"376.67 43 OFFCURVE",
"402.33 65 OFFCURVE",
"423 93 CURVE",
"443 65 OFFCURVE",
"468.33 43 OFFCURVE",
"499 27 CURVE SMOOTH",
"529.67 11 OFFCURVE",
"562.67 3 OFFCURVE",
"598 3 CURVE SMOOTH",
"646 3 OFFCURVE",
"689 17.33 OFFCURVE",
"727 46 CURVE",
"668 105 LINE",
"646.67 92.33 OFFCURVE",
"623.33 86 OFFCURVE",
"598 86 CURVE SMOOTH",
"569.33 86 OFFCURVE",
"543.5 94.33 OFFCURVE",
"520.5 111 CURVE SMOOTH",
"497.5 127.67 OFFCURVE",
"481.33 149 OFFCURVE",
"472 175 CURVE",
"724 175 LINE",
"810 175 LINE",
"813.33 189.67 OFFCURVE",
"815 204.67 OFFCURVE",
"815 220 CURVE SMOOTH",
"815 280 OFFCURVE",
"793.83 331.17 OFFCURVE",
"751.5 373.5 CURVE SMOOTH",
"709.17 415.83 OFFCURVE",
"658 437 OFFCURVE",
"598 437 CURVE SMOOTH",
"580 437 OFFCURVE",
"562.5 434.83 OFFCURVE",
"545.5 430.5 CURVE SMOOTH",
"528.5 426.17 OFFCURVE",
"512.67 420 OFFCURVE",
"498 412 CURVE SMOOTH",
"483.33 404 OFFCURVE",
"469.5 394.5 OFFCURVE",
"456.5 383.5 CURVE SMOOTH",
"443.5 372.5 OFFCURVE",
"432.33 360.33 OFFCURVE",
"423 347 CURVE",
"402.33 375 OFFCURVE",
"376.67 397 OFFCURVE",
"346 413 CURVE SMOOTH",
"315.33 429 OFFCURVE",
"282.33 437 OFFCURVE",
"247 437 CURVE SMOOTH",
"187 437 OFFCURVE",
"135.83 415.83 OFFCURVE",
"93.5 373.5 CURVE SMOOTH",
"51.17 331.17 OFFCURVE",
"30 280 OFFCURVE",
"30 220 CURVE SMOOTH",
"30 160 OFFCURVE",
"51.17 108.83 OFFCURVE",
"93.5 66.5 CURVE SMOOTH",
"135.83 24.17 OFFCURVE",
"187 3 OFFCURVE",
"247 3 CURVE SMOOTH"
);
},
{
closed = 1;
nodes = (
"210.33 86 OFFCURVE",
"178.83 99 OFFCURVE",
"152.5 125 CURVE SMOOTH",
"126.17 151 OFFCURVE",
"113 182.5 OFFCURVE",
"113 219.5 CURVE SMOOTH",
"113 256.5 OFFCURVE",
"126.17 288.17 OFFCURVE",
"152.5 314.5 CURVE SMOOTH",
"178.83 340.83 OFFCURVE",
"210.33 354 OFFCURVE",
"247 354 CURVE SMOOTH",
"271 354 OFFCURVE",
"293.33 348 OFFCURVE",
"314 336 CURVE SMOOTH",
"334.67 324 OFFCURVE",
"351 307.67 OFFCURVE",
"363 287 CURVE SMOOTH",
"375 266.33 OFFCURVE",
"381 244 OFFCURVE",
"381 220 CURVE SMOOTH",
"381 182.67 OFFCURVE",
"367.83 151 OFFCURVE",
"341.5 125 CURVE SMOOTH",
"315.17 99 OFFCURVE",
"283.67 86 OFFCURVE",
"247 86 CURVE SMOOTH"
);
},
{
closed = 1;
nodes = (
"478 286 OFFCURVE",
"493.83 309 OFFCURVE",
"517.5 327 CURVE SMOOTH",
"541.17 345 OFFCURVE",
"568 354 OFFCURVE",
"598 354 CURVE SMOOTH",
"618 354 OFFCURVE",
"636.83 349.83 OFFCURVE",
"654.5 341.5 CURVE SMOOTH",
"672.17 333.17 OFFCURVE",
"687.17 321.83 OFFCURVE",
"699.5 307.5 CURVE SMOOTH",
"711.83 293.17 OFFCURVE",
"720.67 276.67 OFFCURVE",
"726 258 CURVE",
"470 258 LINE"
);
}
);
width = 846;
}
);
note = oe;
unicode = 0153;
},
{
glyphname = endash;
lastChange = "2018-10-30 01:52:17 +0000";
layers = (
{
layerId = "1B5A40BC-338C-4A9F-9FD4-89AE55A8ACCC";
paths = (
{
closed = 1;
nodes = (
"464 562 LINE",
"464 645 LINE",
"30 645 LINE",
"30 562 LINE"
);
}
);
width = 494;
}
);
note = endash;
unicode = 2013;
},
{
glyphname = quoteleft;
lastChange = "2018-10-30 01:52:17 +0000";
layers = (
{
layerId = "1B5A40BC-338C-4A9F-9FD4-89AE55A8ACCC";
paths = (
{
closed = 1;
nodes = (
"113 728 LINE",
"61 728 LINE",
"61 727 LINE",
"30 562 LINE",
"113 562 LINE",
"113 685 LINE"
);
}
);
width = 143;
}
);
note = quoteleft;
unicode = 2018;
},
{
glyphname = quoteright;
lastChange = "2018-10-30 01:52:17 +0000";
layers = (
{
layerId = "1B5A40BC-338C-4A9F-9FD4-89AE55A8ACCC";
paths = (
{
closed = 1;
nodes = (
"30 728 LINE",
"30 605 LINE",
"30 562 LINE",
"82 562 LINE",
"113 728 LINE"
);
}
);
width = 143;
}
);
note = quoteright;
unicode = 2019;
},
{
glyphname = dagger;
lastChange = "2018-10-30 01:52:17 +0000";
layers = (
{
layerId = "1B5A40BC-338C-4A9F-9FD4-89AE55A8ACCC";
paths = (
{
closed = 1;
nodes = (
"288 524 LINE",
"288 772 LINE",
"206 772 LINE",
"206 524 LINE",
"30 524 LINE",
"30 441 LINE",
"206 441 LINE",
"206 48 LINE",
"288 48 LINE",
"288 441 LINE",
"464 441 LINE",
"464 524 LINE"
);
}
);
width = 494;
}
);
note = dagger;
unicode = 2020;
},
{
glyphname = daggerdbl;
lastChange = "2018-10-30 01:52:17 +0000";
layers = (
{
layerId = "1B5A40BC-338C-4A9F-9FD4-89AE55A8ACCC";
paths = (
{
closed = 1;
nodes = (
"464 441 LINE",
"464 524 LINE",
"288 524 LINE",
"288 772 LINE",
"206 772 LINE",
"206 524 LINE",
"30 524 LINE",
"30 441 LINE",
"206 441 LINE",
"206 234 LINE",
"30 234 LINE",
"30 151 LINE",
"206 151 LINE",
"206 48 LINE",
"288 48 LINE",
"288 151 LINE",
"464 151 LINE",
"464 234 LINE",
"288 234 LINE",
"288 441 LINE"
);
}
);
width = 494;
}
);
note = daggerdbl;
unicode = 2021;
},
{
glyphname = bullet;
lastChange = "2018-10-30 01:52:17 +0000";
layers = (
{
layerId = "1B5A40BC-338C-4A9F-9FD4-89AE55A8ACCC";
paths = (
{
closed = 1;
nodes = (
"201.5 146 OFFCURVE",
"233 159.17 OFFCURVE",
"259 185.5 CURVE SMOOTH",
"285 211.83 OFFCURVE",
"298 243.5 OFFCURVE",
"298 280.5 CURVE SMOOTH",
"298 317.5 OFFCURVE",
"285 349 OFFCURVE",
"259 375 CURVE SMOOTH",
"233 401 OFFCURVE",
"201.5 414 OFFCURVE",
"164.5 414 CURVE SMOOTH",
"127.5 414 OFFCURVE",
"95.83 401 OFFCURVE",
"69.5 375 CURVE SMOOTH",
"43.17 349 OFFCURVE",
"30 317.5 OFFCURVE",
"30 280.5 CURVE SMOOTH",
"30 243.5 OFFCURVE",
"43.17 211.83 OFFCURVE",
"69.5 185.5 CURVE SMOOTH",
"95.83 159.17 OFFCURVE",
"127.5 146 OFFCURVE",
"164.5 146 CURVE SMOOTH"
);
}
);
width = 329;
}
);
note = bullet;
unicode = 2022;
},
{
glyphname = perthousand;
lastChange = "2018-10-30 01:52:17 +0000";
layers = (
{
layerId = "1B5A40BC-338C-4A9F-9FD4-89AE55A8ACCC";
paths = (
{
closed = 1;
nodes = (
"543.17 206 OFFCURVE",
"518.83 196 OFFCURVE",
"498.5 176 CURVE SMOOTH",
"478.17 156 OFFCURVE",
"468 131.67 OFFCURVE",
"468 103 CURVE SMOOTH",
"468 74.33 OFFCURVE",
"478.17 50 OFFCURVE",
"498.5 30 CURVE SMOOTH",
"518.83 10 OFFCURVE",
"543.17 0 OFFCURVE",
"571.5 0 CURVE SMOOTH",
"599.83 0 OFFCURVE",
"624.17 10 OFFCURVE",
"644.5 30 CURVE SMOOTH",
"664.83 50 OFFCURVE",
"675 74.33 OFFCURVE",
"675 103 CURVE SMOOTH",
"675 131.67 OFFCURVE",
"664.83 156 OFFCURVE",
"644.5 176 CURVE SMOOTH",
"624.17 196 OFFCURVE",
"599.83 206 OFFCURVE",
"571.5 206 CURVE SMOOTH"
);
},
{
closed = 1;
nodes = (
"582 85 OFFCURVE",
"577.17 83 OFFCURVE",
"571.5 83 CURVE SMOOTH",
"565.83 83 OFFCURVE",
"561 85 OFFCURVE",
"557 89 CURVE SMOOTH",
"553 93 OFFCURVE",
"551 97.83 OFFCURVE",
"551 103.5 CURVE SMOOTH",
"551 109.17 OFFCURVE",
"553 113.83 OFFCURVE",
"557 117.5 CURVE SMOOTH",
"561 121.17 OFFCURVE",
"565.83 123 OFFCURVE",
"571.5 123 CURVE SMOOTH",
"577.17 123 OFFCURVE",
"582 121.17 OFFCURVE",
"586 117.5 CURVE SMOOTH",
"590 113.83 OFFCURVE",
"592 109.17 OFFCURVE",
"592 103.5 CURVE SMOOTH",
"592 97.83 OFFCURVE",
"590 93 OFFCURVE",
"586 89 CURVE SMOOTH"
);
},
{
closed = 1;
nodes = (
"227.83 372 OFFCURVE",
"252 382.17 OFFCURVE",
"272 402.5 CURVE SMOOTH",
"292 422.83 OFFCURVE",
"302 447.17 OFFCURVE",
"302 475.5 CURVE SMOOTH",
"302 503.83 OFFCURVE",
"292 528.17 OFFCURVE",
"272 548.5 CURVE SMOOTH",
"252 568.83 OFFCURVE",
"227.83 579 OFFCURVE",
"199.5 579 CURVE SMOOTH",
"171.17 579 OFFCURVE",
"146.83 568.83 OFFCURVE",
"126.5 548.5 CURVE SMOOTH",
"106.17 528.17 OFFCURVE",
"96 503.83 OFFCURVE",
"96 475.5 CURVE SMOOTH",
"96 447.17 OFFCURVE",
"106.17 422.83 OFFCURVE",
"126.5 402.5 CURVE SMOOTH",
"146.83 382.17 OFFCURVE",
"171.17 372 OFFCURVE",
"199.5 372 CURVE SMOOTH"
);
},
{
closed = 1;
nodes = (
"189 494 OFFCURVE",
"193.83 496 OFFCURVE",
"199.5 496 CURVE SMOOTH",
"205.17 496 OFFCURVE",
"210 494 OFFCURVE",
"214 490 CURVE SMOOTH",
"218 486 OFFCURVE",
"220 481.17 OFFCURVE",
"220 475.5 CURVE SMOOTH",
"220 469.83 OFFCURVE",
"218 465 OFFCURVE",
"214 461 CURVE SMOOTH",
"210 457 OFFCURVE",
"205.17 455 OFFCURVE",
"199.5 455 CURVE SMOOTH",
"193.83 455 OFFCURVE",
"189 457 OFFCURVE",
"185 461 CURVE SMOOTH",
"181 465 OFFCURVE",
"179 469.83 OFFCURVE",
"179 475.5 CURVE SMOOTH",
"179 481.17 OFFCURVE",
"181 486 OFFCURVE",
"185 490 CURVE SMOOTH"
);
},
{
closed = 1;
nodes = (
"30 5 LINE",
"148 5 LINE",
"734 579 LINE",
"615 579 LINE"
);
},
{
closed = 1;
nodes = (
"896.17 196 OFFCURVE",
"871.83 206 OFFCURVE",
"843.5 206 CURVE SMOOTH",
"815.17 206 OFFCURVE",
"790.83 196 OFFCURVE",
"770.5 176 CURVE SMOOTH",
"750.17 156 OFFCURVE",
"740 131.67 OFFCURVE",
"740 103 CURVE SMOOTH",
"740 74.33 OFFCURVE",
"750.17 50 OFFCURVE",
"770.5 30 CURVE SMOOTH",
"790.83 10 OFFCURVE",
"815.17 0 OFFCURVE",
"843.5 0 CURVE SMOOTH",
"871.83 0 OFFCURVE",
"896.17 10 OFFCURVE",
"916.5 30 CURVE SMOOTH",
"936.83 50 OFFCURVE",
"947 74.33 OFFCURVE",
"947 103 CURVE SMOOTH",
"947 131.67 OFFCURVE",
"936.83 156 OFFCURVE",
"916.5 176 CURVE SMOOTH"
);
},
{
closed = 1;
nodes = (
"854 85 OFFCURVE",
"849.17 83 OFFCURVE",
"843.5 83 CURVE SMOOTH",
"837.83 83 OFFCURVE",
"833 85 OFFCURVE",
"829 89 CURVE SMOOTH",
"825 93 OFFCURVE",
"823 97.83 OFFCURVE",
"823 103.5 CURVE SMOOTH",
"823 109.17 OFFCURVE",
"825 113.83 OFFCURVE",
"829 117.5 CURVE SMOOTH",
"833 121.17 OFFCURVE",
"837.83 123 OFFCURVE",
"843.5 123 CURVE SMOOTH",
"849.17 123 OFFCURVE",
"854 121.17 OFFCURVE",
"858 117.5 CURVE SMOOTH",
"862 113.83 OFFCURVE",
"864 109.17 OFFCURVE",
"864 103.5 CURVE SMOOTH",
"864 97.83 OFFCURVE",
"862 93 OFFCURVE",
"858 89 CURVE SMOOTH"
);
}
);
width = 977;
}
);
note = perthousand;
unicode = 2030;
},
{
glyphname = guilsinglleft;
lastChange = "2018-10-30 01:52:17 +0000";
layers = (
{
layerId = "1B5A40BC-338C-4A9F-9FD4-89AE55A8ACCC";
paths = (
{
closed = 1;
nodes = (
"345 478 LINE",
"287 537 LINE",
"30 280 LINE",
"287 24 LINE",
"345 82 LINE",
"147 280 LINE"
);
}
);
width = 376;
}
);
note = guilsinglleft;
unicode = 2039;
},
{
glyphname = guilsinglright;
lastChange = "2018-10-30 01:52:17 +0000";
layers = (
{
layerId = "1B5A40BC-338C-4A9F-9FD4-89AE55A8ACCC";
paths = (
{
closed = 1;
nodes = (
"89 537 LINE",
"30 478 LINE",
"228 280 LINE",
"30 82 LINE",
"89 24 LINE",
"345 280 LINE"
);
}
);
width = 376;
}
);
note = guilsinglright;
unicode = 203A;
},
{
glyphname = fraction;
lastChange = "2018-10-30 01:52:17 +0000";
layers = (
{
layerId = "1B5A40BC-338C-4A9F-9FD4-89AE55A8ACCC";
paths = (
{
closed = 1;
nodes = (
"615 579 LINE",
"30 5 LINE",
"148 5 LINE",
"734 579 LINE"
);
}
);
width = 764;
}
);
note = fraction;
unicode = 2044;
},
{
glyphname = Euro;
lastChange = "2018-10-30 03:00:59 +0000";
layers = (
{
layerId = "1B5A40BC-338C-4A9F-9FD4-89AE55A8ACCC";
paths = (
{
closed = 1;
nodes = (
"356.67 90 OFFCURVE",
"323.83 98.33 OFFCURVE",
"293.5 115 CURVE SMOOTH",
"263.17 131.67 OFFCURVE",
"238.67 154 OFFCURVE",
"220 182 CURVE",
"386 182 LINE",
"386 265 LINE",
"188 265 LINE",
"186 276.33 OFFCURVE",
"185 286.67 OFFCURVE",
"185 296 CURVE SMOOTH",
"185 305.33 OFFCURVE",
"186 315.67 OFFCURVE",
"188 327 CURVE",
"386 327 LINE",
"386 410 LINE",
"220 410 LINE",
"238.67 438.67 OFFCURVE",
"263.17 461.33 OFFCURVE",
"293.5 478 CURVE SMOOTH",
"323.83 494.67 OFFCURVE",
"356.67 503 OFFCURVE",
"392 503 CURVE SMOOTH",
"448.67 503 OFFCURVE",
"497.33 482.67 OFFCURVE",
"538 442 CURVE",
"596 501 LINE",
"539.33 557.67 OFFCURVE",
"471.33 586 OFFCURVE",
"392 586 CURVE SMOOTH",
"332.67 586 OFFCURVE",
"279 569.83 OFFCURVE",
"231 537.5 CURVE SMOOTH",
"183 505.17 OFFCURVE",
"148 462.67 OFFCURVE",
"126 410 CURVE",
"30 410 LINE",
"30 327 LINE",
"104 327 LINE",
"102.67 316.33 OFFCURVE",
"102 306.17 OFFCURVE",
"102 296.5 CURVE SMOOTH",
"102 286.83 OFFCURVE",
"102.67 276.33 OFFCURVE",
"104 265 CURVE",
"30 265 LINE",
"30 182 LINE",
"126 182 LINE",
"140.67 148 OFFCURVE",
"161.17 117.83 OFFCURVE",
"187.5 91.5 CURVE SMOOTH",
"213.83 65.17 OFFCURVE",
"244.67 44.5 OFFCURVE",
"280 29.5 CURVE SMOOTH",
"315.33 14.5 OFFCURVE",
"352.67 7 OFFCURVE",
"392 7 CURVE SMOOTH",
"471.33 7 OFFCURVE",
"539.33 35.33 OFFCURVE",
"596 92 CURVE",
"538 150 LINE",
"497.33 110 OFFCURVE",
"448.67 90 OFFCURVE",
"392 90 CURVE SMOOTH"
);
}
);
width = 627;
}
);
note = Euro;
unicode = 20AC;
},
{
glyphname = minus;
lastChange = "2018-10-30 01:52:17 +0000";
layers = (
{
layerId = "1B5A40BC-338C-4A9F-9FD4-89AE55A8ACCC";
paths = (
{
closed = 1;
nodes = (
"608 94 LINE",
"608 177 LINE",
"30 177 LINE",
"30 94 LINE"
);
}
);
width = 638;
}
);
note = minus;
unicode = 2212;
},
{
glyphname = ff.dlig;
lastChange = "2018-10-30 03:06:19 +0000";
layers = (
{
layerId = "1B5A40BC-338C-4A9F-9FD4-89AE55A8ACCC";
paths = (
{
closed = 1;
nodes = (
"413 579 LINE",
"415 596.33 OFFCURVE",
"422.83 610.83 OFFCURVE",
"436.5 622.5 CURVE SMOOTH",
"450.17 634.17 OFFCURVE",
"466 640 OFFCURVE",
"484 640 CURVE SMOOTH",
"502 640 OFFCURVE",
"517.67 634.17 OFFCURVE",
"531 622.5 CURVE SMOOTH",
"544.33 610.83 OFFCURVE",
"552.33 596.33 OFFCURVE",
"555 579 CURVE",
"638 579 LINE",
"635.33 619 OFFCURVE",
"619.17 653 OFFCURVE",
"589.5 681 CURVE SMOOTH",
"559.83 709 OFFCURVE",
"524.67 723 OFFCURVE",
"484 723 CURVE SMOOTH",
"439.33 723 OFFCURVE",
"401.67 706.33 OFFCURVE",
"371 673 CURVE",
"339.67 706.33 OFFCURVE",
"301.67 723 OFFCURVE",
"257 723 CURVE SMOOTH",
"216.33 723 OFFCURVE",
"181.17 709 OFFCURVE",
"151.5 681 CURVE SMOOTH",
"121.83 653 OFFCURVE",
"105.67 619 OFFCURVE",
"103 579 CURVE",
"102 579 LINE",
"102 475 LINE",
"30 475 LINE",
"30 393 LINE",
"102 393 LINE",
"102 0 LINE",
"185 0 LINE",
"185 393 LINE",
"329 393 LINE",
"329 0 LINE",
"412 0 LINE",
"412 393 LINE",
"546 393 LINE",
"546 475 LINE",
"412 475 LINE",
"412 568 LINE",
"412 569 LINE",
"412 579 LINE"
);
},
{
closed = 1;
nodes = (
"329 475 LINE",
"185 475 LINE",
"185 568 LINE",
"185 569 LINE",
"185 579 LINE",
"186 579 LINE",
"188.67 596.33 OFFCURVE",
"196.67 610.83 OFFCURVE",
"210 622.5 CURVE SMOOTH",
"223.33 634.17 OFFCURVE",
"239 640 OFFCURVE",
"257 640 CURVE SMOOTH",
"275 640 OFFCURVE",
"290.83 634.17 OFFCURVE",
"304.5 622.5 CURVE SMOOTH",
"318.17 610.83 OFFCURVE",
"326.33 596.33 OFFCURVE",
"329 579 CURVE"
);
}
);
width = 668;
},
{
layerId = "1B5A40BC-338C-4A9F-9FD4-89AE55A8ACCC";
paths = (
{
closed = 1;
nodes = (
"413 579 LINE",
"415 596.33 OFFCURVE",
"422.83 610.83 OFFCURVE",
"436.5 622.5 CURVE SMOOTH",
"450.17 634.17 OFFCURVE",
"466 640 OFFCURVE",
"484 640 CURVE SMOOTH",
"502 640 OFFCURVE",
"517.67 634.17 OFFCURVE",
"531 622.5 CURVE SMOOTH",
"544.33 610.83 OFFCURVE",
"552.33 596.33 OFFCURVE",
"555 579 CURVE",
"638 579 LINE",
"635.33 619 OFFCURVE",
"619.17 653 OFFCURVE",
"589.5 681 CURVE SMOOTH",
"559.83 709 OFFCURVE",
"524.67 723 OFFCURVE",
"484 723 CURVE SMOOTH",
"439.33 723 OFFCURVE",
"401.67 706.33 OFFCURVE",
"371 673 CURVE",
"339.67 706.33 OFFCURVE",
"301.67 723 OFFCURVE",
"257 723 CURVE SMOOTH",
"216.33 723 OFFCURVE",
"181.17 709 OFFCURVE",
"151.5 681 CURVE SMOOTH",
"121.83 653 OFFCURVE",
"105.67 619 OFFCURVE",
"103 579 CURVE",
"102 579 LINE",
"102 475 LINE",
"30 475 LINE",
"30 393 LINE",
"102 393 LINE",
"102 0 LINE",
"185 0 LINE",
"185 393 LINE",
"329 393 LINE",
"329 0 LINE",
"412 0 LINE",
"412 393 LINE",
"546 393 LINE",
"546 475 LINE",
"412 475 LINE",
"412 568 LINE",
"412 569 LINE",
"412 579 LINE"
);
},
{
closed = 1;
nodes = (
"329 475 LINE",
"185 475 LINE",
"185 568 LINE",
"185 569 LINE",
"185 579 LINE",
"186 579 LINE",
"188.67 596.33 OFFCURVE",
"196.67 610.83 OFFCURVE",
"210 622.5 CURVE SMOOTH",
"223.33 634.17 OFFCURVE",
"239 640 OFFCURVE",
"257 640 CURVE SMOOTH",
"275 640 OFFCURVE",
"290.83 634.17 OFFCURVE",
"304.5 622.5 CURVE SMOOTH",
"318.17 610.83 OFFCURVE",
"326.33 596.33 OFFCURVE",
"329 579 CURVE"
);
}
);
width = 668;
}
);
note = ff.dlig;
},
{
glyphname = fi.dlig;
lastChange = "2018-10-30 03:06:22 +0000";
layers = (
{
layerId = "1B5A40BC-338C-4A9F-9FD4-89AE55A8ACCC";
paths = (
{
closed = 1;
nodes = (
"185 568 LINE",
"185 569 LINE",
"185 579 LINE",
"186 579 LINE",
"188.67 596.33 OFFCURVE",
"196.67 610.83 OFFCURVE",
"210 622.5 CURVE SMOOTH",
"223.33 634.17 OFFCURVE",
"239 640 OFFCURVE",
"257 640 CURVE SMOOTH",
"275 640 OFFCURVE",
"290.83 634.17 OFFCURVE",
"304.5 622.5 CURVE SMOOTH",
"318.17 610.83 OFFCURVE",
"326.33 596.33 OFFCURVE",
"329 579 CURVE",
"412 579 LINE",
"409.33 619 OFFCURVE",
"393.17 653 OFFCURVE",
"363.5 681 CURVE SMOOTH",
"333.83 709 OFFCURVE",
"298.5 723 OFFCURVE",
"257.5 723 CURVE SMOOTH",
"216.5 723 OFFCURVE",
"181.17 709 OFFCURVE",
"151.5 681 CURVE SMOOTH",
"121.83 653 OFFCURVE",
"105.67 619 OFFCURVE",
"103 579 CURVE",
"102 579 LINE",
"102 475 LINE",
"30 475 LINE",
"30 393 LINE",
"102 393 LINE",
"102 0 LINE",
"185 0 LINE",
"185 393 LINE",
"329 393 LINE",
"329 0 LINE",
"412 0 LINE",
"412 475 LINE",
"185 475 LINE",
"185 521.5 LINE"
);
}
);
width = 442;
},
{
layerId = "1B5A40BC-338C-4A9F-9FD4-89AE55A8ACCC";
paths = (
{
closed = 1;
nodes = (
"185 568 LINE",
"185 569 LINE",
"185 579 LINE",
"186 579 LINE",
"188.67 596.33 OFFCURVE",
"196.67 610.83 OFFCURVE",
"210 622.5 CURVE SMOOTH",
"223.33 634.17 OFFCURVE",
"239 640 OFFCURVE",
"257 640 CURVE SMOOTH",
"275 640 OFFCURVE",
"290.83 634.17 OFFCURVE",
"304.5 622.5 CURVE SMOOTH",
"318.17 610.83 OFFCURVE",
"326.33 596.33 OFFCURVE",
"329 579 CURVE",
"412 579 LINE",
"409.33 619 OFFCURVE",
"393.17 653 OFFCURVE",
"363.5 681 CURVE SMOOTH",
"333.83 709 OFFCURVE",
"298.5 723 OFFCURVE",
"257.5 723 CURVE SMOOTH",
"216.5 723 OFFCURVE",
"181.17 709 OFFCURVE",
"151.5 681 CURVE SMOOTH",
"121.83 653 OFFCURVE",
"105.67 619 OFFCURVE",
"103 579 CURVE",
"102 579 LINE",
"102 475 LINE",
"30 475 LINE",
"30 393 LINE",
"102 393 LINE",
"102 0 LINE",
"185 0 LINE",
"185 393 LINE",
"329 393 LINE",
"329 0 LINE",
"412 0 LINE",
"412 475 LINE",
"185 475 LINE",
"185 521.5 LINE"
);
}
);
width = 442;
}
);
note = fi.dlig;
},
{
glyphname = ffi.dlig;
lastChange = "2018-10-30 03:06:26 +0000";
layers = (
{
layerId = "1B5A40BC-338C-4A9F-9FD4-89AE55A8ACCC";
paths = (
{
closed = 1;
nodes = (
"412 475 LINE",
"412 568 LINE",
"412 569 LINE",
"412 579 LINE",
"413 579 LINE",
"415 596.33 OFFCURVE",
"422.83 610.83 OFFCURVE",
"436.5 622.5 CURVE SMOOTH",
"450.17 634.17 OFFCURVE",
"466 640 OFFCURVE",
"484 640 CURVE SMOOTH",
"496 640 OFFCURVE",
"507.17 637.33 OFFCURVE",
"517.5 632 CURVE SMOOTH",
"527.83 626.67 OFFCURVE",
"536.33 619.33 OFFCURVE",
"543 610 CURVE SMOOTH",
"549.67 600.67 OFFCURVE",
"553.67 590.33 OFFCURVE",
"555 579 CURVE",
"638 579 LINE",
"635.33 619 OFFCURVE",
"619.33 653 OFFCURVE",
"590 681 CURVE SMOOTH",
"560 709 OFFCURVE",
"524.67 723 OFFCURVE",
"484 723 CURVE SMOOTH",
"473.33 723 OFFCURVE",
"462.67 722 OFFCURVE",
"452 720 CURVE",
"451.33 720 OFFCURVE",
"450.33 719.67 OFFCURVE",
"449 719 CURVE SMOOTH",
"447 718 LINE",
"437.67 716 OFFCURVE",
"429.33 713.33 OFFCURVE",
"422 710 CURVE",
"421.33 710 OFFCURVE",
"420.67 709.83 OFFCURVE",
"420 709.5 CURVE SMOOTH",
"419.33 709.17 OFFCURVE",
"419 708.67 OFFCURVE",
"419 708 CURVE",
"410.33 704 OFFCURVE",
"402 699.33 OFFCURVE",
"394 694 CURVE",
"394 694 LINE",
"385.33 688 OFFCURVE",
"377.67 681 OFFCURVE",
"371 673 CURVE",
"339.67 706.33 OFFCURVE",
"301.67 723 OFFCURVE",
"257 723 CURVE SMOOTH",
"216.33 723 OFFCURVE",
"181.17 709 OFFCURVE",
"151.5 681 CURVE SMOOTH",
"121.83 653 OFFCURVE",
"105.67 619 OFFCURVE",
"103 579 CURVE",
"102 579 LINE",
"102 475 LINE",
"30 475 LINE",
"30 393 LINE",
"102 393 LINE",
"102 0 LINE",
"185 0 LINE",
"185 393 LINE",
"329 393 LINE",
"329 0 LINE",
"412 0 LINE",
"412 393 LINE",
"555 393 LINE",
"555 0 LINE",
"638 0 LINE",
"638 475 LINE"
);
},
{
closed = 1;
nodes = (
"185 475 LINE",
"185 568 LINE",
"185 569 LINE",
"185 579 LINE",
"186 579 LINE",
"188 590.33 OFFCURVE",
"192.33 600.67 OFFCURVE",
"199 610 CURVE SMOOTH",
"205.67 619.33 OFFCURVE",
"214.17 626.67 OFFCURVE",
"224.5 632 CURVE SMOOTH",
"234.83 637.33 OFFCURVE",
"245.83 640 OFFCURVE",
"257.5 640 CURVE SMOOTH",
"269.17 640 OFFCURVE",
"280.17 637.33 OFFCURVE",
"290.5 632 CURVE SMOOTH",
"300.83 626.67 OFFCURVE",
"309.33 619.33 OFFCURVE",
"316 610 CURVE SMOOTH",
"322.67 600.67 OFFCURVE",
"327 590.33 OFFCURVE",
"329 579 CURVE",
"329 475 LINE"
);
}
);
width = 668;
},
{
layerId = "1B5A40BC-338C-4A9F-9FD4-89AE55A8ACCC";
paths = (
{
closed = 1;
nodes = (
"412 475 LINE",
"412 568 LINE",
"412 569 LINE",
"412 579 LINE",
"413 579 LINE",
"415 596.33 OFFCURVE",
"422.83 610.83 OFFCURVE",
"436.5 622.5 CURVE SMOOTH",
"450.17 634.17 OFFCURVE",
"466 640 OFFCURVE",
"484 640 CURVE SMOOTH",
"496 640 OFFCURVE",
"507.17 637.33 OFFCURVE",
"517.5 632 CURVE SMOOTH",
"527.83 626.67 OFFCURVE",
"536.33 619.33 OFFCURVE",
"543 610 CURVE SMOOTH",
"549.67 600.67 OFFCURVE",
"553.67 590.33 OFFCURVE",
"555 579 CURVE",
"638 579 LINE",
"635.33 619 OFFCURVE",
"619.33 653 OFFCURVE",
"590 681 CURVE SMOOTH",
"560 709 OFFCURVE",
"524.67 723 OFFCURVE",
"484 723 CURVE SMOOTH",
"473.33 723 OFFCURVE",
"462.67 722 OFFCURVE",
"452 720 CURVE",
"451.33 720 OFFCURVE",
"450.33 719.67 OFFCURVE",
"449 719 CURVE SMOOTH",
"447 718 LINE",
"437.67 716 OFFCURVE",
"429.33 713.33 OFFCURVE",
"422 710 CURVE",
"421.33 710 OFFCURVE",
"420.67 709.83 OFFCURVE",
"420 709.5 CURVE SMOOTH",
"419.33 709.17 OFFCURVE",
"419 708.67 OFFCURVE",
"419 708 CURVE",
"410.33 704 OFFCURVE",
"402 699.33 OFFCURVE",
"394 694 CURVE",
"394 694 LINE",
"385.33 688 OFFCURVE",
"377.67 681 OFFCURVE",
"371 673 CURVE",
"339.67 706.33 OFFCURVE",
"301.67 723 OFFCURVE",
"257 723 CURVE SMOOTH",
"216.33 723 OFFCURVE",
"181.17 709 OFFCURVE",
"151.5 681 CURVE SMOOTH",
"121.83 653 OFFCURVE",
"105.67 619 OFFCURVE",
"103 579 CURVE",
"102 579 LINE",
"102 475 LINE",
"30 475 LINE",
"30 393 LINE",
"102 393 LINE",
"102 0 LINE",
"185 0 LINE",
"185 393 LINE",
"329 393 LINE",
"329 0 LINE",
"412 0 LINE",
"412 393 LINE",
"555 393 LINE",
"555 0 LINE",
"638 0 LINE",
"638 475 LINE"
);
},
{
closed = 1;
nodes = (
"185 475 LINE",
"185 568 LINE",
"185 569 LINE",
"185 579 LINE",
"186 579 LINE",
"188 590.33 OFFCURVE",
"192.33 600.67 OFFCURVE",
"199 610 CURVE SMOOTH",
"205.67 619.33 OFFCURVE",
"214.17 626.67 OFFCURVE",
"224.5 632 CURVE SMOOTH",
"234.83 637.33 OFFCURVE",
"245.83 640 OFFCURVE",
"257.5 640 CURVE SMOOTH",
"269.17 640 OFFCURVE",
"280.17 637.33 OFFCURVE",
"290.5 632 CURVE SMOOTH",
"300.83 626.67 OFFCURVE",
"309.33 619.33 OFFCURVE",
"316 610 CURVE SMOOTH",
"322.67 600.67 OFFCURVE",
"327 590.33 OFFCURVE",
"329 579 CURVE",
"329 475 LINE"
);
}
);
width = 668;
}
);
note = ffi.dlig;
},
{
glyphname = A.ss02;
lastChange = "2018-10-30 03:22:21 +0000";
layers = (
{
anchors = (
{
name = bottom;
position = "{294, 0}";
},
{
name = ogonek;
position = "{529, 10}";
},
{
name = top;
position = "{294, 434}";
}
);
layerId = "1B5A40BC-338C-4A9F-9FD4-89AE55A8ACCC";
paths = (
{
closed = 1;
nodes = (
"112 0 LINE",
"253 145 LINE",
"475 145 LINE",
"475 0 LINE",
"558 0 LINE",
"558 579 LINE",
"-3 0 LINE"
);
},
{
closed = 1;
nodes = (
"475 374 LINE",
"475 228 LINE",
"333 228 LINE"
);
}
);
width = 588;
}
);
note = A.alt2;
},
{
glyphname = A.ss1;
lastChange = "2018-10-30 03:22:21 +0000";
layers = (
{
anchors = (
{
name = bottom;
position = "{294, 0}";
},
{
name = ogonek;
position = "{529, 10}";
},
{
name = top;
position = "{294, 434}";
}
);
layerId = "1B5A40BC-338C-4A9F-9FD4-89AE55A8ACCC";
paths = (
{
closed = 1;
nodes = (
"113 0 LINE",
"113 145 LINE",
"335 145 LINE",
"476 0 LINE",
"591 0 LINE",
"30 579 LINE",
"30 0 LINE"
);
},
{
closed = 1;
nodes = (
"113 374 LINE",
"255 228 LINE",
"113 228 LINE"
);
}
);
width = 588;
}
);
note = A.alt1;
},
{
glyphname = M.ss01;
lastChange = "2018-10-30 03:22:32 +0000";
layers = (
{
anchors = (
{
name = bottom;
position = "{493, 0}";
},
{
name = top;
position = "{493, 579}";
}
);
layerId = "1B5A40BC-338C-4A9F-9FD4-89AE55A8ACCC";
paths = (
{
closed = 1;
nodes = (
"113 0 LINE",
"113 374 LINE",
"476 0 LINE",
"476 374 LINE",
"838 0 LINE",
"954 0 LINE",
"393 579 LINE",
"393 205 LINE",
"30 579 LINE",
"30 0 LINE"
);
}
);
width = 985;
}
);
note = M.alt1;
},
{
glyphname = M.ss02;
lastChange = "2018-10-30 03:22:32 +0000";
layers = (
{
anchors = (
{
name = bottom;
position = "{492, 0}";
},
{
name = top;
position = "{492, 579}";
}
);
layerId = "1B5A40BC-338C-4A9F-9FD4-89AE55A8ACCC";
paths = (
{
closed = 1;
nodes = (
"146 0 LINE",
"508 374 LINE",
"508 0 LINE",
"871 374 LINE",
"871 0 LINE",
"954 0 LINE",
"954 579 LINE",
"591 205 LINE",
"591 579 LINE",
"30 0 LINE"
);
}
);
width = 984;
}
);
note = M.alt2;
},
{
glyphname = V.ss01;
lastChange = "2018-10-30 03:22:32 +0000";
layers = (
{
anchors = (
{
name = bottom;
position = "{295, 0}";
},
{
name = top;
position = "{295, 579}";
}
);
layerId = "1B5A40BC-338C-4A9F-9FD4-89AE55A8ACCC";
paths = (
{
closed = 1;
nodes = (
"559 579 LINE",
"476 579 LINE",
"476 205 LINE",
"215 474 LINE",
"114 579 LINE",
"-2 579 LINE",
"559 0 LINE"
);
}
);
width = 590;
}
);
note = V.alt1;
},
{
glyphname = V.ss02;
lastChange = "2018-10-30 03:22:32 +0000";
layers = (
{
anchors = (
{
name = bottom;
position = "{286, 0}";
},
{
name = top;
position = "{286, 579}";
}
);
layerId = "1B5A40BC-338C-4A9F-9FD4-89AE55A8ACCC";
paths = (
{
closed = 1;
nodes = (
"573 579 LINE",
"458 579 LINE",
"357 474 LINE",
"95 205 LINE",
"95 579 LINE",
"12 579 LINE",
"12 0 LINE"
);
}
);
width = 571;
}
);
note = V.alt2;
},
{
glyphname = Y.ss01;
lastChange = "2018-10-30 03:22:32 +0000";
layers = (
{
anchors = (
{
name = bottom;
position = "{294, 0}";
},
{
name = top;
position = "{293, 434}";
},
{
name = topleft;
position = "{20, 579}";
}
);
layerId = "1B5A40BC-338C-4A9F-9FD4-89AE55A8ACCC";
paths = (
{
closed = 1;
nodes = (
"195 -145 LINE",
"557 579 LINE",
"464 579 LINE",
"293 237 LINE",
"123 579 LINE",
"30 579 LINE",
"247 145 LINE",
"102 -145 LINE"
);
}
);
width = 587;
}
);
note = Y.alt1;
},
{
glyphname = a.ss01;
lastChange = "2018-10-30 03:22:32 +0000";
layers = (
{
anchors = (
{
name = bottom;
position = "{247, 0}";
},
{
name = ogonek;
position = "{445, 10}";
},
{
name = top;
position = "{247, 651}";
}
);
layerId = "1B5A40BC-338C-4A9F-9FD4-89AE55A8ACCC";
paths = (
{
closed = 1;
nodes = (
"297 0 OFFCURVE",
"341.67 15.67 OFFCURVE",
"381 47 CURVE",
"381 0 LINE",
"464 0 LINE",
"464 217 LINE",
"464 434 LINE SMOOTH",
"464 494 OFFCURVE",
"442.83 545.17 OFFCURVE",
"400.5 587.5 CURVE SMOOTH",
"358.17 629.83 OFFCURVE",
"307 651 OFFCURVE",
"247 651 CURVE SMOOTH",
"187 651 OFFCURVE",
"135.83 629.83 OFFCURVE",
"93.5 587.5 CURVE SMOOTH",
"51.17 545.17 OFFCURVE",
"30 494 OFFCURVE",
"30 434 CURVE",
"113 434 LINE",
"113 458 OFFCURVE",
"119 480.33 OFFCURVE",
"131 501 CURVE SMOOTH",
"143 521.67 OFFCURVE",
"159.33 538 OFFCURVE",
"180 550 CURVE SMOOTH",
"200.67 562 OFFCURVE",
"223 568 OFFCURVE",
"247 568 CURVE SMOOTH",
"283.67 568 OFFCURVE",
"315.17 554.83 OFFCURVE",
"341.5 528.5 CURVE SMOOTH",
"367.83 502.17 OFFCURVE",
"381 470.67 OFFCURVE",
"381 434 CURVE SMOOTH",
"381 387 LINE",
"341.67 418.33 OFFCURVE",
"297 434 OFFCURVE",
"247 434 CURVE SMOOTH",
"207.67 434 OFFCURVE",
"171.33 424.33 OFFCURVE",
"138 405 CURVE SMOOTH",
"104.67 385.67 OFFCURVE",
"78.33 359.33 OFFCURVE",
"59 326 CURVE SMOOTH",
"39.67 292.67 OFFCURVE",
"30 256.33 OFFCURVE",
"30 217 CURVE SMOOTH",
"30 157 OFFCURVE",
"51.17 105.83 OFFCURVE",
"93.5 63.5 CURVE SMOOTH",
"135.83 21.17 OFFCURVE",
"187 0 OFFCURVE",
"247 0 CURVE SMOOTH"
);
},
{
closed = 1;
nodes = (
"210.33 83 OFFCURVE",
"178.83 96.17 OFFCURVE",
"152.5 122.5 CURVE SMOOTH",
"126.17 148.83 OFFCURVE",
"113 180.33 OFFCURVE",
"113 217 CURVE SMOOTH",
"113 253.67 OFFCURVE",
"126.17 285.17 OFFCURVE",
"152.5 311.5 CURVE SMOOTH",
"178.83 337.83 OFFCURVE",
"210.33 351 OFFCURVE",
"247 351 CURVE SMOOTH",
"271 351 OFFCURVE",
"293.33 345 OFFCURVE",
"314 333 CURVE SMOOTH",
"334.67 321 OFFCURVE",
"351 304.67 OFFCURVE",
"363 284 CURVE SMOOTH",
"375 263.33 OFFCURVE",
"381 241 OFFCURVE",
"381 217 CURVE SMOOTH",
"381 180.33 OFFCURVE",
"367.83 148.83 OFFCURVE",
"341.5 122.5 CURVE SMOOTH",
"315.17 96.17 OFFCURVE",
"283.67 83 OFFCURVE",
"247 83 CURVE SMOOTH"
);
}
);
width = 494;
}
);
note = a.alt1;
},
{
glyphname = e.ss01;
lastChange = "2018-10-30 03:22:32 +0000";
layers = (
{
anchors = (
{
name = bottom;
position = "{246, 0}";
},
{
name = ogonek;
position = "{443, 10}";
},
{
name = top;
position = "{247, 434}";
}
);
layerId = "1B5A40BC-338C-4A9F-9FD4-89AE55A8ACCC";
paths = (
{
closed = 1;
nodes = (
"307 0 OFFCURVE",
"358 21.33 OFFCURVE",
"400 64 CURVE SMOOTH",
"434 97.33 OFFCURVE",
"454.33 138 OFFCURVE",
"461 186 CURVE",
"377 186 LINE",
"371.67 161.33 OFFCURVE",
"360 140 OFFCURVE",
"342 122 CURVE SMOOTH",
"316 96 OFFCURVE",
"284.33 83 OFFCURVE",
"247 83 CURVE SMOOTH",
"226.33 83 OFFCURVE",
"207 87.33 OFFCURVE",
"189 96 CURVE",
"429 336 LINE",
"420.33 348.67 OFFCURVE",
"410.67 360 OFFCURVE",
"400 370 CURVE",
"358 412.67 OFFCURVE",
"307 434 OFFCURVE",
"247 434 CURVE SMOOTH",
"187 434 OFFCURVE",
"136 412.67 OFFCURVE",
"94 370 CURVE SMOOTH",
"51.33 328 OFFCURVE",
"30 277 OFFCURVE",
"30 217 CURVE SMOOTH",
"30 157 OFFCURVE",
"51.33 106 OFFCURVE",
"94 64 CURVE SMOOTH",
"136 21.33 OFFCURVE",
"187 0 OFFCURVE",
"247 0 CURVE SMOOTH"
);
},
{
closed = 1;
nodes = (
"118.33 172.33 OFFCURVE",
"113 193.67 OFFCURVE",
"113 217 CURVE SMOOTH",
"113 254.33 OFFCURVE",
"126 286 OFFCURVE",
"152 312 CURVE SMOOTH",
"178 338 OFFCURVE",
"209.67 351 OFFCURVE",
"247 351 CURVE SMOOTH",
"270.33 351 OFFCURVE",
"291.67 345.67 OFFCURVE",
"311 335 CURVE",
"129 153 LINE"
);
}
);
width = 492;
}
);
note = e.alt1;
},
{
glyphname = j.ss01;
lastChange = "2018-10-30 03:20:57 +0000";
layers = (
{
layerId = "1B5A40BC-338C-4A9F-9FD4-89AE55A8ACCC";
paths = (
{
closed = 1;
nodes = (
"113 -142 LINE",
"113 437 LINE",
"30 437 LINE",
"30 -142 LINE"
);
},
{
closed = 1;
nodes = (
"83.17 498 OFFCURVE",
"93 502.17 OFFCURVE",
"101 510.5 CURVE SMOOTH",
"109 518.83 OFFCURVE",
"113 528.67 OFFCURVE",
"113 540 CURVE SMOOTH",
"113 547.33 OFFCURVE",
"111.17 554.17 OFFCURVE",
"107.5 560.5 CURVE SMOOTH",
"103.83 566.83 OFFCURVE",
"98.83 571.83 OFFCURVE",
"92.5 575.5 CURVE SMOOTH",
"86.17 579.17 OFFCURVE",
"79 581 OFFCURVE",
"71 581 CURVE SMOOTH",
"59.67 581 OFFCURVE",
"50 577 OFFCURVE",
"42 569 CURVE SMOOTH",
"34 561 OFFCURVE",
"30 551.33 OFFCURVE",
"30 540 CURVE SMOOTH",
"30 528.67 OFFCURVE",
"34 518.83 OFFCURVE",
"42 510.5 CURVE SMOOTH",
"50 502.17 OFFCURVE",
"59.83 498 OFFCURVE",
"71.5 498 CURVE SMOOTH"
);
}
);
width = 143;
}
);
note = j.alt1;
},
{
glyphname = l.ss02;
lastChange = "2018-10-30 03:21:34 +0000";
layers = (
{
anchors = (
{
name = bottom;
position = "{103, 0}";
},
{
name = center;
position = "{103, 400}";
},
{
name = top;
position = "{103, 799}";
},
{
name = topright;
position = "{185, 799}";
}
);
layerId = "1B5A40BC-338C-4A9F-9FD4-89AE55A8ACCC";
paths = (
{
closed = 1;
nodes = (
"175 103 LINE",
"133.67 143.67 OFFCURVE",
"113 192.67 OFFCURVE",
"113 250 CURVE SMOOTH",
"113 580 LINE",
"30 580 LINE",
"30 250 LINE SMOOTH",
"30 197.33 OFFCURVE",
"43.17 148.83 OFFCURVE",
"69.5 104.5 CURVE SMOOTH",
"95.83 60.17 OFFCURVE",
"131 25.33 OFFCURVE",
"175 0 CURVE"
);
}
);
width = 205;
}
);
note = l.alt1;
},
{
glyphname = longs;
lastChange = "2018-10-30 02:45:07 +0000";
layers = (
{
anchors = (
{
name = bottom;
position = "{103, 0}";
},
{
name = top;
position = "{103, 434}";
}
);
layerId = "1B5A40BC-338C-4A9F-9FD4-89AE55A8ACCC";
paths = (
{
closed = 1;
nodes = (
"113 0 LINE",
"113 393 LINE",
"113 542 LINE",
"113 543.5 LINE",
"113 545 LINE",
"113 547 LINE",
"113 548 LINE",
"113 549 LINE SMOOTH",
"113.67 568.33 OFFCURVE",
"119.67 585.83 OFFCURVE",
"131 601.5 CURVE SMOOTH",
"142.33 617.17 OFFCURVE",
"157 628.67 OFFCURVE",
"175 636 CURVE",
"175 722 LINE",
"133 714 OFFCURVE",
"98.33 693.33 OFFCURVE",
"71 660 CURVE SMOOTH",
"43.67 626.67 OFFCURVE",
"30 588.33 OFFCURVE",
"30 545 CURVE SMOOTH",
"30 0 LINE"
);
}
);
width = 205;
}
);
note = uni017f;
unicode = 017F;
},
{
glyphname = t.ss01;
lastChange = "2018-10-30 03:22:32 +0000";
layers = (
{
anchors = (
{
name = bottom;
position = "{175, 0}";
},
{
name = center;
position = "{175, 217}";
},
{
name = top;
position = "{175, 579}";
},
{
name = topright;
position = "{330, 434}";
}
);
layerId = "1B5A40BC-338C-4A9F-9FD4-89AE55A8ACCC";
paths = (
{
closed = 1;
nodes = (
"277 86 LINE",
"259 93.33 OFFCURVE",
"244.5 104.83 OFFCURVE",
"233.5 120.5 CURVE SMOOTH",
"222.5 136.17 OFFCURVE",
"216.33 154 OFFCURVE",
"215 174 CURVE",
"215 176 LINE",
"215 177.5 LINE",
"215 179 LINE",
"215 180 LINE",
"215 197 LINE",
"216 197 LINE",
"216 350 LINE",
"319 350 LINE",
"319 433 LINE",
"216 433 LINE",
"216 578 LINE",
"133 578 LINE",
"133 433 LINE",
"30 433 LINE",
"30 350 LINE",
"132 350 LINE",
"132 177 LINE SMOOTH",
"132 133.67 OFFCURVE",
"145.83 95.5 OFFCURVE",
"173.5 62.5 CURVE SMOOTH",
"201.17 29.5 OFFCURVE",
"235.67 8.67 OFFCURVE",
"277 0 CURVE"
);
}
);
width = 350;
}
);
note = t.alt1;
},
{
glyphname = dieresiscomb;
lastChange = "2018-10-30 03:07:09 +0000";
layers = (
{
anchors = (
{
name = _top;
position = "{149, 434}";
},
{
name = top;
position = "{149, 655}";
}
);
layerId = "1B5A40BC-338C-4A9F-9FD4-89AE55A8ACCC";
paths = (
{
closed = 1;
nodes = (
"234 452 OFFCURVE",
"245 457 OFFCURVE",
"254 466 CURVE SMOOTH",
"263 475 OFFCURVE",
"267 486 OFFCURVE",
"267 499 CURVE SMOOTH",
"267 503 OFFCURVE",
"267 507 OFFCURVE",
"266 511 CURVE SMOOTH",
"265 515 OFFCURVE",
"263 519 OFFCURVE",
"261 522 CURVE SMOOTH",
"259 525 OFFCURVE",
"257 529 OFFCURVE",
"254 532 CURVE SMOOTH",
"251 535 OFFCURVE",
"248 537 OFFCURVE",
"245 539 CURVE SMOOTH",
"241 541 OFFCURVE",
"237 543 OFFCURVE",
"233 544 CURVE SMOOTH",
"229 545 OFFCURVE",
"225 545 OFFCURVE",
"221 545 CURVE SMOOTH",
"208 545 OFFCURVE",
"198 541 OFFCURVE",
"189 532 CURVE SMOOTH",
"180 523 OFFCURVE",
"175 512 OFFCURVE",
"175 499 CURVE SMOOTH",
"175 486 OFFCURVE",
"180 475 OFFCURVE",
"189 466 CURVE SMOOTH",
"198 457 OFFCURVE",
"208 452 OFFCURVE",
"221 452 CURVE SMOOTH"
);
},
{
closed = 1;
nodes = (
"89 452 OFFCURVE",
"101 457 OFFCURVE",
"110 466 CURVE SMOOTH",
"119 475 OFFCURVE",
"123 486 OFFCURVE",
"123 499 CURVE SMOOTH",
"123 512 OFFCURVE",
"119 523 OFFCURVE",
"110 532 CURVE SMOOTH",
"101 541 OFFCURVE",
"90 545 OFFCURVE",
"77 545 CURVE SMOOTH",
"64 545 OFFCURVE",
"53 541 OFFCURVE",
"44 532 CURVE SMOOTH",
"35 523 OFFCURVE",
"30 512 OFFCURVE",
"30 499 CURVE SMOOTH",
"30 492 OFFCURVE",
"31 486 OFFCURVE",
"34 481 CURVE SMOOTH",
"37 476 OFFCURVE",
"39 471 OFFCURVE",
"44 466 CURVE SMOOTH",
"48 462 OFFCURVE",
"53 459 OFFCURVE",
"59 456 CURVE SMOOTH",
"64 453 OFFCURVE",
"70 452 OFFCURVE",
"76 452 CURVE SMOOTH"
);
}
);
width = 297;
}
);
unicode = 0308;
},
{
glyphname = gravecomb;
lastChange = "2018-10-30 02:28:13 +0000";
layers = (
{
anchors = (
{
name = _top;
position = "{123, 562}";
},
{
name = top;
position = "{113, 655}";
}
);
layerId = "1B5A40BC-338C-4A9F-9FD4-89AE55A8ACCC";
paths = (
{
closed = 1;
nodes = (
"103 655 LINE",
"30 655 LINE",
"123 562 LINE",
"196 562 LINE"
);
}
);
width = 226;
}
);
unicode = 0300;
},
{
glyphname = acutecomb;
lastChange = "2018-10-30 02:28:13 +0000";
layers = (
{
anchors = (
{
name = _top;
position = "{103, 562}";
},
{
name = top;
position = "{113, 655}";
}
);
layerId = "1B5A40BC-338C-4A9F-9FD4-89AE55A8ACCC";
paths = (
{
closed = 1;
nodes = (
"123 655 LINE",
"30 562 LINE",
"103 562 LINE",
"196 655 LINE"
);
}
);
width = 226;
}
);
unicode = 0301;
},
{
glyphname = circumflexcomb;
lastChange = "2018-10-30 03:06:51 +0000";
layers = (
{
anchors = (
{
name = _top;
position = "{187, 434}";
},
{
name = top;
position = "{187, 687}";
}
);
layerId = "1B5A40BC-338C-4A9F-9FD4-89AE55A8ACCC";
paths = (
{
closed = 1;
nodes = (
"186 567 LINE",
"30 489 LINE",
"53 442 LINE",
"186 509 LINE",
"319 442 LINE",
"343 489 LINE"
);
}
);
width = 373;
}
);
unicode = 0302;
},
{
glyphname = caroncomb;
lastChange = "2018-10-30 03:06:58 +0000";
layers = (
{
anchors = (
{
name = _top;
position = "{187, 434}";
},
{
name = top;
position = "{187, 697}";
}
);
layerId = "1B5A40BC-338C-4A9F-9FD4-89AE55A8ACCC";
paths = (
{
closed = 1;
nodes = (
"319 557 LINE",
"186 490 LINE",
"53 557 LINE",
"30 511 LINE",
"186 432 LINE",
"343 511 LINE"
);
}
);
width = 373;
}
);
unicode = 030C;
},
{
glyphname = tildecomb;
lastChange = "2018-10-30 02:36:13 +0000";
layers = (
{
anchors = (
{
name = _top;
position = "{188, 579}";
},
{
name = top;
position = "{188, 683}";
}
);
layerId = "1B5A40BC-338C-4A9F-9FD4-89AE55A8ACCC";
paths = (
{
closed = 1;
nodes = (
"296 651 LINE",
"293.33 638.33 OFFCURVE",
"286.33 628.33 OFFCURVE",
"275 621 CURVE",
"265.67 616.33 OFFCURVE",
"257.33 614 OFFCURVE",
"250 614 CURVE SMOOTH",
"245.33 614 OFFCURVE",
"242 614.33 OFFCURVE",
"240 615 CURVE",
"228 617.67 OFFCURVE",
"218 624.67 OFFCURVE",
"210 636 CURVE",
"196 658.67 OFFCURVE",
"175.67 673.33 OFFCURVE",
"149 680 CURVE SMOOTH",
"141 682 OFFCURVE",
"133.33 683 OFFCURVE",
"126 683 CURVE SMOOTH",
"107.33 683 OFFCURVE",
"90 678 OFFCURVE",
"74 668 CURVE SMOOTH",
"50.67 653.33 OFFCURVE",
"36 632.67 OFFCURVE",
"30 606 CURVE",
"81 595 LINE",
"83 606.33 OFFCURVE",
"89.67 616 OFFCURVE",
"101 624 CURVE",
"108.33 628.67 OFFCURVE",
"116.67 631 OFFCURVE",
"126 631 CURVE SMOOTH",
"130.67 631 OFFCURVE",
"134.33 630.67 OFFCURVE",
"137 630 CURVE SMOOTH",
"149.67 626.67 OFFCURVE",
"159.33 619.67 OFFCURVE",
"166 609 CURVE SMOOTH",
"180 585.67 OFFCURVE",
"200.67 571 OFFCURVE",
"228 565 CURVE",
"234.67 563 OFFCURVE",
"242 562 OFFCURVE",
"250 562 CURVE SMOOTH",
"270 562 OFFCURVE",
"287.33 567 OFFCURVE",
"302 577 CURVE",
"325.33 591 OFFCURVE",
"340 611.67 OFFCURVE",
"346 639 CURVE"
);
}
);
width = 376;
}
);
unicode = 0303;
},
{
glyphname = cedillacomb;
lastChange = "2018-10-30 02:28:13 +0000";
layers = (
{
anchors = (
{
name = _bottom;
position = "{271, 0}";
},
{
name = bottom;
position = "{287, -145}";
}
);
layerId = "1B5A40BC-338C-4A9F-9FD4-89AE55A8ACCC";
paths = (
{
closed = 1;
nodes = (
"296 -145 OFFCURVE",
"318 -138 OFFCURVE",
"337 -125 CURVE",
"358 -111 OFFCURVE",
"369 -92 OFFCURVE",
"369 -68 CURVE SMOOTH",
"369 -45 OFFCURVE",
"358 -26 OFFCURVE",
"337 -11 CURVE",
"331 -7 OFFCURVE",
"324 -3 OFFCURVE",
"315 0 CURVE",
"319 0 LINE",
"257 9 LINE",
"224 -44 LINE",
"271 -44 LINE SMOOTH",
"286 -44 OFFCURVE",
"298 -47 OFFCURVE",
"307 -54 CURVE",
"314 -58 OFFCURVE",
"317 -63 OFFCURVE",
"317 -68 CURVE SMOOTH",
"317 -73 OFFCURVE",
"314 -78 OFFCURVE",
"307 -83 CURVE SMOOTH",
"298 -90 OFFCURVE",
"285 -93 OFFCURVE",
"271 -93 CURVE SMOOTH",
"257 -93 OFFCURVE",
"245 -89 OFFCURVE",
"235 -83 CURVE",
"205 -125 LINE",
"224 -138 OFFCURVE",
"246 -145 OFFCURVE",
"271 -145 CURVE SMOOTH"
);
}
);
width = 600;
}
);
unicode = 0327;
},
